<svg width="500" height="500" viewBox="0 0 500 500" fill="none" xmlns="http://www.w3.org/2000/svg">
<path d="M301.467 35.5991V39.7881" stroke="#091527" stroke-width="2" stroke-miterlimit="10" stroke-linecap="round" stroke-linejoin="round"/>
<path d="M301.467 44.51V48.698" stroke="#091527" stroke-width="2" stroke-miterlimit="10" stroke-linecap="round" stroke-linejoin="round"/>
<path d="M294.918 42.1482H299.106" stroke="#091527" stroke-width="2" stroke-miterlimit="10" stroke-linecap="round" stroke-linejoin="round"/>
<path d="M303.828 42.1482H308.017" stroke="#091527" stroke-width="2" stroke-miterlimit="10" stroke-linecap="round" stroke-linejoin="round"/>
<path d="M42.6074 340.609V344.797" stroke="#091527" stroke-width="2" stroke-miterlimit="10" stroke-linecap="round" stroke-linejoin="round"/>
<path d="M42.6074 349.521V353.709" stroke="#091527" stroke-width="2" stroke-miterlimit="10" stroke-linecap="round" stroke-linejoin="round"/>
<path d="M36.0566 347.16H40.2456" stroke="#091527" stroke-width="2" stroke-miterlimit="10" stroke-linecap="round" stroke-linejoin="round"/>
<path d="M44.9668 347.16H49.1548" stroke="#091527" stroke-width="2" stroke-miterlimit="10" stroke-linecap="round" stroke-linejoin="round"/>
<path d="M446.129 216.574V220.762" stroke="#091527" stroke-width="2" stroke-miterlimit="10" stroke-linecap="round" stroke-linejoin="round"/>
<path d="M446.129 225.484V229.672" stroke="#091527" stroke-width="2" stroke-miterlimit="10" stroke-linecap="round" stroke-linejoin="round"/>
<path d="M439.578 223.124H443.766" stroke="#091527" stroke-width="2" stroke-miterlimit="10" stroke-linecap="round" stroke-linejoin="round"/>
<path d="M448.488 223.124H452.676" stroke="#091527" stroke-width="2" stroke-miterlimit="10" stroke-linecap="round" stroke-linejoin="round"/>
<path d="M409.031 310.371L389.124 307.622L387.118 314.287C384.712 314.653 382.368 315.213 380.107 315.994L375.05 310.97L358.852 322.877L361.818 328.956C359.785 331.522 358.086 334.351 356.718 337.4L349.578 337.645L347.17 357.583L353.692 359.588C354.129 362.516 354.872 365.331 355.92 368.041L351.321 373.242L363.739 389.026L369.449 385.801C371.679 387.449 374.087 388.861 376.659 390.026L376.798 397.049L396.686 399.794L398.828 393.171C401.425 392.793 403.958 392.179 406.39 391.32L411.53 396.194L427.725 384.305L424.573 378.24C426.59 375.659 428.268 372.828 429.616 369.766L436.68 369.348L439.087 349.41L432.502 347.557C432.053 344.685 431.33 341.908 430.293 339.25L435.254 333.94L422.819 318.132L416.568 321.439C414.32 319.801 411.899 318.418 409.309 317.268L409.031 310.371ZM396.594 328.902C410.291 330.933 419.745 343.681 417.714 357.378C415.683 371.075 402.935 380.529 389.238 378.498C375.541 376.467 366.087 363.72 368.118 350.024C370.149 336.326 382.896 326.871 396.594 328.902Z" fill="#F6F6F6"/>
<path d="M424.613 65.3401L422.711 69.4431C421.132 69.4601 419.581 69.6091 418.057 69.9071L415.267 66.2221L403.782 72.4021L405.137 76.5731C403.598 78.0371 402.25 79.7041 401.096 81.5401L396.485 81.0521L393.131 93.6451L397.138 95.5201C397.152 97.4411 397.368 99.3221 397.795 101.158L394.371 104.075L400.926 115.351L404.891 113.797C406.175 115.058 407.592 116.179 409.139 117.161L408.589 121.684L421.123 125.249L423.103 121.185C424.805 121.178 426.478 121.016 428.118 120.684L430.984 124.285L442.469 118.106L440.991 113.935C442.52 112.459 443.862 110.788 445.005 108.943L449.579 109.314L452.932 96.7211L448.867 94.9331C448.839 93.0481 448.623 91.2001 448.198 89.3981L451.865 86.4281L445.31 75.1511L440.993 76.7091C439.697 75.4531 438.263 74.3431 436.703 73.3691L437.148 68.9031L424.613 65.3401ZM425.634 86.0321C430.776 87.4941 433.761 92.8551 432.299 97.9951C430.837 103.135 425.487 106.09 420.345 104.628C415.205 103.165 412.209 97.8381 413.671 92.6981C415.134 87.5551 420.494 84.5691 425.634 86.0321Z" stroke="#091527" stroke-width="2" stroke-miterlimit="10" stroke-linecap="round" stroke-linejoin="round"/>
<path d="M44.4785 49.4761C44.4785 47.3001 46.2425 45.5361 48.4185 45.5361H89.3715C91.5475 45.5361 93.3115 47.3001 93.3115 49.4761V89.8061C93.3115 91.9821 91.5475 93.7461 89.3715 93.7461H48.4185C46.2425 93.7461 44.4785 91.9821 44.4785 89.8061V49.4761Z" fill="#7C2EE9"/>
<path d="M55.2212 91.29V126.278L32.3652 158.048" stroke="#7C2EE9" stroke-width="2" stroke-miterlimit="10" stroke-linecap="round" stroke-linejoin="round"/>
<path d="M64.608 92.8901V127.878L41.752 159.648" stroke="#7C2EE9" stroke-width="2" stroke-miterlimit="10" stroke-linecap="round" stroke-linejoin="round"/>
<path d="M29.2676 158.493C29.2676 156.781 30.6546 155.394 32.3666 155.394C34.0786 155.394 35.4656 156.782 35.4656 158.493C35.4656 160.204 34.0786 161.592 32.3666 161.592C30.6546 161.592 29.2676 160.204 29.2676 158.493Z" fill="#7C2EE9"/>
<path d="M38.6543 159.648C38.6543 157.937 40.0413 156.549 41.7533 156.549C43.4643 156.549 44.8523 157.936 44.8523 159.648C44.8523 161.36 43.4653 162.747 41.7533 162.747C40.0423 162.747 38.6543 161.359 38.6543 159.648Z" fill="#7C2EE9"/>
<path d="M89.082 53.7979H124.07L155.84 30.9419" stroke="#7C2EE9" stroke-width="2" stroke-miterlimit="10" stroke-linecap="round" stroke-linejoin="round"/>
<path d="M90.6816 63.1851H125.67L157.439 40.3291" stroke="#7C2EE9" stroke-width="2" stroke-miterlimit="10" stroke-linecap="round" stroke-linejoin="round"/>
<path d="M156.285 27.843C154.573 27.843 153.186 29.23 153.186 30.942C153.186 32.653 154.573 34.041 156.285 34.041C157.996 34.041 159.384 32.654 159.384 30.942C159.384 29.231 157.996 27.843 156.285 27.843Z" fill="#7C2EE9"/>
<path d="M157.439 37.23C155.728 37.23 154.34 38.618 154.34 40.329C154.34 42.041 155.727 43.428 157.439 43.428C159.151 43.428 160.538 42.041 160.538 40.329C160.539 38.618 159.151 37.23 157.439 37.23Z" fill="#7C2EE9"/>
<path d="M91.7012 72.7061H103.028" stroke="#7C2EE9" stroke-width="2" stroke-miterlimit="10" stroke-linecap="round" stroke-linejoin="round"/>
<path d="M91.7012 82.354H103.028" stroke="#7C2EE9" stroke-width="2" stroke-miterlimit="10" stroke-linecap="round" stroke-linejoin="round"/>
<path d="M64.6094 36.4451V47.7721" stroke="#7C2EE9" stroke-width="2" stroke-miterlimit="10" stroke-linecap="round" stroke-linejoin="round"/>
<path d="M54.9609 36.4451V47.7721" stroke="#7C2EE9" stroke-width="2" stroke-miterlimit="10" stroke-linecap="round" stroke-linejoin="round"/>
<path d="M84.1641 36.4451V47.7721" stroke="#7C2EE9" stroke-width="2" stroke-miterlimit="10" stroke-linecap="round" stroke-linejoin="round"/>
<path d="M74.5156 36.4451V47.7721" stroke="#7C2EE9" stroke-width="2" stroke-miterlimit="10" stroke-linecap="round" stroke-linejoin="round"/>
<path d="M84.1641 91.5271V102.854" stroke="#7C2EE9" stroke-width="2" stroke-miterlimit="10" stroke-linecap="round" stroke-linejoin="round"/>
<path d="M74.5156 91.5271V102.854" stroke="#7C2EE9" stroke-width="2" stroke-miterlimit="10" stroke-linecap="round" stroke-linejoin="round"/>
<path d="M45.6532 63.1851H34.3262" stroke="#7C2EE9" stroke-width="2" stroke-miterlimit="10" stroke-linecap="round" stroke-linejoin="round"/>
<path d="M45.6532 53.5371H34.3262" stroke="#7C2EE9" stroke-width="2" stroke-miterlimit="10" stroke-linecap="round" stroke-linejoin="round"/>
<path d="M45.6532 82.741H34.3262" stroke="#7C2EE9" stroke-width="2" stroke-miterlimit="10" stroke-linecap="round" stroke-linejoin="round"/>
<path d="M45.6532 73.093H34.3262" stroke="#7C2EE9" stroke-width="2" stroke-miterlimit="10" stroke-linecap="round" stroke-linejoin="round"/>
<path d="M138.722 335.682C138.722 335.682 119.271 349.771 112.395 361.113C95.4738 389.027 129.972 392.461 149.073 400.419C153.852 402.41 152.582 415.297 152.582 415.297" stroke="#091527" stroke-width="2" stroke-miterlimit="10" stroke-linecap="round" stroke-linejoin="round"/>
<path d="M151.317 344.053C151.317 344.053 123.524 364.203 125.144 372.884C127.599 386.035 153.156 381.507 162.285 394.548C165.301 398.857 166.407 411.011 166.407 411.011" stroke="#091527" stroke-width="2" stroke-miterlimit="10" stroke-linecap="round" stroke-linejoin="round"/>
<path d="M128.258 344.053L138.721 353.709" stroke="#091527" stroke-width="2" stroke-miterlimit="10" stroke-linecap="round" stroke-linejoin="round"/>
<path d="M121.332 350.32L131.795 359.976" stroke="#091527" stroke-width="2" stroke-miterlimit="10" stroke-linecap="round" stroke-linejoin="round"/>
<path d="M113.75 359.396L126.563 367.584" stroke="#091527" stroke-width="2" stroke-miterlimit="10" stroke-linecap="round" stroke-linejoin="round"/>
<path d="M107.859 371.418L125.144 372.46" stroke="#091527" stroke-width="2" stroke-miterlimit="10" stroke-linecap="round" stroke-linejoin="round"/>
<path d="M114.721 385.735L125.959 375.491" stroke="#091527" stroke-width="2" stroke-miterlimit="10" stroke-linecap="round" stroke-linejoin="round"/>
<path d="M125.145 392.228L130.645 380.075" stroke="#091527" stroke-width="2" stroke-miterlimit="10" stroke-linecap="round" stroke-linejoin="round"/>
<path d="M136.596 395.248L140.563 382.511" stroke="#091527" stroke-width="2" stroke-miterlimit="10" stroke-linecap="round" stroke-linejoin="round"/>
<path d="M145.742 398.888L149.708 386.151" stroke="#091527" stroke-width="2" stroke-miterlimit="10" stroke-linecap="round" stroke-linejoin="round"/>
<path d="M151.125 401.83L160.679 392.519" stroke="#091527" stroke-width="2" stroke-miterlimit="10" stroke-linecap="round" stroke-linejoin="round"/>
<path d="M136.031 314.462C138.545 311.595 142.907 311.308 145.774 313.823L171.864 336.698C174.731 339.212 175.018 343.574 172.504 346.441L163.33 356.904C160.816 359.77 156.454 360.057 153.587 357.543L127.497 334.667C124.63 332.154 124.343 327.791 126.857 324.925L136.031 314.462Z" fill="#091527"/>
<path d="M173.963 404.55L189.744 371.418H300.992L317.74 413.162L269.429 453.032L173.963 404.55Z" stroke="#7C2EE9" stroke-width="2" stroke-miterlimit="10" stroke-linecap="round" stroke-linejoin="round"/>
<path d="M186.121 380.074H304.324" stroke="#7C2EE9" stroke-width="2" stroke-miterlimit="10" stroke-linecap="round" stroke-linejoin="round"/>
<path d="M181.324 388.88H307.443" stroke="#7C2EE9" stroke-width="2" stroke-miterlimit="10" stroke-linecap="round" stroke-linejoin="round"/>
<path d="M177.461 397.686H312.123" stroke="#7C2EE9" stroke-width="2" stroke-miterlimit="10" stroke-linecap="round" stroke-linejoin="round"/>
<path d="M175.547 406.491H311.439" stroke="#7C2EE9" stroke-width="2" stroke-miterlimit="10" stroke-linecap="round" stroke-linejoin="round"/>
<path d="M171.385 415.297H316.482" stroke="#7C2EE9" stroke-width="2" stroke-miterlimit="10" stroke-linecap="round" stroke-linejoin="round"/>
<path d="M172.674 424.104H317.771" stroke="#7C2EE9" stroke-width="2" stroke-miterlimit="10" stroke-linecap="round" stroke-linejoin="round"/>
<path d="M173.301 432.91H318.399" stroke="#7C2EE9" stroke-width="2" stroke-miterlimit="10" stroke-linecap="round" stroke-linejoin="round"/>
<path d="M356.666 407.313C321.819 407.313 293.295 436.604 290.338 473.948H423.028C420.072 436.604 391.514 407.313 356.666 407.313Z" fill="#091527"/>
<path d="M176.397 397.686C176.397 397.686 137.424 400.88 107.519 420.379C77.6142 439.879 71.5352 473.948 71.5352 473.948H384.056C384.056 473.948 370.632 429.753 350.294 414.546C329.956 399.339 312.123 397.618 312.123 397.618L268.172 437.885L176.397 397.686Z" fill="#7C2EE9"/>
<path d="M201.518 419.976L271.292 452.021L309.744 416.788L317.202 423.013L272.573 464.055L196.559 429.838L201.518 419.976Z" fill="#F6F6F6"/>
<path d="M112.383 407.313C77.5347 407.313 49.0117 436.604 46.0547 473.948H178.745C175.789 436.604 147.232 407.313 112.383 407.313Z" fill="#091527"/>
<path d="M355.77 144.957C377.77 152.017 396.817 178.613 395.882 221.905C394.8 272.004 375.084 298.728 349.397 300.939C348.6 301.008 369.611 275.607 372.611 227.123C375.609 178.64 351.519 143.592 355.77 144.957Z" fill="#091527"/>
<path d="M96.2832 217.893C96.2832 137.548 158.49 72.416 235.224 72.416C311.959 72.416 374.165 137.548 374.165 217.893C374.165 298.237 311.959 363.369 235.224 363.369C158.49 363.37 96.2832 298.238 96.2832 217.893Z" fill="#7C2EE9"/>
<path d="M161.613 247.872L249.6 252.864L261.953 315.931L248.344 337.828L232.964 269.539L158.078 264.305L161.613 247.872Z" stroke="#091527" stroke-width="2" stroke-miterlimit="10" stroke-linecap="round" stroke-linejoin="round"/>
<path d="M372.61 238.316L327.114 251.132L309.742 308.253L320.506 321.032L338.235 261.989L371.323 253.379L372.61 238.316Z" stroke="#091527" stroke-width="2" stroke-miterlimit="10" stroke-linecap="round" stroke-linejoin="round"/>
<path d="M316.482 336.154L301.149 316.456L274.96 317.944L250.705 362.138" stroke="#091527" stroke-width="2" stroke-miterlimit="10" stroke-linecap="round" stroke-linejoin="round"/>
<path d="M233.217 362.138L268.172 306.355L306.952 305.146L326.743 328.359" stroke="#091527" stroke-width="2" stroke-miterlimit="10" stroke-linecap="round" stroke-linejoin="round"/>
<path d="M149.072 189.796C149.072 189.796 224.273 167.652 287.709 166.959C351.145 166.267 366.831 172.034 366.831 172.034" stroke="#091527" stroke-width="2" stroke-miterlimit="10" stroke-linecap="round" stroke-linejoin="round"/>
<path d="M152.582 206.551C152.582 206.551 227.783 184.406 291.219 183.714C354.655 183.022 371.324 188.555 371.324 188.555" stroke="#091527" stroke-width="2" stroke-miterlimit="10" stroke-linecap="round" stroke-linejoin="round"/>
<path d="M175.225 86.885L190.729 142.254L271.312 166.957" stroke="#091527" stroke-width="2" stroke-miterlimit="10" stroke-linecap="round" stroke-linejoin="round"/>
<path d="M302.488 167.298L332.954 128.645L328.383 109.714" stroke="#091527" stroke-width="2" stroke-miterlimit="10" stroke-linecap="round" stroke-linejoin="round"/>
<path d="M199.879 136.349L253.987 129.384L261.461 156.736L199.879 136.349Z" fill="white"/>
<path d="M304.324 126.921L308.995 150.541L326.159 126.921H304.324Z" fill="white"/>
<path d="M164.141 193.418C164.141 191.419 165.764 189.796 167.764 189.796C169.763 189.796 171.386 191.419 171.386 193.418C171.386 195.419 169.763 197.041 167.764 197.041C165.763 197.041 164.141 195.418 164.141 193.418Z" fill="#091527"/>
<path d="M182.5 189.796C182.5 187.796 184.122 186.174 186.122 186.174C188.123 186.174 189.744 187.797 189.744 189.796C189.744 191.796 188.123 193.418 186.122 193.418C184.121 193.418 182.5 191.796 182.5 189.796Z" fill="#091527"/>
<path d="M201.518 184.413C201.518 182.412 203.139 180.791 205.14 180.791C207.141 180.791 208.762 182.413 208.762 184.413C208.762 186.414 207.141 188.035 205.14 188.035C203.14 188.035 201.518 186.413 201.518 184.413Z" fill="#091527"/>
<path d="M223.27 180.791C223.27 178.791 224.891 177.169 226.892 177.169C228.893 177.169 230.514 178.791 230.514 180.791C230.514 182.792 228.893 184.413 226.892 184.413C224.892 184.413 223.27 182.791 223.27 180.791Z" fill="#091527"/>
<path d="M243.461 178.349C243.461 176.348 245.083 174.727 247.083 174.727C249.084 174.727 250.705 176.349 250.705 178.349C250.705 180.349 249.083 181.971 247.083 181.971C245.082 181.971 243.461 180.35 243.461 178.349Z" fill="#091527"/>
<path d="M322.791 174.348C323.136 172.378 325.013 171.06 326.984 171.404C328.954 171.749 330.273 173.626 329.928 175.597C329.583 177.567 327.706 178.885 325.735 178.541C323.765 178.196 322.447 176.319 322.791 174.348Z" fill="#091527"/>
<path d="M343.103 175.423C343.448 173.453 345.325 172.135 347.296 172.479C349.266 172.824 350.584 174.701 350.24 176.672C349.895 178.642 348.018 179.96 346.047 179.616C344.077 179.27 342.759 177.394 343.103 175.423Z" fill="#091527"/>
<path d="M363.264 179.046C363.608 177.076 365.486 175.757 367.456 176.102C369.426 176.446 370.745 178.324 370.4 180.294C370.056 182.265 368.178 183.583 366.208 183.238C364.237 182.894 362.919 181.016 363.264 179.046Z" fill="#091527"/>
<path d="M242.273 354.611C242.57 352.914 244.186 351.78 245.882 352.076C247.579 352.373 248.713 353.989 248.417 355.686C248.12 357.383 246.504 358.517 244.808 358.22C243.112 357.922 241.977 356.307 242.273 354.611Z" fill="#091527"/>
<path d="M250.753 341.878C251.05 340.182 252.665 339.048 254.362 339.344C256.059 339.641 257.193 341.257 256.897 342.953C256.6 344.65 254.984 345.784 253.287 345.488C251.59 345.191 250.455 343.575 250.753 341.878Z" fill="#091527"/>
<path d="M268.219 312.799C268.515 311.102 270.131 309.968 271.828 310.265C273.525 310.561 274.659 312.177 274.362 313.874C274.066 315.571 272.45 316.705 270.753 316.408C269.057 316.112 267.922 314.496 268.219 312.799Z" fill="#091527"/>
<path d="M258.881 327.467C259.178 325.77 260.794 324.635 262.49 324.933C264.187 325.23 265.321 326.845 265.025 328.542C264.728 330.239 263.112 331.373 261.415 331.077C259.72 330.78 258.585 329.164 258.881 327.467Z" fill="#091527"/>
<path d="M284.148 311.096C284.445 309.399 286.061 308.265 287.758 308.561C289.454 308.858 290.588 310.474 290.292 312.171C289.995 313.868 288.379 315.003 286.683 314.705C284.987 314.408 283.852 312.793 284.148 311.096Z" fill="#091527"/>
<path d="M301.252 311.096C301.549 309.399 303.164 308.265 304.861 308.561C306.558 308.858 307.693 310.474 307.396 312.171C307.099 313.868 305.482 315.003 303.786 314.705C302.09 314.408 300.956 312.793 301.252 311.096Z" fill="#091527"/>
<path d="M312.17 323.612C312.467 321.915 314.083 320.782 315.78 321.078C317.476 321.375 318.61 322.99 318.314 324.687C318.017 326.384 316.401 327.518 314.705 327.222C313.008 326.925 311.874 325.309 312.17 323.612Z" fill="#091527"/>
<path d="M230.303 72.856C230.303 72.856 251.545 99.411 259.535 120.194C267.526 140.978 272.195 167.566 272.195 167.566L255.009 185.773L215.124 188.292C207.118 188.8 201.038 195.702 201.545 203.708L202.736 222.426C203.244 230.432 210.146 236.512 218.152 236.004L346.384 227.871C354.39 227.362 360.471 220.426 359.963 212.42L358.772 193.702C358.264 185.695 351.362 179.649 343.356 180.158L320.078 181.622L304.287 165.457C304.287 165.457 302.745 142.049 294.247 116.213C285.751 90.378 275.394 78.608 275.394 78.608C275.394 78.608 261.4 74.612 254.736 73.946C248.072 73.28 230.303 72.856 230.303 72.856Z" fill="#F6F6F6"/>
<path d="M235.225 208.223C235.225 200.978 241.098 195.105 248.343 195.105C255.588 195.105 261.461 200.978 261.461 208.223C261.461 215.468 255.588 221.341 248.343 221.341C241.098 221.341 235.225 215.468 235.225 208.223Z" fill="#091527"/>
<path d="M245.346 208.223C245.346 204.6 248.283 201.664 251.905 201.664C255.527 201.664 258.464 204.6 258.464 208.223C258.464 211.845 255.527 214.782 251.905 214.782C248.283 214.782 245.346 211.845 245.346 208.223Z" fill="white"/>
<path d="M319.836 204.775C319.836 197.53 325.71 191.657 332.954 191.657C340.199 191.657 346.072 197.53 346.072 204.775C346.072 212.02 340.199 217.893 332.954 217.893C325.711 217.893 319.836 212.02 319.836 204.775Z" fill="#091527"/>
<path d="M329.957 204.775C329.957 201.152 332.894 198.216 336.516 198.216C340.139 198.216 343.075 201.152 343.075 204.775C343.075 208.397 340.139 211.334 336.516 211.334C332.894 211.334 329.957 208.397 329.957 204.775Z" fill="white"/>
<path d="M138.723 129.384H175.226V157.885H138.723V129.384Z" fill="#091527"/>
<path d="M138.723 134.63H175.226" stroke="#7C2EE9" stroke-width="2" stroke-miterlimit="10" stroke-linecap="round" stroke-linejoin="round"/>
<path d="M138.723 140.524H175.226" stroke="#7C2EE9" stroke-width="2" stroke-miterlimit="10" stroke-linecap="round" stroke-linejoin="round"/>
<path d="M138.723 146.419H175.226" stroke="#7C2EE9" stroke-width="2" stroke-miterlimit="10" stroke-linecap="round" stroke-linejoin="round"/>
<path d="M138.723 152.315H175.226" stroke="#7C2EE9" stroke-width="2" stroke-miterlimit="10" stroke-linecap="round" stroke-linejoin="round"/>
<path d="M230.337 71.2219C228.95 71.1889 228.176 72.7929 229.043 73.8759C229.083 73.9249 231.526 77.0759 232.446 78.2999C235.077 81.7989 237.835 85.6469 240.58 89.6669C248.401 101.117 254.563 111.823 258.004 120.772C259.358 124.294 260.685 128.149 261.952 132.241C264.363 140.03 266.509 148.354 268.35 156.71C268.995 159.635 269.543 162.373 270.017 164.809C270.139 165.432 270.332 166.331 270.459 167.021L254.261 184.173L215.022 186.658C206.115 187.223 199.347 194.903 199.912 203.81L201.103 222.527C201.668 231.434 209.349 238.202 218.255 237.637L346.487 229.504C355.39 228.939 362.162 221.229 361.597 212.317L360.406 193.6C359.841 184.698 352.166 177.958 343.254 178.524L321.168 179.919L320.726 179.954L305.853 164.742C305.838 164.532 305.831 164.4 305.819 164.265C305.745 163.391 305.67 162.385 305.547 161.236C305.197 157.961 304.722 154.279 304.084 150.278C302.261 138.844 299.56 127.094 295.814 115.702C294.558 111.884 293.208 108.248 291.798 104.777C288.505 96.6709 284.959 89.8429 281.419 84.2559C280.174 82.2909 279.026 80.6039 277.982 79.2189C277.346 78.3759 276.88 77.8119 276.621 77.5169C276.414 77.2819 276.139 77.1259 275.838 77.0409C275.838 77.0409 274.147 76.5639 273.524 76.3939C271.743 75.9099 269.883 75.4069 267.977 74.9309C262.489 73.5599 257.926 72.6119 254.909 72.3109C252.551 72.0749 248.709 71.8669 243.815 71.6639C240.864 71.5419 232.417 71.2799 231.495 71.2559C231.171 71.2479 230.39 71.2239 230.337 71.2219ZM233.705 74.5909C236.828 74.6869 241.525 74.8409 243.711 74.9309C248.544 75.1309 252.291 75.3499 254.567 75.5779C257.38 75.8589 261.818 76.7619 267.158 78.0959C269.042 78.5669 270.912 79.0809 272.672 79.5589C273.159 79.6909 274.021 79.9089 274.475 80.0359C274.734 80.3539 275.016 80.7379 275.359 81.1929C276.351 82.5069 277.463 84.1019 278.661 85.9919C282.099 91.4169 285.549 98.0799 288.768 106.002C290.15 109.404 291.449 112.975 292.682 116.722C296.369 127.936 299.053 139.516 300.85 150.787C301.478 154.731 301.936 158.355 302.279 161.575C302.4 162.7 302.637 165.102 302.654 165.319C302.663 165.438 302.654 165.557 302.654 165.557C302.68 165.946 302.859 166.334 303.13 166.612L316.437 180.225L258.991 183.934L273.387 168.688C273.741 168.312 273.885 167.801 273.795 167.292C273.77 167.148 273.384 165.025 273.217 164.162C272.738 161.7 272.165 158.98 271.515 156.028C269.657 147.59 267.49 139.137 265.049 131.253C263.762 127.095 262.448 123.209 261.067 119.614C257.516 110.378 251.22 99.4359 243.268 87.7949C240.492 83.7319 237.726 79.8969 235.066 76.3599C234.704 75.8779 234.307 75.3719 233.705 74.5909ZM343.458 181.792C350.573 181.34 356.688 186.707 357.138 193.805L358.329 212.523C358.781 219.635 353.382 225.787 346.282 226.238L218.05 234.371C210.944 234.822 204.82 229.431 204.369 222.324L203.178 203.606C202.727 196.501 208.119 190.377 215.226 189.926L252.661 187.578L255.111 187.407L320.18 183.256L321.37 183.187L343.458 181.792Z" fill="#091527"/>
<path d="M287.244 183.73L286.453 263.622H316.482L297.043 182.624L287.244 183.73Z" fill="#091527"/>
<path d="M268.172 283.525H306.268V295.384H268.172V283.525Z" fill="#091527"/>
<path d="M66.7696 237.448C65.5766 192.333 86.3796 155.185 113.235 154.475C140.089 153.765 167.447 182.625 166.378 236.034C165.307 289.444 144.408 317.142 117.554 317.852C90.6986 318.561 67.9626 282.564 66.7696 237.448Z" fill="#091527"/>
<path d="M76.1115 236.921C75.3445 205.796 88.7315 180.167 106.011 179.678C123.292 179.188 137.922 204.023 138.69 235.147C139.458 266.272 126.07 291.901 108.79 292.39C91.5105 292.88 76.8795 268.045 76.1115 236.921Z" stroke="#7C2EE9" stroke-width="2" stroke-miterlimit="10" stroke-linecap="round" stroke-linejoin="round"/>
<path d="M112.395 159.788C135.947 159.166 159.377 191.657 159.264 236.033C159.151 280.41 139.995 312.261 116.443 312.884" stroke="#7C2EE9" stroke-width="2" stroke-miterlimit="10" stroke-linecap="round" stroke-linejoin="round"/>
<path d="M107.52 186.229C119.63 185.886 131.753 206.893 131.796 235.506C131.841 264.12 122.063 284.609 109.955 284.952" stroke="#7C2EE9" stroke-width="2" stroke-miterlimit="10" stroke-linecap="round" stroke-linejoin="round"/>
<path d="M95.1323 249.843C95.1323 249.843 101.802 249.784 105.585 249.678C109.367 249.57 112.397 244.288 112.394 235.72C112.391 227.152 108.915 221.618 104.919 221.378C100.925 221.136 94.1953 221.23 94.1953 221.23" stroke="#7C2EE9" stroke-width="2" stroke-miterlimit="10" stroke-linecap="round" stroke-linejoin="round"/>
<path d="M86.6691 235.812C86.4341 226.92 90.0331 219.611 94.7071 219.488C99.3821 219.364 103.363 226.473 103.598 235.365C103.833 244.258 100.234 251.566 95.5591 251.691C90.8841 251.813 86.9041 244.705 86.6691 235.812Z" fill="#7C2EE9"/>
</svg>
