<svg width="437" height="382" viewBox="0 0 437 382" fill="none" xmlns="http://www.w3.org/2000/svg">
<path d="M320.651 234.818C320.785 220.483 318.142 194.032 330.476 169.348C339.412 151.463 355.281 134.148 369.889 136.005C383.496 137.733 384.558 158.692 371.415 172.927C358.271 187.165 346.049 211.684 342.173 243.364L328.078 262L320.651 234.818Z" fill="#7C2EE9"/>
<g opacity="0.1">
<path d="M320.651 234.818C320.785 220.483 318.142 194.032 330.476 169.348C339.412 151.463 355.281 134.148 369.889 136.005C383.496 137.733 384.558 158.692 371.415 172.927C358.271 187.165 346.049 211.684 342.173 243.364L328.078 262L320.651 234.818Z" fill="#091527"/>
</g>
<path d="M331.974 246.009C332.454 245.901 332.791 245.45 332.744 244.947C329.006 204.316 340.515 169.838 366.024 145.24C366.421 144.857 366.432 144.228 366.051 143.832C365.668 143.434 365.038 143.43 364.643 143.806C338.682 168.839 326.965 203.879 330.759 245.13C330.811 245.678 331.295 246.082 331.841 246.032C331.888 246.026 331.929 246.021 331.974 246.009Z" fill="white"/>
<path d="M341.646 255.608C341.646 255.608 351.672 262.012 367.01 261.997C382.347 261.982 387.809 253.772 387.809 253.772C387.809 253.772 379.682 240.671 370.561 238.089C370.561 238.089 385.431 238.73 398.221 244.604C398.221 244.604 407.378 243.286 408.793 228.757C408.793 228.757 402.043 221.224 383.162 219.584C383.162 219.584 393.765 215.041 410.335 216.565C411.604 216.849 413.82 198.002 414.035 189.435C414.25 180.87 410.921 181.489 404.163 180.791C397.404 180.092 375.153 182.523 371.664 186.738C368.172 190.953 368.054 203.482 368.054 203.482C368.054 203.482 363.073 197.198 363.021 190.888C363.021 190.888 356.468 190.23 350.119 194.78C345.942 197.774 343.699 200.452 343.488 205.817C343.276 211.183 343.953 216.952 344.973 223.84C344.973 223.84 339.647 215.314 341.16 202.124C341.16 202.124 328.815 210.612 328.206 218.929C327.591 227.266 326.443 243.856 341.646 255.608Z" fill="#7C2EE9"/>
<path d="M341.93 256.564C342.242 256.472 342.501 256.227 342.6 255.895C350.662 228.91 390.845 192.644 406.401 186.961C406.917 186.772 407.184 186.2 406.995 185.684C406.807 185.169 406.274 184.876 405.719 185.091C389.862 190.883 348.905 227.837 340.692 255.324C340.535 255.852 340.834 256.405 341.361 256.564C341.556 256.62 341.75 256.616 341.93 256.564Z" fill="white"/>
<path d="M31.0654 294.315C31.0654 297.208 33.2298 300.803 35.8988 302.344L171.286 380.555C173.955 382.096 178.282 382.096 180.95 380.555L366.196 273.54C368.865 271.999 371.028 268.404 371.028 265.511C371.028 262.618 368.865 259.023 366.196 257.482L230.809 179.271C228.14 177.73 223.813 177.73 221.146 179.271L35.897 286.285C33.228 287.827 31.0654 291.422 31.0654 294.315Z" fill="#37474F"/>
<path d="M176.122 371.246V381.708C174.37 381.708 172.617 381.328 171.29 380.557L35.897 302.344C33.2298 300.803 31.0654 297.209 31.0654 294.315C31.0654 291.602 32.9738 288.275 35.4054 286.601C33.2411 288.153 33.4074 290.431 35.897 291.871L171.29 370.085C172.617 370.855 174.369 371.246 176.122 371.246Z" fill="#263238"/>
<path d="M26.5325 286.459C24.0298 285.013 22 281.34 22 278.258V116.599C22 113.515 24.1625 109.765 26.8316 108.224L212.078 1.20869C214.747 -0.332309 218.94 -0.410875 221.444 1.03662C223.949 2.48225 225.979 6.15524 225.979 9.23724V170.897C225.979 173.981 223.814 177.728 221.147 179.271L35.8984 286.285C33.2275 287.828 29.0352 287.906 26.5325 286.459Z" fill="#455A64"/>
<path d="M35.3275 286.579C32.6603 287.83 28.8662 287.807 26.5336 286.455C24.0346 285.015 22.0029 281.342 22.0029 278.26V116.595C22.0029 115.054 22.5393 113.347 23.4197 111.839L32.4809 117.065V117.076C31.61 118.594 31.0641 120.292 31.0641 121.832V283.497C31.0641 286.354 32.9276 287.639 35.3275 286.579Z" fill="#263238"/>
<path d="M31.0654 121.837V283.496C31.0654 286.58 33.2298 287.829 35.897 286.286L221.146 179.273C223.815 177.732 225.977 173.982 225.977 170.898V9.23875C225.977 6.15487 223.813 4.90562 221.146 6.44662L35.897 113.46C33.228 115.003 31.0654 118.753 31.0654 121.837Z" fill="#37474F"/>
<path d="M35.8953 291.869L171.283 370.08C173.952 371.621 178.279 371.621 180.946 370.08L366.195 263.065C368.864 261.524 368.864 259.023 366.195 257.482L230.807 179.271C228.138 177.73 223.811 177.73 221.144 179.271L35.8953 286.285C33.2263 287.827 33.2263 290.328 35.8953 291.869Z" fill="#455A64"/>
<path d="M38.4975 122.433L217.1 19.2833C218.702 18.3576 219.999 19.1075 219.999 20.959V160.9C219.999 162.75 218.702 165 217.1 165.925L38.4975 269.074C36.8958 269.999 35.5986 269.249 35.5986 267.398V127.458C35.5968 125.609 36.8958 123.359 38.4975 122.433Z" fill="#F6F6F6"/>
<path d="M51.6093 287.684L223.56 188.353C224.894 187.582 227.057 187.582 228.391 188.353L237.185 193.434C238.52 194.204 238.52 195.454 237.185 196.224L65.2086 295.54C63.8741 296.311 61.7097 296.311 60.3771 295.54L51.6093 290.476C50.2748 289.704 50.2748 288.454 51.6093 287.684Z" fill="#7C2EE9"/>
<path d="M51.6093 287.684L223.56 188.353C224.894 187.582 227.057 187.582 228.391 188.353L237.185 193.434C238.52 194.204 238.52 195.454 237.185 196.224L65.2086 295.54C63.8741 296.311 61.7097 296.311 60.3771 295.54L51.6093 290.476C50.2748 289.704 50.2748 288.454 51.6093 287.684Z" fill="#263238"/>
<path d="M74.279 300.777L246.227 201.444C247.562 200.673 249.724 200.673 251.059 201.444L305.153 232.696C306.488 233.466 306.488 234.715 305.153 235.486L133.401 334.682C132.067 335.453 129.902 335.457 128.564 334.69L74.2828 303.561C72.9464 302.793 72.9445 301.547 74.279 300.777Z" fill="#263238"/>
<path d="M228.414 246.133L233.797 243.023C234.025 242.89 234.012 242.667 233.767 242.527L227.541 238.931C227.296 238.789 226.911 238.781 226.681 238.914L221.298 242.024C221.07 242.157 221.083 242.377 221.33 242.52L227.556 246.116C227.801 246.258 228.186 246.265 228.414 246.133ZM217.79 233.777L212.407 236.887C212.179 237.019 212.192 237.242 212.437 237.384L218.663 240.98C218.908 241.123 219.293 241.13 219.523 240.997L224.906 237.887C225.134 237.754 225.12 237.534 224.876 237.392L218.65 233.795C218.403 233.651 218.018 233.644 217.79 233.777ZM200.396 243.823L191.285 249.086C191.057 249.217 191.07 249.441 191.315 249.581L197.541 253.178C197.787 253.32 198.17 253.327 198.4 253.194L207.512 247.932C207.74 247.799 207.727 247.578 207.482 247.436L201.256 243.84C201.01 243.7 200.625 243.692 200.396 243.823ZM209.921 238.321L204.536 241.431C204.308 241.562 204.321 241.785 204.566 241.927L210.792 245.523C211.037 245.665 211.422 245.673 211.65 245.54L217.033 242.43C217.261 242.297 217.248 242.076 217.003 241.934L210.777 238.338C210.534 238.196 210.149 238.188 209.921 238.321ZM188.801 250.522L183.418 253.632C183.188 253.765 183.203 253.985 183.448 254.128L189.674 257.724C189.919 257.866 190.304 257.873 190.532 257.741L195.914 254.631C196.142 254.5 196.129 254.277 195.883 254.135L189.657 250.539C189.414 250.399 189.029 250.391 188.801 250.522ZM180.932 255.068L175.549 258.178C175.321 258.311 175.334 258.532 175.579 258.674L181.805 262.27C182.05 262.412 182.435 262.42 182.663 262.287L188.046 259.177C188.274 259.044 188.261 258.824 188.016 258.681L181.79 255.085C181.545 254.945 181.16 254.935 180.932 255.068ZM205.419 269.693L210.802 266.583C211.03 266.452 211.016 266.229 210.77 266.087L204.544 262.491C204.297 262.349 203.914 262.341 203.684 262.474L198.301 265.584C198.073 265.717 198.086 265.939 198.331 266.082L204.557 269.678C204.806 269.816 205.191 269.824 205.419 269.693ZM197.55 274.237L202.933 271.127C203.161 270.994 203.148 270.774 202.901 270.632L196.677 267.035C196.43 266.893 196.047 266.886 195.817 267.017L190.434 270.127C190.204 270.258 190.219 270.48 190.464 270.622L196.69 274.219C196.937 274.363 197.322 274.37 197.55 274.237ZM189.681 278.784L195.064 275.674C195.292 275.541 195.279 275.32 195.034 275.178L188.808 271.582C188.563 271.44 188.178 271.432 187.948 271.565L182.566 274.675C182.338 274.808 182.351 275.028 182.597 275.17L188.823 278.767C189.068 278.907 189.453 278.915 189.681 278.784ZM181.812 283.328L187.197 280.218C187.425 280.085 187.412 279.865 187.165 279.722L180.94 276.126C180.693 275.984 180.31 275.977 180.08 276.109L174.697 279.219C174.469 279.352 174.482 279.573 174.727 279.715L180.953 283.311C181.199 283.453 181.584 283.461 181.812 283.328ZM220.545 250.679L225.928 247.569C226.156 247.438 226.143 247.214 225.898 247.073L219.672 243.477C219.427 243.335 219.042 243.327 218.814 243.46L213.431 246.57C213.201 246.703 213.216 246.926 213.461 247.066L219.687 250.662C219.932 250.804 220.317 250.812 220.545 250.679ZM213.287 265.147L225.298 258.208C225.526 258.075 225.513 257.855 225.266 257.713L210.147 248.979C209.903 248.837 209.518 248.829 209.289 248.962L203.077 252.551C202.849 252.684 202.862 252.905 203.107 253.049L211.112 257.672C211.357 257.814 211.372 258.036 211.142 258.167L206.172 261.038C205.942 261.171 205.957 261.393 206.202 261.533L212.428 265.13C212.674 265.272 213.059 265.279 213.287 265.147ZM173.063 259.613L167.678 262.723C167.45 262.856 167.464 263.076 167.71 263.218L173.936 266.815C174.183 266.957 174.566 266.964 174.796 266.832L180.179 263.721C180.407 263.589 180.394 263.366 180.149 263.224L173.923 259.628C173.676 259.489 173.293 259.482 173.063 259.613ZM165.194 264.159L159.81 267.269C159.582 267.402 159.595 267.624 159.84 267.767L166.065 271.363C166.312 271.505 166.695 271.512 166.925 271.38L172.308 268.27C172.536 268.137 172.523 267.914 172.278 267.774L166.052 264.178C165.808 264.036 165.423 264.026 165.194 264.159ZM125.875 315.13C126.12 315.272 126.505 315.28 126.733 315.147L132.116 312.037C132.344 311.904 132.331 311.681 132.086 311.539L125.86 307.943C125.615 307.801 125.23 307.793 125 307.926L119.617 311.036C119.389 311.169 119.402 311.39 119.647 311.532L125.875 315.13ZM102.246 300.524L96.8634 303.634C96.6353 303.767 96.6484 303.99 96.8932 304.13L103.119 307.726C103.364 307.868 103.749 307.876 103.979 307.745L109.362 304.635C109.59 304.502 109.577 304.281 109.332 304.139L103.106 300.543C102.859 300.399 102.476 300.391 102.246 300.524ZM114.911 311.19C115.158 311.332 115.541 311.339 115.771 311.206L121.156 308.096C121.384 307.964 121.371 307.743 121.124 307.601L114.9 304.004C114.653 303.862 114.27 303.855 114.04 303.986L108.657 307.096C108.429 307.229 108.442 307.449 108.687 307.591L114.911 311.19ZM139.768 317.892L145.151 314.782C145.379 314.649 145.366 314.429 145.121 314.287L138.895 310.69C138.648 310.548 138.265 310.541 138.035 310.673L132.652 313.783C132.424 313.914 132.437 314.139 132.684 314.279L138.91 317.875C139.155 318.017 139.54 318.025 139.768 317.892ZM131.041 322.42C131.286 322.562 131.671 322.569 131.899 322.437L137.282 319.327C137.51 319.196 137.497 318.973 137.252 318.831L131.026 315.235C130.779 315.093 130.396 315.085 130.168 315.216L124.785 318.326C124.557 318.459 124.57 318.68 124.815 318.822L131.041 322.42ZM110.115 295.978L104.732 299.088C104.504 299.221 104.517 299.441 104.764 299.583L110.99 303.18C111.236 303.322 111.62 303.329 111.85 303.198L117.232 300.088C117.46 299.956 117.447 299.735 117.202 299.593L110.977 295.996C110.728 295.854 110.343 295.845 110.115 295.978ZM149.457 273.25L144.074 276.36C143.846 276.493 143.859 276.713 144.106 276.855L150.332 280.452C150.578 280.594 150.962 280.601 151.19 280.471L156.574 277.36C156.802 277.228 156.789 277.007 156.544 276.865L150.319 273.269C150.07 273.126 149.687 273.119 149.457 273.25ZM117.984 291.433L112.601 294.543C112.373 294.674 112.386 294.897 112.631 295.039L118.857 298.635C119.103 298.777 119.486 298.785 119.716 298.654L125.099 295.544C125.327 295.411 125.314 295.19 125.069 295.048L118.844 291.452C118.597 291.308 118.212 291.301 117.984 291.433ZM157.326 268.705L151.943 271.815C151.715 271.946 151.728 272.169 151.975 272.311L158.2 275.907C158.445 276.049 158.83 276.057 159.058 275.924L164.441 272.814C164.669 272.681 164.656 272.461 164.411 272.319L158.185 268.722C157.939 268.58 157.554 268.573 157.326 268.705ZM141.59 277.796L136.207 280.906C135.979 281.037 135.992 281.26 136.237 281.402L142.463 284.998C142.708 285.14 143.093 285.148 143.323 285.017L148.706 281.907C148.934 281.774 148.921 281.551 148.676 281.411L142.45 277.815C142.203 277.671 141.818 277.663 141.59 277.796ZM133.721 282.341L128.338 285.451C128.11 285.582 128.123 285.806 128.368 285.946L134.594 289.543C134.839 289.685 135.224 289.692 135.454 289.559L140.839 286.449C141.067 286.317 141.054 286.094 140.807 285.952L134.581 282.356C134.334 282.217 133.949 282.21 133.721 282.341ZM125.853 286.887L120.47 289.997C120.242 290.13 120.255 290.352 120.5 290.493L126.725 294.089C126.972 294.231 127.355 294.239 127.585 294.106L132.968 290.996C133.196 290.865 133.183 290.642 132.938 290.5L126.712 286.904C126.466 286.764 126.081 286.754 125.853 286.887ZM166.077 292.421L171.46 289.311C171.688 289.178 171.675 288.955 171.43 288.815L165.204 285.219C164.957 285.077 164.574 285.069 164.346 285.202L158.961 288.312C158.733 288.445 158.746 288.665 158.993 288.809L165.219 292.406C165.464 292.544 165.847 292.552 166.077 292.421ZM235.184 223.728L229.801 226.838C229.571 226.971 229.586 227.192 229.83 227.334L236.056 230.93C236.301 231.072 236.686 231.08 236.916 230.947L242.299 227.837C242.527 227.704 242.514 227.484 242.269 227.341L236.043 223.745C235.797 223.603 235.412 223.596 235.184 223.728ZM225.659 229.23L220.276 232.34C220.048 232.473 220.061 232.694 220.306 232.836L226.532 236.432C226.776 236.574 227.161 236.582 227.391 236.449L232.776 233.339C233.004 233.206 232.991 232.984 232.746 232.842L226.52 229.245C226.272 229.105 225.887 229.097 225.659 229.23ZM243.052 219.182L237.669 222.292C237.441 222.425 237.454 222.646 237.699 222.788L243.925 226.384C244.17 226.526 244.555 226.534 244.783 226.401L250.168 223.291C250.396 223.158 250.383 222.935 250.138 222.793L243.914 219.197C243.665 219.059 243.28 219.049 243.052 219.182ZM202.323 261.206L207.706 258.096C207.934 257.963 207.921 257.743 207.675 257.6L201.451 254.004C201.204 253.862 200.821 253.855 200.591 253.987L195.208 257.097C194.98 257.23 194.993 257.451 195.238 257.593L201.464 261.189C201.71 261.33 202.095 261.337 202.323 261.206ZM251.779 214.654C251.534 214.512 251.149 214.505 250.919 214.638L245.536 217.748C245.308 217.88 245.321 218.103 245.566 218.243L251.792 221.839C252.037 221.982 252.422 221.989 252.65 221.856L258.033 218.746C258.261 218.613 258.248 218.393 258.003 218.251L251.779 214.654ZM173.945 287.874L179.328 284.764C179.556 284.632 179.543 284.411 179.297 284.269L173.071 280.672C172.824 280.53 172.441 280.523 172.211 280.654L166.828 283.764C166.6 283.897 166.613 284.119 166.858 284.259L173.084 287.856C173.332 287.998 173.716 288.007 173.945 287.874ZM270.438 232.131L275.821 229.021C276.049 228.888 276.036 228.666 275.791 228.523L269.565 224.927C269.318 224.785 268.935 224.777 268.705 224.91L263.322 228.02C263.094 228.151 263.107 228.376 263.352 228.518L269.578 232.114C269.825 232.256 270.21 232.264 270.438 232.131ZM253.676 231.54L259.059 228.43C259.287 228.299 259.274 228.076 259.027 227.934L252.801 224.338C252.556 224.196 252.171 224.188 251.943 224.321L246.561 227.431C246.333 227.564 246.346 227.787 246.59 227.927L252.816 231.523C253.063 231.665 253.448 231.673 253.676 231.54ZM260.672 219.792C260.427 219.65 260.042 219.642 259.812 219.775L254.427 222.885C254.199 223.016 254.212 223.238 254.459 223.38L260.685 226.977C260.93 227.119 261.315 227.126 261.543 226.995L266.928 223.885C267.156 223.753 267.143 223.532 266.898 223.39L260.672 219.792ZM262.33 218.834L277.449 227.568C277.694 227.71 278.079 227.717 278.307 227.585L283.689 224.474C283.919 224.342 283.904 224.119 283.66 223.977L268.541 215.243C268.294 215.101 267.911 215.094 267.681 215.227L262.298 218.337C262.07 218.471 262.083 218.694 262.33 218.834ZM244.077 228.866L238.694 231.976C238.466 232.107 238.479 232.331 238.723 232.471L244.949 236.068C245.196 236.21 245.579 236.217 245.809 236.084L251.192 232.974C251.42 232.842 251.407 232.621 251.162 232.479L244.936 228.882C244.69 228.74 244.305 228.733 244.077 228.866ZM184.855 263.076L179.472 266.186C179.244 266.317 179.257 266.54 179.502 266.682L185.728 270.278C185.975 270.42 186.358 270.428 186.586 270.297L191.971 267.187C192.199 267.054 192.186 266.833 191.939 266.691L185.713 263.095C185.468 262.951 185.085 262.943 184.855 263.076ZM261.711 236.66C261.956 236.803 262.341 236.81 262.571 236.679L267.956 233.569C268.184 233.436 268.171 233.214 267.924 233.073L261.698 229.477C261.453 229.335 261.068 229.328 260.84 229.46L255.457 232.57C255.229 232.701 255.242 232.924 255.487 233.066L261.711 236.66ZM192.724 258.532L187.341 261.642C187.113 261.775 187.126 261.995 187.373 262.137L193.599 265.734C193.844 265.876 194.229 265.883 194.457 265.751L199.839 262.641C200.068 262.51 200.054 262.285 199.81 262.145L193.584 258.549C193.337 258.406 192.952 258.399 192.724 258.532ZM133.744 310.584C133.99 310.726 134.374 310.733 134.603 310.6L139.988 307.49C140.216 307.358 140.203 307.137 139.957 306.995L133.731 303.399C133.486 303.256 133.101 303.249 132.873 303.382L127.49 306.492C127.262 306.625 127.275 306.845 127.52 306.987L133.744 310.584ZM121.907 299.441L116.522 302.551C116.294 302.682 116.307 302.905 116.554 303.047L122.78 306.643C123.027 306.785 123.41 306.793 123.64 306.66L129.022 303.55C129.25 303.417 129.237 303.197 128.993 303.054L122.767 299.458C122.52 299.316 122.135 299.308 121.907 299.441ZM142.47 306.056L147.853 302.946C148.081 302.813 148.068 302.592 147.823 302.45L141.598 298.854C141.353 298.712 140.968 298.704 140.738 298.835L135.355 301.945C135.127 302.078 135.14 302.301 135.385 302.441L141.611 306.037C141.857 306.181 142.242 306.189 142.47 306.056ZM150.339 301.512L155.722 298.401C155.95 298.269 155.937 298.046 155.692 297.906L149.466 294.31C149.221 294.167 148.836 294.16 148.607 294.293L143.224 297.403C142.996 297.536 143.009 297.758 143.255 297.898L149.481 301.495C149.726 301.635 150.111 301.642 150.339 301.512ZM158.208 296.965L163.591 293.855C163.819 293.722 163.806 293.502 163.561 293.358L157.335 289.761C157.09 289.619 156.705 289.612 156.477 289.745L151.094 292.855C150.866 292.987 150.879 293.21 151.126 293.35L157.352 296.947C157.595 297.091 157.978 297.098 158.208 296.965ZM129.776 294.895L124.393 298.005C124.165 298.138 124.178 298.358 124.423 298.501L130.649 302.097C130.893 302.239 131.278 302.247 131.508 302.114L136.891 299.004C137.119 298.873 137.106 298.648 136.861 298.508L130.635 294.912C130.389 294.772 130.004 294.762 129.776 294.895ZM137.644 290.349L132.262 293.459C132.034 293.591 132.047 293.812 132.291 293.954L138.517 297.551C138.762 297.693 139.147 297.7 139.375 297.567L144.76 294.457C144.988 294.325 144.975 294.104 144.73 293.962L138.504 290.365C138.258 290.225 137.873 290.218 137.644 290.349ZM169.118 272.167L163.733 275.277C163.505 275.41 163.518 275.631 163.765 275.773L169.991 279.369C170.237 279.511 170.62 279.519 170.85 279.386L176.233 276.276C176.461 276.143 176.448 275.92 176.203 275.778L169.977 272.182C169.731 272.044 169.348 272.036 169.118 272.167ZM161.249 276.713L155.866 279.823C155.638 279.956 155.651 280.179 155.896 280.319L162.12 283.915C162.367 284.057 162.752 284.065 162.98 283.932L168.363 280.822C168.591 280.689 168.578 280.467 168.333 280.325L162.107 276.728C161.862 276.588 161.479 276.581 161.249 276.713ZM176.986 267.621L171.604 270.731C171.376 270.864 171.389 271.086 171.633 271.226L177.859 274.823C178.106 274.965 178.489 274.972 178.719 274.839L184.102 271.729C184.33 271.597 184.317 271.376 184.07 271.234L177.844 267.638C177.599 267.497 177.216 267.49 176.986 267.621ZM145.513 285.804L140.13 288.914C139.902 289.047 139.915 289.27 140.16 289.41L146.386 293.006C146.631 293.148 147.016 293.156 147.246 293.023L152.629 289.913C152.857 289.78 152.844 289.559 152.599 289.417L146.373 285.821C146.126 285.681 145.741 285.671 145.513 285.804ZM153.38 281.258L147.997 284.368C147.769 284.501 147.782 284.723 148.029 284.863L154.255 288.46C154.5 288.602 154.885 288.609 155.113 288.478L160.496 285.368C160.726 285.236 160.711 285.015 160.466 284.873L154.24 281.277C153.995 281.134 153.61 281.127 153.38 281.258ZM147.637 313.348L153.019 310.238C153.247 310.107 153.234 309.884 152.989 309.742L146.764 306.146C146.519 306.004 146.134 305.996 145.904 306.129L140.521 309.239C140.293 309.372 140.306 309.594 140.551 309.735L146.775 313.331C147.023 313.471 147.408 313.479 147.637 313.348ZM101.463 308.684L95.2373 305.087C94.9924 304.945 94.6074 304.938 94.3775 305.07L88.9946 308.18C88.7666 308.311 88.7796 308.534 89.0245 308.676L95.2503 312.272C95.4971 312.415 95.8802 312.422 96.1101 312.289L101.493 309.179C101.721 309.046 101.708 308.826 101.463 308.684ZM113.253 312.145L107.027 308.549C106.782 308.407 106.397 308.399 106.168 308.53L97.8857 313.316C97.6577 313.447 97.6708 313.669 97.9175 313.812L104.143 317.408C104.39 317.55 104.773 317.557 105.001 317.427L113.283 312.643C113.513 312.51 113.5 312.287 113.253 312.145ZM91.9103 301.73L85.6845 298.134C85.4378 297.992 85.0546 297.984 84.8247 298.115L78.1989 301.944C77.9709 302.076 77.9839 302.299 78.2288 302.439L84.4546 306.035C84.7013 306.178 85.0845 306.185 85.3144 306.052L91.9402 302.224C92.1701 302.095 92.1571 301.871 91.9103 301.73ZM96.9904 298.796C97.2353 298.938 97.6203 298.946 97.8484 298.813L103.231 295.703C103.459 295.57 103.446 295.349 103.201 295.207L96.9755 291.611C96.7306 291.469 96.3456 291.461 96.1157 291.592L90.7328 294.702C90.5029 294.835 90.5179 295.058 90.7627 295.198L96.9904 298.796ZM124.219 316.087L117.993 312.491C117.746 312.349 117.363 312.342 117.133 312.474L106.781 318.455C106.553 318.588 106.566 318.809 106.81 318.951L113.036 322.547C113.281 322.689 113.666 322.697 113.896 322.566L124.249 316.585C124.477 316.45 124.464 316.23 124.219 316.087ZM129.385 323.377L123.159 319.781C122.914 319.639 122.529 319.631 122.301 319.764L115.675 323.592C115.447 323.725 115.461 323.948 115.705 324.088L121.931 327.684C122.176 327.826 122.561 327.834 122.791 327.701L129.417 323.873C129.643 323.742 129.63 323.519 129.385 323.377ZM155.494 264.999C155.739 265.141 156.124 265.148 156.352 265.017L161.735 261.907C161.963 261.775 161.95 261.554 161.705 261.412L155.479 257.816C155.234 257.673 154.849 257.666 154.619 257.799L149.236 260.909C149.008 261.041 149.021 261.262 149.266 261.404L155.494 264.999ZM139.757 274.09C140.003 274.232 140.386 274.239 140.616 274.106L146.001 270.996C146.229 270.865 146.216 270.643 145.969 270.501L139.743 266.904C139.499 266.762 139.114 266.755 138.886 266.888L133.503 269.998C133.275 270.13 133.288 270.353 133.533 270.495L139.757 274.09ZM104.859 294.25C105.106 294.392 105.489 294.399 105.719 294.268L111.102 291.158C111.33 291.026 111.317 290.805 111.072 290.663L104.846 287.066C104.601 286.924 104.216 286.917 103.988 287.05L98.6053 290.16C98.3773 290.293 98.3904 290.513 98.6352 290.655L104.859 294.25ZM147.625 269.543C147.872 269.685 148.255 269.693 148.485 269.562L153.87 266.452C154.098 266.319 154.085 266.098 153.838 265.956L147.612 262.36C147.366 262.218 146.982 262.21 146.752 262.343L141.37 265.453C141.142 265.586 141.155 265.807 141.399 265.949L147.625 269.543ZM131.888 278.636C132.133 278.778 132.518 278.785 132.746 278.653L138.129 275.543C138.357 275.412 138.344 275.189 138.099 275.047L131.873 271.451C131.628 271.309 131.243 271.301 131.013 271.434L125.63 274.544C125.402 274.677 125.415 274.899 125.66 275.04L131.888 278.636ZM133.708 323.963C133.462 323.821 133.078 323.813 132.848 323.944L124.567 328.728C124.339 328.859 124.352 329.081 124.597 329.223L130.822 332.82C131.069 332.962 131.452 332.969 131.682 332.837L139.964 328.053C140.192 327.92 140.179 327.699 139.932 327.557L133.708 323.963ZM120.597 285.159C120.842 285.301 121.227 285.309 121.456 285.176L126.839 282.066C127.067 281.933 127.054 281.712 126.81 281.57L120.584 277.974C120.339 277.832 119.954 277.824 119.724 277.957L114.341 281.067C114.113 281.198 114.126 281.421 114.371 281.563L120.597 285.159ZM112.728 289.705C112.975 289.847 113.358 289.855 113.588 289.722L118.971 286.612C119.199 286.481 119.186 286.257 118.941 286.116L112.715 282.52C112.468 282.378 112.085 282.371 111.855 282.503L106.47 285.613C106.242 285.746 106.255 285.967 106.502 286.109L112.728 289.705ZM279.484 239.75C279.237 239.608 278.854 239.6 278.624 239.731L265.373 247.388C265.145 247.52 265.158 247.743 265.403 247.885L271.628 251.481C271.873 251.623 272.258 251.631 272.488 251.498L285.74 243.842C285.968 243.711 285.955 243.488 285.71 243.346L279.484 239.75ZM262.091 249.798C261.844 249.656 261.461 249.649 261.231 249.779L255.848 252.89C255.62 253.022 255.633 253.243 255.878 253.385L262.104 256.981C262.348 257.124 262.734 257.131 262.963 256.998L268.346 253.888C268.574 253.757 268.561 253.535 268.315 253.393L262.091 249.798ZM155.505 308.801L160.888 305.691C161.116 305.559 161.103 305.336 160.856 305.196L154.631 301.599C154.386 301.457 154.001 301.45 153.773 301.583L148.39 304.693C148.16 304.824 148.175 305.046 148.42 305.188L154.646 308.785C154.892 308.927 155.277 308.934 155.505 308.801ZM246.353 258.889C246.106 258.747 245.723 258.739 245.493 258.872L240.11 261.982C239.882 262.115 239.895 262.336 240.142 262.478L246.368 266.074C246.615 266.216 246.998 266.224 247.228 266.091L252.611 262.981C252.839 262.85 252.826 262.627 252.581 262.485L246.353 258.889ZM287.353 235.204C287.106 235.061 286.723 235.054 286.493 235.187L281.11 238.297C280.882 238.428 280.895 238.65 281.142 238.792L287.368 242.389C287.614 242.531 287.998 242.538 288.226 242.407L293.609 239.297C293.837 239.164 293.824 238.944 293.579 238.802L287.353 235.204ZM301.446 234.255L286.327 225.522C286.08 225.38 285.697 225.372 285.469 225.503L280.086 228.613C279.858 228.746 279.871 228.967 280.116 229.109L295.235 237.842C295.48 237.984 295.865 237.992 296.093 237.861L301.475 234.751C301.705 234.62 301.692 234.398 301.446 234.255ZM216.949 275.876C216.704 275.733 216.319 275.726 216.091 275.859L209.465 279.687C209.235 279.82 209.25 280.042 209.495 280.184L215.721 283.781C215.968 283.923 216.351 283.93 216.581 283.797L223.207 279.969C223.436 279.837 223.421 279.614 223.177 279.474L216.949 275.876ZM236.828 264.391C236.582 264.249 236.198 264.241 235.968 264.374L227.685 269.16C227.457 269.293 227.47 269.513 227.715 269.655L233.941 273.252C234.185 273.394 234.57 273.401 234.8 273.269L243.082 268.483C243.31 268.35 243.297 268.129 243.052 267.987L236.828 264.391ZM198.727 286.401C198.481 286.259 198.098 286.251 197.868 286.384L153.556 311.983C153.328 312.113 153.341 312.336 153.586 312.478L159.812 316.074C160.056 316.217 160.441 316.224 160.669 316.091L204.981 290.493C205.209 290.36 205.196 290.137 204.951 289.995L198.727 286.401ZM151.932 313.436C151.685 313.293 151.302 313.286 151.074 313.419L144.448 317.247C144.22 317.38 144.233 317.602 144.48 317.744L150.704 321.341C150.95 321.483 151.333 321.49 151.563 321.358L158.191 317.529C158.419 317.397 158.406 317.176 158.159 317.034L151.932 313.436ZM207.839 281.138C207.594 280.996 207.209 280.989 206.979 281.121L200.353 284.95C200.125 285.082 200.139 285.305 200.383 285.445L206.609 289.041C206.854 289.183 207.239 289.191 207.469 289.06L214.095 285.232C214.323 285.099 214.31 284.878 214.063 284.736L207.839 281.138ZM142.82 318.698C142.575 318.556 142.19 318.549 141.96 318.681L135.334 322.51C135.106 322.642 135.119 322.863 135.366 323.005L141.592 326.601C141.839 326.744 142.222 326.751 142.452 326.618L149.078 322.79C149.306 322.657 149.292 322.437 149.048 322.294L142.82 318.698ZM226.061 270.611C225.814 270.469 225.431 270.461 225.201 270.594L218.575 274.422C218.347 274.555 218.36 274.776 218.607 274.918L224.833 278.514C225.077 278.656 225.462 278.664 225.691 278.531L232.316 274.703C232.544 274.57 232.531 274.348 232.285 274.207L226.061 270.611ZM254.222 254.343C253.975 254.201 253.592 254.193 253.362 254.326L247.979 257.436C247.751 257.567 247.764 257.789 248.011 257.931L254.237 261.528C254.482 261.67 254.867 261.677 255.097 261.545L260.479 258.435C260.707 258.302 260.694 258.081 260.45 257.939L254.222 254.343ZM271.462 241.815L276.845 238.704C277.075 238.572 277.062 238.349 276.815 238.207L270.589 234.611C270.344 234.469 269.959 234.461 269.729 234.592L264.347 237.702C264.119 237.835 264.132 238.057 264.376 238.2L270.602 241.796C270.849 241.94 271.234 241.947 271.462 241.815ZM236.282 241.588L241.665 238.478C241.893 238.347 241.88 238.125 241.636 237.983L235.41 234.386C235.165 234.244 234.78 234.237 234.55 234.368L229.167 237.478C228.939 237.61 228.952 237.831 229.197 237.973L235.421 241.57C235.669 241.712 236.053 241.719 236.282 241.588ZM218.453 272.438L234.191 263.347C234.419 263.215 234.406 262.994 234.161 262.852L227.935 259.256C227.69 259.113 227.305 259.106 227.075 259.239L211.338 268.33C211.11 268.46 211.123 268.683 211.368 268.825L217.594 272.421C217.84 272.562 218.224 272.569 218.453 272.438ZM262.735 246.342C262.98 246.484 263.365 246.492 263.593 246.359L268.976 243.249C269.204 243.116 269.191 242.895 268.946 242.753L262.72 239.157C262.476 239.015 262.091 239.007 261.863 239.14L256.478 242.25C256.25 242.381 256.263 242.604 256.508 242.746L262.735 246.342ZM254.7 241.224L260.085 238.113C260.313 237.981 260.3 237.76 260.053 237.618L253.827 234.022C253.581 233.879 253.198 233.872 252.968 234.005L247.585 237.115C247.357 237.248 247.37 237.47 247.615 237.61L253.841 241.207C254.087 241.347 254.472 241.354 254.7 241.224ZM210.585 276.983L215.968 273.873C216.196 273.742 216.183 273.519 215.938 273.377L209.712 269.781C209.467 269.639 209.082 269.631 208.852 269.762L203.469 272.872C203.241 273.005 203.254 273.226 203.499 273.368L209.725 276.964C209.972 277.108 210.357 277.115 210.585 276.983ZM245.342 256.39C245.587 256.533 245.972 256.54 246.202 256.409L251.585 253.299C251.813 253.166 251.8 252.946 251.555 252.804L245.329 249.207C245.082 249.065 244.699 249.058 244.469 249.19L239.086 252.3C238.858 252.433 238.871 252.654 239.116 252.796L245.342 256.39ZM171.243 299.711L176.626 296.601C176.854 296.468 176.841 296.247 176.596 296.105L170.37 292.509C170.125 292.366 169.74 292.359 169.51 292.49L164.127 295.6C163.899 295.733 163.912 295.953 164.157 296.096L170.383 299.692C170.63 299.836 171.013 299.843 171.243 299.711ZM179.112 295.164L184.496 292.054C184.724 291.921 184.711 291.701 184.465 291.559L178.239 287.962C177.994 287.82 177.609 287.813 177.381 287.945L171.998 291.056C171.77 291.186 171.783 291.411 172.028 291.551L178.254 295.147C178.498 295.29 178.882 295.297 179.112 295.164ZM163.374 304.257L168.757 301.147C168.985 301.016 168.972 300.793 168.727 300.651L162.501 297.055C162.254 296.913 161.871 296.905 161.641 297.036L156.258 300.146C156.03 300.279 156.044 300.5 156.288 300.642L162.514 304.238C162.761 304.38 163.144 304.388 163.374 304.257ZM194.847 286.073L200.23 282.963C200.458 282.831 200.445 282.608 200.2 282.466L193.974 278.87C193.73 278.728 193.345 278.72 193.115 278.853L187.732 281.963C187.504 282.094 187.517 282.316 187.762 282.458L193.987 286.055C194.234 286.199 194.619 286.206 194.847 286.073ZM186.978 290.62L192.361 287.51C192.589 287.379 192.576 287.156 192.331 287.014L186.106 283.418C185.861 283.276 185.476 283.268 185.246 283.401L179.863 286.511C179.635 286.644 179.648 286.866 179.893 287.007L186.119 290.603C186.365 290.743 186.75 290.753 186.978 290.62ZM202.716 281.529L208.101 278.419C208.329 278.286 208.316 278.066 208.071 277.923L201.845 274.327C201.598 274.185 201.215 274.177 200.985 274.31L195.6 277.42C195.372 277.553 195.385 277.776 195.632 277.916L201.858 281.512C202.103 281.652 202.488 281.662 202.716 281.529ZM238.714 214.284C238.961 214.426 239.344 214.434 239.574 214.301L244.957 211.191C245.187 211.058 245.172 210.837 244.927 210.695L243.269 209.738C243.022 209.596 242.639 209.588 242.409 209.721L237.026 212.831C236.798 212.962 236.811 213.184 237.058 213.327L238.714 214.284ZM200 239.288C200.245 239.43 200.63 239.438 200.858 239.307L206.241 236.197C206.469 236.064 206.456 235.843 206.211 235.701L199.985 232.105C199.739 231.963 199.355 231.955 199.126 232.086L193.743 235.196C193.515 235.329 193.528 235.551 193.773 235.692L200 239.288ZM215.738 230.197C215.983 230.339 216.368 230.347 216.596 230.214L221.98 227.104C222.208 226.971 222.195 226.75 221.951 226.608L215.725 223.012C215.478 222.87 215.095 222.862 214.865 222.995L209.482 226.105C209.254 226.236 209.267 226.461 209.514 226.601L215.738 230.197ZM190.391 244.839C190.638 244.981 191.021 244.988 191.251 244.855L196.636 241.745C196.864 241.614 196.851 241.392 196.606 241.25L190.38 237.653C190.133 237.511 189.75 237.504 189.52 237.637L184.137 240.747C183.909 240.879 183.923 241.102 184.167 241.244L190.391 244.839ZM207.869 234.743C208.114 234.886 208.499 234.893 208.729 234.76L214.112 231.65C214.34 231.519 214.327 231.297 214.08 231.155L207.854 227.558C207.609 227.416 207.224 227.409 206.996 227.54L201.613 230.65C201.385 230.783 201.398 231.003 201.643 231.145L207.869 234.743ZM174.654 253.931C174.899 254.073 175.284 254.081 175.514 253.948L180.896 250.838C181.125 250.705 181.111 250.485 180.867 250.341L174.641 246.744C174.396 246.602 174.011 246.595 173.781 246.727L168.398 249.837C168.17 249.97 168.183 250.191 168.43 250.333L174.654 253.931ZM182.523 249.385C182.769 249.527 183.152 249.534 183.382 249.402L188.765 246.292C188.993 246.159 188.98 245.938 188.733 245.796L182.51 242.2C182.263 242.058 181.88 242.05 181.65 242.183L176.267 245.293C176.039 245.426 176.052 245.646 176.297 245.79L182.523 249.385ZM222.977 223.375C223.223 223.517 223.607 223.524 223.836 223.392L229.219 220.282C229.447 220.151 229.434 219.928 229.189 219.786L227.532 218.829C227.287 218.686 226.902 218.679 226.674 218.812L221.291 221.922C221.063 222.055 221.076 222.275 221.321 222.417L222.977 223.375ZM246.583 209.74C246.828 209.882 247.213 209.889 247.443 209.756L252.826 206.646C253.054 206.514 253.041 206.293 252.794 206.151L251.136 205.193C250.889 205.051 250.506 205.044 250.276 205.176L244.893 208.286C244.665 208.419 244.678 208.642 244.923 208.782L246.583 209.74ZM259.661 217.293C259.907 217.435 260.291 217.443 260.521 217.31L265.903 214.2C266.132 214.067 266.118 213.845 265.874 213.704L259.648 210.108C259.403 209.966 259.018 209.958 258.788 210.091L253.405 213.201C253.177 213.334 253.19 213.555 253.435 213.697L259.661 217.293ZM279.331 237.27L284.714 234.16C284.942 234.029 284.929 233.807 284.684 233.664L278.458 230.068C278.213 229.926 277.828 229.918 277.598 230.051L272.215 233.161C271.987 233.294 272 233.517 272.245 233.657L278.471 237.253C278.718 237.393 279.103 237.401 279.331 237.27ZM230.847 218.83C231.094 218.972 231.477 218.98 231.705 218.849L237.088 215.739C237.316 215.608 237.303 215.386 237.058 215.243L235.4 214.286C235.154 214.144 234.77 214.136 234.541 214.267L229.158 217.377C228.93 217.51 228.943 217.731 229.188 217.873L230.847 218.83ZM166.785 258.476C167.032 258.618 167.415 258.625 167.645 258.494L173.028 255.384C173.256 255.252 173.243 255.031 172.998 254.889L166.772 251.292C166.527 251.15 166.142 251.143 165.914 251.274L160.529 254.384C160.301 254.515 160.314 254.737 160.561 254.879L166.785 258.476Z" fill="#7C2EE9"/>
<path d="M228.414 246.133L233.797 243.023C234.025 242.89 234.012 242.667 233.767 242.527L227.541 238.931C227.296 238.789 226.911 238.781 226.681 238.914L221.298 242.024C221.07 242.157 221.083 242.377 221.33 242.52L227.556 246.116C227.801 246.258 228.186 246.265 228.414 246.133ZM217.79 233.777L212.407 236.887C212.179 237.019 212.192 237.242 212.437 237.384L218.663 240.98C218.908 241.123 219.293 241.13 219.523 240.997L224.906 237.887C225.134 237.754 225.12 237.534 224.876 237.392L218.65 233.795C218.403 233.651 218.018 233.644 217.79 233.777ZM200.396 243.823L191.285 249.086C191.057 249.217 191.07 249.441 191.315 249.581L197.541 253.178C197.787 253.32 198.17 253.327 198.4 253.194L207.512 247.932C207.74 247.799 207.727 247.578 207.482 247.436L201.256 243.84C201.01 243.7 200.625 243.692 200.396 243.823ZM209.921 238.321L204.536 241.431C204.308 241.562 204.321 241.785 204.566 241.927L210.792 245.523C211.037 245.665 211.422 245.673 211.65 245.54L217.033 242.43C217.261 242.297 217.248 242.076 217.003 241.934L210.777 238.338C210.534 238.196 210.149 238.188 209.921 238.321ZM188.801 250.522L183.418 253.632C183.188 253.765 183.203 253.985 183.448 254.128L189.674 257.724C189.919 257.866 190.304 257.873 190.532 257.741L195.914 254.631C196.142 254.5 196.129 254.277 195.883 254.135L189.657 250.539C189.414 250.399 189.029 250.391 188.801 250.522ZM180.932 255.068L175.549 258.178C175.321 258.311 175.334 258.532 175.579 258.674L181.805 262.27C182.05 262.412 182.435 262.42 182.663 262.287L188.046 259.177C188.274 259.044 188.261 258.824 188.016 258.681L181.79 255.085C181.545 254.945 181.16 254.935 180.932 255.068ZM205.419 269.693L210.802 266.583C211.03 266.452 211.016 266.229 210.77 266.087L204.544 262.491C204.297 262.349 203.914 262.341 203.684 262.474L198.301 265.584C198.073 265.717 198.086 265.939 198.331 266.082L204.557 269.678C204.806 269.816 205.191 269.824 205.419 269.693ZM197.55 274.237L202.933 271.127C203.161 270.994 203.148 270.774 202.901 270.632L196.677 267.035C196.43 266.893 196.047 266.886 195.817 267.017L190.434 270.127C190.204 270.258 190.219 270.48 190.464 270.622L196.69 274.219C196.937 274.363 197.322 274.37 197.55 274.237ZM189.681 278.784L195.064 275.674C195.292 275.541 195.279 275.32 195.034 275.178L188.808 271.582C188.563 271.44 188.178 271.432 187.948 271.565L182.566 274.675C182.338 274.808 182.351 275.028 182.597 275.17L188.823 278.767C189.068 278.907 189.453 278.915 189.681 278.784ZM181.812 283.328L187.197 280.218C187.425 280.085 187.412 279.865 187.165 279.722L180.94 276.126C180.693 275.984 180.31 275.977 180.08 276.109L174.697 279.219C174.469 279.352 174.482 279.573 174.727 279.715L180.953 283.311C181.199 283.453 181.584 283.461 181.812 283.328ZM220.545 250.679L225.928 247.569C226.156 247.438 226.143 247.214 225.898 247.073L219.672 243.477C219.427 243.335 219.042 243.327 218.814 243.46L213.431 246.57C213.201 246.703 213.216 246.926 213.461 247.066L219.687 250.662C219.932 250.804 220.317 250.812 220.545 250.679ZM213.287 265.147L225.298 258.208C225.526 258.075 225.513 257.855 225.266 257.713L210.147 248.979C209.903 248.837 209.518 248.829 209.289 248.962L203.077 252.551C202.849 252.684 202.862 252.905 203.107 253.049L211.112 257.672C211.357 257.814 211.372 258.036 211.142 258.167L206.172 261.038C205.942 261.171 205.957 261.393 206.202 261.533L212.428 265.13C212.674 265.272 213.059 265.279 213.287 265.147ZM173.063 259.613L167.678 262.723C167.45 262.856 167.464 263.076 167.71 263.218L173.936 266.815C174.183 266.957 174.566 266.964 174.796 266.832L180.179 263.721C180.407 263.589 180.394 263.366 180.149 263.224L173.923 259.628C173.676 259.489 173.293 259.482 173.063 259.613ZM165.194 264.159L159.81 267.269C159.582 267.402 159.595 267.624 159.84 267.767L166.065 271.363C166.312 271.505 166.695 271.512 166.925 271.38L172.308 268.27C172.536 268.137 172.523 267.914 172.278 267.774L166.052 264.178C165.808 264.036 165.423 264.026 165.194 264.159ZM125.875 315.13C126.12 315.272 126.505 315.28 126.733 315.147L132.116 312.037C132.344 311.904 132.331 311.681 132.086 311.539L125.86 307.943C125.615 307.801 125.23 307.793 125 307.926L119.617 311.036C119.389 311.169 119.402 311.39 119.647 311.532L125.875 315.13ZM102.246 300.524L96.8634 303.634C96.6353 303.767 96.6484 303.99 96.8932 304.13L103.119 307.726C103.364 307.868 103.749 307.876 103.979 307.745L109.362 304.635C109.59 304.502 109.577 304.281 109.332 304.139L103.106 300.543C102.859 300.399 102.476 300.391 102.246 300.524ZM114.911 311.19C115.158 311.332 115.541 311.339 115.771 311.206L121.156 308.096C121.384 307.964 121.371 307.743 121.124 307.601L114.9 304.004C114.653 303.862 114.27 303.855 114.04 303.986L108.657 307.096C108.429 307.229 108.442 307.449 108.687 307.591L114.911 311.19ZM139.768 317.892L145.151 314.782C145.379 314.649 145.366 314.429 145.121 314.287L138.895 310.69C138.648 310.548 138.265 310.541 138.035 310.673L132.652 313.783C132.424 313.914 132.437 314.139 132.684 314.279L138.91 317.875C139.155 318.017 139.54 318.025 139.768 317.892ZM131.041 322.42C131.286 322.562 131.671 322.569 131.899 322.437L137.282 319.327C137.51 319.196 137.497 318.973 137.252 318.831L131.026 315.235C130.779 315.093 130.396 315.085 130.168 315.216L124.785 318.326C124.557 318.459 124.57 318.68 124.815 318.822L131.041 322.42ZM110.115 295.978L104.732 299.088C104.504 299.221 104.517 299.441 104.764 299.583L110.99 303.18C111.236 303.322 111.62 303.329 111.85 303.198L117.232 300.088C117.46 299.956 117.447 299.735 117.202 299.593L110.977 295.996C110.728 295.854 110.343 295.845 110.115 295.978ZM149.457 273.25L144.074 276.36C143.846 276.493 143.859 276.713 144.106 276.855L150.332 280.452C150.578 280.594 150.962 280.601 151.19 280.471L156.574 277.36C156.802 277.228 156.789 277.007 156.544 276.865L150.319 273.269C150.07 273.126 149.687 273.119 149.457 273.25ZM117.984 291.433L112.601 294.543C112.373 294.674 112.386 294.897 112.631 295.039L118.857 298.635C119.103 298.777 119.486 298.785 119.716 298.654L125.099 295.544C125.327 295.411 125.314 295.19 125.069 295.048L118.844 291.452C118.597 291.308 118.212 291.301 117.984 291.433ZM157.326 268.705L151.943 271.815C151.715 271.946 151.728 272.169 151.975 272.311L158.2 275.907C158.445 276.049 158.83 276.057 159.058 275.924L164.441 272.814C164.669 272.681 164.656 272.461 164.411 272.319L158.185 268.722C157.939 268.58 157.554 268.573 157.326 268.705ZM141.59 277.796L136.207 280.906C135.979 281.037 135.992 281.26 136.237 281.402L142.463 284.998C142.708 285.14 143.093 285.148 143.323 285.017L148.706 281.907C148.934 281.774 148.921 281.551 148.676 281.411L142.45 277.815C142.203 277.671 141.818 277.663 141.59 277.796ZM133.721 282.341L128.338 285.451C128.11 285.582 128.123 285.806 128.368 285.946L134.594 289.543C134.839 289.685 135.224 289.692 135.454 289.559L140.839 286.449C141.067 286.317 141.054 286.094 140.807 285.952L134.581 282.356C134.334 282.217 133.949 282.21 133.721 282.341ZM125.853 286.887L120.47 289.997C120.242 290.13 120.255 290.352 120.5 290.493L126.725 294.089C126.972 294.231 127.355 294.239 127.585 294.106L132.968 290.996C133.196 290.865 133.183 290.642 132.938 290.5L126.712 286.904C126.466 286.764 126.081 286.754 125.853 286.887ZM166.077 292.421L171.46 289.311C171.688 289.178 171.675 288.955 171.43 288.815L165.204 285.219C164.957 285.077 164.574 285.069 164.346 285.202L158.961 288.312C158.733 288.445 158.746 288.665 158.993 288.809L165.219 292.406C165.464 292.544 165.847 292.552 166.077 292.421ZM235.184 223.728L229.801 226.838C229.571 226.971 229.586 227.192 229.83 227.334L236.056 230.93C236.301 231.072 236.686 231.08 236.916 230.947L242.299 227.837C242.527 227.704 242.514 227.484 242.269 227.341L236.043 223.745C235.797 223.603 235.412 223.596 235.184 223.728ZM225.659 229.23L220.276 232.34C220.048 232.473 220.061 232.694 220.306 232.836L226.532 236.432C226.776 236.574 227.161 236.582 227.391 236.449L232.776 233.339C233.004 233.206 232.991 232.984 232.746 232.842L226.52 229.245C226.272 229.105 225.887 229.097 225.659 229.23ZM243.052 219.182L237.669 222.292C237.441 222.425 237.454 222.646 237.699 222.788L243.925 226.384C244.17 226.526 244.555 226.534 244.783 226.401L250.168 223.291C250.396 223.158 250.383 222.935 250.138 222.793L243.914 219.197C243.665 219.059 243.28 219.049 243.052 219.182ZM202.323 261.206L207.706 258.096C207.934 257.963 207.921 257.743 207.675 257.6L201.451 254.004C201.204 253.862 200.821 253.855 200.591 253.987L195.208 257.097C194.98 257.23 194.993 257.451 195.238 257.593L201.464 261.189C201.71 261.33 202.095 261.337 202.323 261.206ZM251.779 214.654C251.534 214.512 251.149 214.505 250.919 214.638L245.536 217.748C245.308 217.88 245.321 218.103 245.566 218.243L251.792 221.839C252.037 221.982 252.422 221.989 252.65 221.856L258.033 218.746C258.261 218.613 258.248 218.393 258.003 218.251L251.779 214.654ZM173.945 287.874L179.328 284.764C179.556 284.632 179.543 284.411 179.297 284.269L173.071 280.672C172.824 280.53 172.441 280.523 172.211 280.654L166.828 283.764C166.6 283.897 166.613 284.119 166.858 284.259L173.084 287.856C173.332 287.998 173.716 288.007 173.945 287.874ZM270.438 232.131L275.821 229.021C276.049 228.888 276.036 228.666 275.791 228.523L269.565 224.927C269.318 224.785 268.935 224.777 268.705 224.91L263.322 228.02C263.094 228.151 263.107 228.376 263.352 228.518L269.578 232.114C269.825 232.256 270.21 232.264 270.438 232.131ZM253.676 231.54L259.059 228.43C259.287 228.299 259.274 228.076 259.027 227.934L252.801 224.338C252.556 224.196 252.171 224.188 251.943 224.321L246.561 227.431C246.333 227.564 246.346 227.787 246.59 227.927L252.816 231.523C253.063 231.665 253.448 231.673 253.676 231.54ZM260.672 219.792C260.427 219.65 260.042 219.642 259.812 219.775L254.427 222.885C254.199 223.016 254.212 223.238 254.459 223.38L260.685 226.977C260.93 227.119 261.315 227.126 261.543 226.995L266.928 223.885C267.156 223.753 267.143 223.532 266.898 223.39L260.672 219.792ZM262.33 218.834L277.449 227.568C277.694 227.71 278.079 227.717 278.307 227.585L283.689 224.474C283.919 224.342 283.904 224.119 283.66 223.977L268.541 215.243C268.294 215.101 267.911 215.094 267.681 215.227L262.298 218.337C262.07 218.471 262.083 218.694 262.33 218.834ZM244.077 228.866L238.694 231.976C238.466 232.107 238.479 232.331 238.723 232.471L244.949 236.068C245.196 236.21 245.579 236.217 245.809 236.084L251.192 232.974C251.42 232.842 251.407 232.621 251.162 232.479L244.936 228.882C244.69 228.74 244.305 228.733 244.077 228.866ZM184.855 263.076L179.472 266.186C179.244 266.317 179.257 266.54 179.502 266.682L185.728 270.278C185.975 270.42 186.358 270.428 186.586 270.297L191.971 267.187C192.199 267.054 192.186 266.833 191.939 266.691L185.713 263.095C185.468 262.951 185.085 262.943 184.855 263.076ZM261.711 236.66C261.956 236.803 262.341 236.81 262.571 236.679L267.956 233.569C268.184 233.436 268.171 233.214 267.924 233.073L261.698 229.477C261.453 229.335 261.068 229.328 260.84 229.46L255.457 232.57C255.229 232.701 255.242 232.924 255.487 233.066L261.711 236.66ZM192.724 258.532L187.341 261.642C187.113 261.775 187.126 261.995 187.373 262.137L193.599 265.734C193.844 265.876 194.229 265.883 194.457 265.751L199.839 262.641C200.068 262.51 200.054 262.285 199.81 262.145L193.584 258.549C193.337 258.406 192.952 258.399 192.724 258.532ZM133.744 310.584C133.99 310.726 134.374 310.733 134.603 310.6L139.988 307.49C140.216 307.358 140.203 307.137 139.957 306.995L133.731 303.399C133.486 303.256 133.101 303.249 132.873 303.382L127.49 306.492C127.262 306.625 127.275 306.845 127.52 306.987L133.744 310.584ZM121.907 299.441L116.522 302.551C116.294 302.682 116.307 302.905 116.554 303.047L122.78 306.643C123.027 306.785 123.41 306.793 123.64 306.66L129.022 303.55C129.25 303.417 129.237 303.197 128.993 303.054L122.767 299.458C122.52 299.316 122.135 299.308 121.907 299.441ZM142.47 306.056L147.853 302.946C148.081 302.813 148.068 302.592 147.823 302.45L141.598 298.854C141.353 298.712 140.968 298.704 140.738 298.835L135.355 301.945C135.127 302.078 135.14 302.301 135.385 302.441L141.611 306.037C141.857 306.181 142.242 306.189 142.47 306.056ZM150.339 301.512L155.722 298.401C155.95 298.269 155.937 298.046 155.692 297.906L149.466 294.31C149.221 294.167 148.836 294.16 148.607 294.293L143.224 297.403C142.996 297.536 143.009 297.758 143.255 297.898L149.481 301.495C149.726 301.635 150.111 301.642 150.339 301.512ZM158.208 296.965L163.591 293.855C163.819 293.722 163.806 293.502 163.561 293.358L157.335 289.761C157.09 289.619 156.705 289.612 156.477 289.745L151.094 292.855C150.866 292.987 150.879 293.21 151.126 293.35L157.352 296.947C157.595 297.091 157.978 297.098 158.208 296.965ZM129.776 294.895L124.393 298.005C124.165 298.138 124.178 298.358 124.423 298.501L130.649 302.097C130.893 302.239 131.278 302.247 131.508 302.114L136.891 299.004C137.119 298.873 137.106 298.648 136.861 298.508L130.635 294.912C130.389 294.772 130.004 294.762 129.776 294.895ZM137.644 290.349L132.262 293.459C132.034 293.591 132.047 293.812 132.291 293.954L138.517 297.551C138.762 297.693 139.147 297.7 139.375 297.567L144.76 294.457C144.988 294.325 144.975 294.104 144.73 293.962L138.504 290.365C138.258 290.225 137.873 290.218 137.644 290.349ZM169.118 272.167L163.733 275.277C163.505 275.41 163.518 275.631 163.765 275.773L169.991 279.369C170.237 279.511 170.62 279.519 170.85 279.386L176.233 276.276C176.461 276.143 176.448 275.92 176.203 275.778L169.977 272.182C169.731 272.044 169.348 272.036 169.118 272.167ZM161.249 276.713L155.866 279.823C155.638 279.956 155.651 280.179 155.896 280.319L162.12 283.915C162.367 284.057 162.752 284.065 162.98 283.932L168.363 280.822C168.591 280.689 168.578 280.467 168.333 280.325L162.107 276.728C161.862 276.588 161.479 276.581 161.249 276.713ZM176.986 267.621L171.604 270.731C171.376 270.864 171.389 271.086 171.633 271.226L177.859 274.823C178.106 274.965 178.489 274.972 178.719 274.839L184.102 271.729C184.33 271.597 184.317 271.376 184.07 271.234L177.844 267.638C177.599 267.497 177.216 267.49 176.986 267.621ZM145.513 285.804L140.13 288.914C139.902 289.047 139.915 289.27 140.16 289.41L146.386 293.006C146.631 293.148 147.016 293.156 147.246 293.023L152.629 289.913C152.857 289.78 152.844 289.559 152.599 289.417L146.373 285.821C146.126 285.681 145.741 285.671 145.513 285.804ZM153.38 281.258L147.997 284.368C147.769 284.501 147.782 284.723 148.029 284.863L154.255 288.46C154.5 288.602 154.885 288.609 155.113 288.478L160.496 285.368C160.726 285.236 160.711 285.015 160.466 284.873L154.24 281.277C153.995 281.134 153.61 281.127 153.38 281.258ZM147.637 313.348L153.019 310.238C153.247 310.107 153.234 309.884 152.989 309.742L146.764 306.146C146.519 306.004 146.134 305.996 145.904 306.129L140.521 309.239C140.293 309.372 140.306 309.594 140.551 309.735L146.775 313.331C147.023 313.471 147.408 313.479 147.637 313.348ZM101.463 308.684L95.2373 305.087C94.9924 304.945 94.6074 304.938 94.3775 305.07L88.9946 308.18C88.7666 308.311 88.7796 308.534 89.0245 308.676L95.2503 312.272C95.4971 312.415 95.8802 312.422 96.1101 312.289L101.493 309.179C101.721 309.046 101.708 308.826 101.463 308.684ZM113.253 312.145L107.027 308.549C106.782 308.407 106.397 308.399 106.168 308.53L97.8857 313.316C97.6577 313.447 97.6708 313.669 97.9175 313.812L104.143 317.408C104.39 317.55 104.773 317.557 105.001 317.427L113.283 312.643C113.513 312.51 113.5 312.287 113.253 312.145ZM91.9103 301.73L85.6845 298.134C85.4378 297.992 85.0546 297.984 84.8247 298.115L78.1989 301.944C77.9709 302.076 77.9839 302.299 78.2288 302.439L84.4546 306.035C84.7013 306.178 85.0845 306.185 85.3144 306.052L91.9402 302.224C92.1701 302.095 92.1571 301.871 91.9103 301.73ZM96.9904 298.796C97.2353 298.938 97.6203 298.946 97.8484 298.813L103.231 295.703C103.459 295.57 103.446 295.349 103.201 295.207L96.9755 291.611C96.7306 291.469 96.3456 291.461 96.1157 291.592L90.7328 294.702C90.5029 294.835 90.5179 295.058 90.7627 295.198L96.9904 298.796ZM124.219 316.087L117.993 312.491C117.746 312.349 117.363 312.342 117.133 312.474L106.781 318.455C106.553 318.588 106.566 318.809 106.81 318.951L113.036 322.547C113.281 322.689 113.666 322.697 113.896 322.566L124.249 316.585C124.477 316.45 124.464 316.23 124.219 316.087ZM129.385 323.377L123.159 319.781C122.914 319.639 122.529 319.631 122.301 319.764L115.675 323.592C115.447 323.725 115.461 323.948 115.705 324.088L121.931 327.684C122.176 327.826 122.561 327.834 122.791 327.701L129.417 323.873C129.643 323.742 129.63 323.519 129.385 323.377ZM155.494 264.999C155.739 265.141 156.124 265.148 156.352 265.017L161.735 261.907C161.963 261.775 161.95 261.554 161.705 261.412L155.479 257.816C155.234 257.673 154.849 257.666 154.619 257.799L149.236 260.909C149.008 261.041 149.021 261.262 149.266 261.404L155.494 264.999ZM139.757 274.09C140.003 274.232 140.386 274.239 140.616 274.106L146.001 270.996C146.229 270.865 146.216 270.643 145.969 270.501L139.743 266.904C139.499 266.762 139.114 266.755 138.886 266.888L133.503 269.998C133.275 270.13 133.288 270.353 133.533 270.495L139.757 274.09ZM104.859 294.25C105.106 294.392 105.489 294.399 105.719 294.268L111.102 291.158C111.33 291.026 111.317 290.805 111.072 290.663L104.846 287.066C104.601 286.924 104.216 286.917 103.988 287.05L98.6053 290.16C98.3773 290.293 98.3904 290.513 98.6352 290.655L104.859 294.25ZM147.625 269.543C147.872 269.685 148.255 269.693 148.485 269.562L153.87 266.452C154.098 266.319 154.085 266.098 153.838 265.956L147.612 262.36C147.366 262.218 146.982 262.21 146.752 262.343L141.37 265.453C141.142 265.586 141.155 265.807 141.399 265.949L147.625 269.543ZM131.888 278.636C132.133 278.778 132.518 278.785 132.746 278.653L138.129 275.543C138.357 275.412 138.344 275.189 138.099 275.047L131.873 271.451C131.628 271.309 131.243 271.301 131.013 271.434L125.63 274.544C125.402 274.677 125.415 274.899 125.66 275.04L131.888 278.636ZM133.708 323.963C133.462 323.821 133.078 323.813 132.848 323.944L124.567 328.728C124.339 328.859 124.352 329.081 124.597 329.223L130.822 332.82C131.069 332.962 131.452 332.969 131.682 332.837L139.964 328.053C140.192 327.92 140.179 327.699 139.932 327.557L133.708 323.963ZM120.597 285.159C120.842 285.301 121.227 285.309 121.456 285.176L126.839 282.066C127.067 281.933 127.054 281.712 126.81 281.57L120.584 277.974C120.339 277.832 119.954 277.824 119.724 277.957L114.341 281.067C114.113 281.198 114.126 281.421 114.371 281.563L120.597 285.159ZM112.728 289.705C112.975 289.847 113.358 289.855 113.588 289.722L118.971 286.612C119.199 286.481 119.186 286.257 118.941 286.116L112.715 282.52C112.468 282.378 112.085 282.371 111.855 282.503L106.47 285.613C106.242 285.746 106.255 285.967 106.502 286.109L112.728 289.705ZM279.484 239.75C279.237 239.608 278.854 239.6 278.624 239.731L265.373 247.388C265.145 247.52 265.158 247.743 265.403 247.885L271.628 251.481C271.873 251.623 272.258 251.631 272.488 251.498L285.74 243.842C285.968 243.711 285.955 243.488 285.71 243.346L279.484 239.75ZM262.091 249.798C261.844 249.656 261.461 249.649 261.231 249.779L255.848 252.89C255.62 253.022 255.633 253.243 255.878 253.385L262.104 256.981C262.348 257.124 262.734 257.131 262.963 256.998L268.346 253.888C268.574 253.757 268.561 253.535 268.315 253.393L262.091 249.798ZM155.505 308.801L160.888 305.691C161.116 305.559 161.103 305.336 160.856 305.196L154.631 301.599C154.386 301.457 154.001 301.45 153.773 301.583L148.39 304.693C148.16 304.824 148.175 305.046 148.42 305.188L154.646 308.785C154.892 308.927 155.277 308.934 155.505 308.801ZM246.353 258.889C246.106 258.747 245.723 258.739 245.493 258.872L240.11 261.982C239.882 262.115 239.895 262.336 240.142 262.478L246.368 266.074C246.615 266.216 246.998 266.224 247.228 266.091L252.611 262.981C252.839 262.85 252.826 262.627 252.581 262.485L246.353 258.889ZM287.353 235.204C287.106 235.061 286.723 235.054 286.493 235.187L281.11 238.297C280.882 238.428 280.895 238.65 281.142 238.792L287.368 242.389C287.614 242.531 287.998 242.538 288.226 242.407L293.609 239.297C293.837 239.164 293.824 238.944 293.579 238.802L287.353 235.204ZM301.446 234.255L286.327 225.522C286.08 225.38 285.697 225.372 285.469 225.503L280.086 228.613C279.858 228.746 279.871 228.967 280.116 229.109L295.235 237.842C295.48 237.984 295.865 237.992 296.093 237.861L301.475 234.751C301.705 234.62 301.692 234.398 301.446 234.255ZM216.949 275.876C216.704 275.733 216.319 275.726 216.091 275.859L209.465 279.687C209.235 279.82 209.25 280.042 209.495 280.184L215.721 283.781C215.968 283.923 216.351 283.93 216.581 283.797L223.207 279.969C223.436 279.837 223.421 279.614 223.177 279.474L216.949 275.876ZM236.828 264.391C236.582 264.249 236.198 264.241 235.968 264.374L227.685 269.16C227.457 269.293 227.47 269.513 227.715 269.655L233.941 273.252C234.185 273.394 234.57 273.401 234.8 273.269L243.082 268.483C243.31 268.35 243.297 268.129 243.052 267.987L236.828 264.391ZM198.727 286.401C198.481 286.259 198.098 286.251 197.868 286.384L153.556 311.983C153.328 312.113 153.341 312.336 153.586 312.478L159.812 316.074C160.056 316.217 160.441 316.224 160.669 316.091L204.981 290.493C205.209 290.36 205.196 290.137 204.951 289.995L198.727 286.401ZM151.932 313.436C151.685 313.293 151.302 313.286 151.074 313.419L144.448 317.247C144.22 317.38 144.233 317.602 144.48 317.744L150.704 321.341C150.95 321.483 151.333 321.49 151.563 321.358L158.191 317.529C158.419 317.397 158.406 317.176 158.159 317.034L151.932 313.436ZM207.839 281.138C207.594 280.996 207.209 280.989 206.979 281.121L200.353 284.95C200.125 285.082 200.139 285.305 200.383 285.445L206.609 289.041C206.854 289.183 207.239 289.191 207.469 289.06L214.095 285.232C214.323 285.099 214.31 284.878 214.063 284.736L207.839 281.138ZM142.82 318.698C142.575 318.556 142.19 318.549 141.96 318.681L135.334 322.51C135.106 322.642 135.119 322.863 135.366 323.005L141.592 326.601C141.839 326.744 142.222 326.751 142.452 326.618L149.078 322.79C149.306 322.657 149.292 322.437 149.048 322.294L142.82 318.698ZM226.061 270.611C225.814 270.469 225.431 270.461 225.201 270.594L218.575 274.422C218.347 274.555 218.36 274.776 218.607 274.918L224.833 278.514C225.077 278.656 225.462 278.664 225.691 278.531L232.316 274.703C232.544 274.57 232.531 274.348 232.285 274.207L226.061 270.611ZM254.222 254.343C253.975 254.201 253.592 254.193 253.362 254.326L247.979 257.436C247.751 257.567 247.764 257.789 248.011 257.931L254.237 261.528C254.482 261.67 254.867 261.677 255.097 261.545L260.479 258.435C260.707 258.302 260.694 258.081 260.45 257.939L254.222 254.343ZM271.462 241.815L276.845 238.704C277.075 238.572 277.062 238.349 276.815 238.207L270.589 234.611C270.344 234.469 269.959 234.461 269.729 234.592L264.347 237.702C264.119 237.835 264.132 238.057 264.376 238.2L270.602 241.796C270.849 241.94 271.234 241.947 271.462 241.815ZM236.282 241.588L241.665 238.478C241.893 238.347 241.88 238.125 241.636 237.983L235.41 234.386C235.165 234.244 234.78 234.237 234.55 234.368L229.167 237.478C228.939 237.61 228.952 237.831 229.197 237.973L235.421 241.57C235.669 241.712 236.053 241.719 236.282 241.588ZM218.453 272.438L234.191 263.347C234.419 263.215 234.406 262.994 234.161 262.852L227.935 259.256C227.69 259.113 227.305 259.106 227.075 259.239L211.338 268.33C211.11 268.46 211.123 268.683 211.368 268.825L217.594 272.421C217.84 272.562 218.224 272.569 218.453 272.438ZM262.735 246.342C262.98 246.484 263.365 246.492 263.593 246.359L268.976 243.249C269.204 243.116 269.191 242.895 268.946 242.753L262.72 239.157C262.476 239.015 262.091 239.007 261.863 239.14L256.478 242.25C256.25 242.381 256.263 242.604 256.508 242.746L262.735 246.342ZM254.7 241.224L260.085 238.113C260.313 237.981 260.3 237.76 260.053 237.618L253.827 234.022C253.581 233.879 253.198 233.872 252.968 234.005L247.585 237.115C247.357 237.248 247.37 237.47 247.615 237.61L253.841 241.207C254.087 241.347 254.472 241.354 254.7 241.224ZM210.585 276.983L215.968 273.873C216.196 273.742 216.183 273.519 215.938 273.377L209.712 269.781C209.467 269.639 209.082 269.631 208.852 269.762L203.469 272.872C203.241 273.005 203.254 273.226 203.499 273.368L209.725 276.964C209.972 277.108 210.357 277.115 210.585 276.983ZM245.342 256.39C245.587 256.533 245.972 256.54 246.202 256.409L251.585 253.299C251.813 253.166 251.8 252.946 251.555 252.804L245.329 249.207C245.082 249.065 244.699 249.058 244.469 249.19L239.086 252.3C238.858 252.433 238.871 252.654 239.116 252.796L245.342 256.39ZM171.243 299.711L176.626 296.601C176.854 296.468 176.841 296.247 176.596 296.105L170.37 292.509C170.125 292.366 169.74 292.359 169.51 292.49L164.127 295.6C163.899 295.733 163.912 295.953 164.157 296.096L170.383 299.692C170.63 299.836 171.013 299.843 171.243 299.711ZM179.112 295.164L184.496 292.054C184.724 291.921 184.711 291.701 184.465 291.559L178.239 287.962C177.994 287.82 177.609 287.813 177.381 287.945L171.998 291.056C171.77 291.186 171.783 291.411 172.028 291.551L178.254 295.147C178.498 295.29 178.882 295.297 179.112 295.164ZM163.374 304.257L168.757 301.147C168.985 301.016 168.972 300.793 168.727 300.651L162.501 297.055C162.254 296.913 161.871 296.905 161.641 297.036L156.258 300.146C156.03 300.279 156.044 300.5 156.288 300.642L162.514 304.238C162.761 304.38 163.144 304.388 163.374 304.257ZM194.847 286.073L200.23 282.963C200.458 282.831 200.445 282.608 200.2 282.466L193.974 278.87C193.73 278.728 193.345 278.72 193.115 278.853L187.732 281.963C187.504 282.094 187.517 282.316 187.762 282.458L193.987 286.055C194.234 286.199 194.619 286.206 194.847 286.073ZM186.978 290.62L192.361 287.51C192.589 287.379 192.576 287.156 192.331 287.014L186.106 283.418C185.861 283.276 185.476 283.268 185.246 283.401L179.863 286.511C179.635 286.644 179.648 286.866 179.893 287.007L186.119 290.603C186.365 290.743 186.75 290.753 186.978 290.62ZM202.716 281.529L208.101 278.419C208.329 278.286 208.316 278.066 208.071 277.923L201.845 274.327C201.598 274.185 201.215 274.177 200.985 274.31L195.6 277.42C195.372 277.553 195.385 277.776 195.632 277.916L201.858 281.512C202.103 281.652 202.488 281.662 202.716 281.529ZM238.714 214.284C238.961 214.426 239.344 214.434 239.574 214.301L244.957 211.191C245.187 211.058 245.172 210.837 244.927 210.695L243.269 209.738C243.022 209.596 242.639 209.588 242.409 209.721L237.026 212.831C236.798 212.962 236.811 213.184 237.058 213.327L238.714 214.284ZM200 239.288C200.245 239.43 200.63 239.438 200.858 239.307L206.241 236.197C206.469 236.064 206.456 235.843 206.211 235.701L199.985 232.105C199.739 231.963 199.355 231.955 199.126 232.086L193.743 235.196C193.515 235.329 193.528 235.551 193.773 235.692L200 239.288ZM215.738 230.197C215.983 230.339 216.368 230.347 216.596 230.214L221.98 227.104C222.208 226.971 222.195 226.75 221.951 226.608L215.725 223.012C215.478 222.87 215.095 222.862 214.865 222.995L209.482 226.105C209.254 226.236 209.267 226.461 209.514 226.601L215.738 230.197ZM190.391 244.839C190.638 244.981 191.021 244.988 191.251 244.855L196.636 241.745C196.864 241.614 196.851 241.392 196.606 241.25L190.38 237.653C190.133 237.511 189.75 237.504 189.52 237.637L184.137 240.747C183.909 240.879 183.923 241.102 184.167 241.244L190.391 244.839ZM207.869 234.743C208.114 234.886 208.499 234.893 208.729 234.76L214.112 231.65C214.34 231.519 214.327 231.297 214.08 231.155L207.854 227.558C207.609 227.416 207.224 227.409 206.996 227.54L201.613 230.65C201.385 230.783 201.398 231.003 201.643 231.145L207.869 234.743ZM174.654 253.931C174.899 254.073 175.284 254.081 175.514 253.948L180.896 250.838C181.125 250.705 181.111 250.485 180.867 250.341L174.641 246.744C174.396 246.602 174.011 246.595 173.781 246.727L168.398 249.837C168.17 249.97 168.183 250.191 168.43 250.333L174.654 253.931ZM182.523 249.385C182.769 249.527 183.152 249.534 183.382 249.402L188.765 246.292C188.993 246.159 188.98 245.938 188.733 245.796L182.51 242.2C182.263 242.058 181.88 242.05 181.65 242.183L176.267 245.293C176.039 245.426 176.052 245.646 176.297 245.79L182.523 249.385ZM222.977 223.375C223.223 223.517 223.607 223.524 223.836 223.392L229.219 220.282C229.447 220.151 229.434 219.928 229.189 219.786L227.532 218.829C227.287 218.686 226.902 218.679 226.674 218.812L221.291 221.922C221.063 222.055 221.076 222.275 221.321 222.417L222.977 223.375ZM246.583 209.74C246.828 209.882 247.213 209.889 247.443 209.756L252.826 206.646C253.054 206.514 253.041 206.293 252.794 206.151L251.136 205.193C250.889 205.051 250.506 205.044 250.276 205.176L244.893 208.286C244.665 208.419 244.678 208.642 244.923 208.782L246.583 209.74ZM259.661 217.293C259.907 217.435 260.291 217.443 260.521 217.31L265.903 214.2C266.132 214.067 266.118 213.845 265.874 213.704L259.648 210.108C259.403 209.966 259.018 209.958 258.788 210.091L253.405 213.201C253.177 213.334 253.19 213.555 253.435 213.697L259.661 217.293ZM279.331 237.27L284.714 234.16C284.942 234.029 284.929 233.807 284.684 233.664L278.458 230.068C278.213 229.926 277.828 229.918 277.598 230.051L272.215 233.161C271.987 233.294 272 233.517 272.245 233.657L278.471 237.253C278.718 237.393 279.103 237.401 279.331 237.27ZM230.847 218.83C231.094 218.972 231.477 218.98 231.705 218.849L237.088 215.739C237.316 215.608 237.303 215.386 237.058 215.243L235.4 214.286C235.154 214.144 234.77 214.136 234.541 214.267L229.158 217.377C228.93 217.51 228.943 217.731 229.188 217.873L230.847 218.83ZM166.785 258.476C167.032 258.618 167.415 258.625 167.645 258.494L173.028 255.384C173.256 255.252 173.243 255.031 172.998 254.889L166.772 251.292C166.527 251.15 166.142 251.143 165.914 251.274L160.529 254.384C160.301 254.515 160.314 254.737 160.561 254.879L166.785 258.476Z" fill="#455A64"/>
<path d="M201.683 305.733L254.811 275.042C256.413 274.116 259.009 274.116 260.609 275.042L291.073 292.64C292.675 293.566 292.675 295.064 291.073 295.99L237.945 326.68C236.343 327.606 233.747 327.606 232.147 326.68L201.683 309.082C200.081 308.159 200.081 306.659 201.683 305.733Z" fill="#7C2EE9"/>
<path d="M201.683 305.733L254.811 275.042C256.413 274.116 259.009 274.116 260.609 275.042L291.073 292.64C292.675 293.566 292.675 295.064 291.073 295.99L237.945 326.68C236.343 327.606 233.747 327.606 232.147 326.68L201.683 309.082C200.081 308.159 200.081 306.659 201.683 305.733Z" fill="#263238"/>
<path d="M26.5321 286.451C26.9788 286.708 27.4798 286.921 28.0162 287.087C27.4798 286.93 26.9788 286.719 26.5321 286.463C26.3751 286.373 26.22 286.272 26.0742 286.162C26.22 286.263 26.3751 286.362 26.5321 286.451Z" fill="#7C2EE9"/>
<path d="M34.9893 286.91C35.0117 286.876 35.0341 286.865 35.0677 286.842C35.0453 286.865 35.0229 286.876 35.0117 286.898C34.9986 286.91 34.9986 286.91 34.9893 286.91Z" fill="#7C2EE9"/>
<path d="M42.6807 251.008C42.6807 253.29 44.2806 254.214 46.2562 253.073L210.128 158.406C212.102 157.265 213.704 154.492 213.704 152.21L213.702 41.8301L42.6825 140.626L42.6807 251.008Z" fill="#7C2EE9"/>
<g opacity="0.75">
<path d="M42.6807 251.008C42.6807 253.29 44.2806 254.214 46.2562 253.073L210.128 158.406C212.102 157.265 213.704 154.492 213.704 152.21L213.702 41.8301L42.6825 140.626L42.6807 251.008Z" fill="white"/>
</g>
<path d="M42.6807 133.136C42.6807 130.855 44.2806 128.081 46.2562 126.941L210.126 32.2756C212.1 31.1348 213.7 32.0605 213.7 34.3402V41.8339L42.6807 140.63V133.136Z" fill="#7C2EE9"/>
<path d="M193.583 45.6978C192.658 46.2327 191.906 47.5343 191.906 48.604C191.906 49.6737 192.658 50.1076 193.583 49.5727C194.508 49.0379 195.259 47.7362 195.259 46.6665C195.259 45.5968 194.508 45.1629 193.583 45.6978Z" fill="#37474F"/>
<path d="M199.453 42.3164C198.528 42.8513 197.776 44.1529 197.776 45.2226C197.776 46.2924 198.528 46.7262 199.453 46.1914C200.378 45.6565 201.129 44.3549 201.129 43.2852C201.129 42.2154 200.378 41.7816 199.453 42.3164Z" fill="#37474F"/>
<path d="M205.318 38.9351C204.393 39.47 203.642 40.7716 203.642 41.8413C203.642 42.911 204.393 43.3449 205.318 42.8101C206.243 42.2752 206.995 40.9736 206.995 39.9038C206.995 38.8341 206.243 38.4002 205.318 38.9351Z" fill="#37474F"/>
<path d="M97.9944 152.891C98.342 152.687 98.6092 152.68 98.7943 152.854C98.9793 153.035 99.1064 153.247 99.1793 153.488L101.747 164.157L104.323 150.52C104.39 150.2 104.516 149.837 104.704 149.445C104.889 149.052 105.153 148.758 105.504 148.554L109.811 146.065C110.044 145.933 110.24 145.946 110.403 146.099C110.566 146.254 110.648 146.51 110.648 146.866C110.648 147.01 110.637 147.159 110.611 147.318L105.087 175.292C105.02 175.651 104.895 176.027 104.721 176.412C104.547 176.797 104.287 177.091 103.94 177.295L99.9812 179.58C99.6298 179.784 99.3737 179.784 99.2129 179.595C99.0541 179.403 98.927 179.173 98.8317 178.905L96.3664 169.092L93.8973 181.753C93.8076 182.131 93.6786 182.507 93.516 182.885C93.3572 183.263 93.1011 183.556 92.7498 183.756L88.7911 186.047C88.4434 186.244 88.1836 186.251 88.0098 186.066C87.8322 185.885 87.7126 185.647 87.6434 185.368L82.1204 163.777C82.0942 163.645 82.083 163.51 82.083 163.366C82.083 163.011 82.1652 162.661 82.3278 162.317C82.4867 161.978 82.6867 161.735 82.9203 161.601L87.2266 159.115C87.5743 158.915 87.8416 158.904 88.0266 159.082C88.2154 159.259 88.3387 159.474 88.4116 159.716L90.9797 170.385L93.5516 156.744C93.6226 156.422 93.7478 156.065 93.9366 155.669C94.1216 155.28 94.3852 154.982 94.7366 154.782L97.9944 152.891Z" fill="#455A64"/>
<path d="M129.825 134.504C130.172 134.3 130.439 134.292 130.624 134.466C130.81 134.648 130.937 134.859 131.01 135.1L133.578 145.77L136.153 132.132C136.22 131.811 136.346 131.45 136.535 131.057C136.72 130.664 136.983 130.371 137.334 130.167L141.641 127.678C141.874 127.545 142.071 127.556 142.233 127.711C142.396 127.867 142.478 128.123 142.478 128.478C142.478 128.622 142.467 128.772 142.441 128.931L136.918 156.904C136.85 157.264 136.725 157.639 136.551 158.025C136.378 158.41 136.118 158.704 135.77 158.907L131.811 161.195C131.46 161.398 131.208 161.398 131.043 161.21C130.884 161.017 130.757 160.787 130.662 160.519L128.197 150.707L125.728 163.368C125.638 163.745 125.509 164.123 125.346 164.499C125.187 164.877 124.931 165.17 124.582 165.371L120.623 167.662C120.276 167.858 120.016 167.865 119.842 167.68C119.664 167.499 119.545 167.261 119.476 166.983L113.952 145.392C113.926 145.259 113.915 145.124 113.915 144.98C113.915 144.625 113.997 144.275 114.16 143.931C114.319 143.591 114.519 143.35 114.752 143.215L119.059 140.73C119.406 140.529 119.674 140.518 119.859 140.696C120.047 140.874 120.173 141.089 120.244 141.33L122.812 151.999L125.387 138.358C125.455 138.038 125.58 137.679 125.769 137.283C125.954 136.894 126.217 136.597 126.569 136.396L129.825 134.504Z" fill="#455A64"/>
<path d="M161.653 116.117C162 115.916 162.268 115.905 162.453 116.079C162.638 116.261 162.768 116.472 162.838 116.717L165.406 127.382L167.981 113.749C168.049 113.425 168.177 113.063 168.362 112.67C168.548 112.277 168.815 111.984 169.162 111.78L173.469 109.294C173.702 109.162 173.899 109.169 174.061 109.328C174.228 109.479 174.306 109.739 174.306 110.095C174.306 110.239 174.295 110.388 174.273 110.544L168.746 138.521C168.678 138.88 168.553 139.256 168.379 139.637C168.206 140.026 167.946 140.32 167.598 140.52L163.639 142.805C163.288 143.009 163.036 143.013 162.871 142.82C162.712 142.632 162.585 142.398 162.49 142.134L160.025 132.318L157.556 144.982C157.466 145.356 157.337 145.732 157.174 146.11C157.015 146.492 156.759 146.781 156.408 146.985L152.449 149.271C152.102 149.471 151.842 149.478 151.668 149.293C151.49 149.112 151.371 148.874 151.302 148.592L145.779 127.005C145.756 126.872 145.741 126.737 145.741 126.593C145.741 126.238 145.823 125.888 145.986 125.54C146.149 125.2 146.345 124.959 146.579 124.828L150.885 122.342C151.233 122.138 151.5 122.131 151.685 122.305C151.874 122.486 151.997 122.698 152.07 122.939L154.638 133.608L157.214 119.971C157.281 119.651 157.41 119.288 157.595 118.896C157.78 118.503 158.043 118.209 158.395 118.005L161.653 116.117Z" fill="#455A64"/>
</svg>
