<svg width="318" height="396" viewBox="0 0 318 396" fill="none" xmlns="http://www.w3.org/2000/svg">
<g clip-path="url(#clip0_22_57)">
<path d="M179.541 294.791L192.209 290.938L198.246 393.806L193.274 396L179.541 294.791Z" fill="white"/>
<path d="M275.141 265.087L294.379 259.04L317.998 353.133L312.493 354.734L275.141 265.087Z" fill="white"/>
<path d="M49.0749 287.025L24.8049 364.695L18.2935 361.73L29.5405 284.06L49.0749 287.025Z" fill="white"/>
<path d="M162.552 298.112H169.655L179.541 294.792L193.274 396L187.236 394.399L162.552 298.112Z" fill="white"/>
<path d="M137.986 2.19377L251.107 1.66016L248.917 252.992L153.909 261.767L140.354 267.221L29.718 260.522L30.014 253.407L151.186 238.169L137.986 2.19377Z" fill="url(#paint0_linear_22_57)"/>
<path d="M99.0946 2.60888L137.986 2.19385L156.277 247.774L22.9106 254.83L15.3928 200.757L46.115 194.769L115.255 190.974L99.0946 2.60888Z" fill="url(#paint1_linear_22_57)"/>
<path d="M0.00219727 259.158L0.653343 275.818C0.653343 275.818 0.357367 282.696 9.11823 282.993C17.8791 283.289 162.493 298.052 162.493 298.052C162.493 298.052 174.095 301.135 192.149 290.878L296.392 257.794C296.392 257.794 300.003 257.498 299.647 251.272C299.292 245.047 317.465 8.12272 317.465 7.47053C317.465 6.81834 315.097 4.38743 310.421 4.09098C306.159 3.85382 261.467 1.12646 261.467 1.12646L261.703 181.31C261.703 181.31 262.887 197.852 255.37 198.504C238.144 199.986 167.879 198.919 158.822 206.152C152.725 211.073 166.459 253.229 167.879 261.826C168.294 264.494 149.529 263.308 143.669 264.909C138.933 266.273 0.00219727 259.158 0.00219727 259.158Z" fill="url(#paint2_linear_22_57)"/>
<path d="M148.049 200.164C148.049 200.164 137.512 200.164 137.098 207.516C136.683 213.682 136.447 251.569 136.387 263.605C136.387 265.324 136.269 266.984 135.914 268.644C135.5 270.72 137.749 275.107 143.017 275.226C153.14 275.522 164.505 275.226 164.505 275.226C164.505 275.226 169.359 273.743 168.471 265.502C167.583 257.261 158.526 214.809 158.526 214.809C158.526 214.809 155.803 204.729 165.393 204.729C174.983 204.729 251.344 199.215 251.344 199.215C251.344 199.215 261.881 199.69 262.295 190.025C262.71 180.361 264.604 8.18207 264.604 8.18207C264.604 8.18207 265.965 0.830067 259.572 0.415035C253.179 2.32458e-06 240.393 1.30439 240.393 1.30439C240.393 1.30439 236.249 1.77871 236.249 7.70774C236.249 13.6368 243.471 185.282 242.643 188.78C241.399 194.176 228.199 195.421 221.332 195.895C214.466 196.37 148.049 200.164 148.049 200.164Z" fill="#E5A4ED"/>
<path d="M75.239 11.3837C75.239 11.3837 74.0551 -0.711555 82.224 -7.16764e-05C87.9067 0.533541 93.5302 1.4229 99.1537 2.54941C99.1537 2.54941 102.646 2.07509 103.297 6.04754C103.949 10.02 130.646 191.152 128.81 191.863C126.975 192.575 34.0984 197.97 32.0266 197.97C29.9548 197.97 22.3186 197.733 23.2657 203.781C24.2128 209.828 30.0732 251.747 30.0732 253.407C30.0732 255.067 30.8427 261.233 29.2444 261.707C27.6462 262.182 0.0612793 260.877 0.0612793 260.877L2.13311 203.959C2.13311 203.959 2.01472 194.294 7.57905 193.583C13.1434 192.871 109.572 189.077 110.697 187.95C111.821 186.824 108.862 177.041 107.678 172.653C107.086 170.163 75.239 11.3837 75.239 11.3837Z" fill="#E5A4ED"/>
</g>
<defs>
<linearGradient id="paint0_linear_22_57" x1="32.0268" y1="34.3171" x2="226.066" y2="206.945" gradientUnits="userSpaceOnUse">
<stop stop-color="#E5A4ED"/>
<stop offset="1" stop-color="#7A5BF5"/>
</linearGradient>
<linearGradient id="paint1_linear_22_57" x1="222.861" y1="-53.8701" x2="88.9349" y2="197.318" gradientUnits="userSpaceOnUse">
<stop stop-color="#E5A4ED"/>
<stop offset="1" stop-color="#7A5BF5"/>
</linearGradient>
<linearGradient id="paint2_linear_22_57" x1="28.8048" y1="89.2654" x2="327.946" y2="213.037" gradientUnits="userSpaceOnUse">
<stop stop-color="#E5A4ED"/>
<stop offset="1" stop-color="#7A5BF5"/>
</linearGradient>
<clipPath id="clip0_22_57">
<rect width="318" height="396" fill="white"/>
</clipPath>
</defs>
</svg>
