<svg width="560" height="408" viewBox="0 0 560 408" fill="none" xmlns="http://www.w3.org/2000/svg">
<g clip-path="url(#clip0_4_151)">
<path d="M244.334 341.598L514.29 213.901L474.034 5.33368L196.08 125.694L239.207 343.634" fill="url(#paint0_linear_4_151)"/>
<path d="M370.103 196.519C379.302 192.624 383.419 181.575 379.297 171.841C375.175 162.107 364.377 157.374 355.178 161.269C345.979 165.164 341.863 176.213 345.984 185.947C350.106 195.681 360.904 200.414 370.103 196.519Z" fill="white"/>
<path d="M235.913 328.453L85.8602 391.803C85.4208 391.986 85.0572 392.313 84.8296 392.731C84.6021 393.149 84.5244 393.632 84.6094 394.1L86.405 403.96C86.4616 404.266 86.5861 404.554 86.7693 404.805C86.9525 405.056 87.1897 405.263 87.4634 405.41C87.7372 405.557 88.0404 405.641 88.3509 405.655C88.6614 405.67 88.971 405.614 89.2572 405.493L239.261 343.59C239.695 343.413 240.056 343.096 240.287 342.688C240.518 342.281 240.605 341.808 240.534 341.345L238.788 330.038C238.739 329.725 238.619 329.427 238.437 329.168C238.255 328.908 238.017 328.694 237.739 328.541C237.462 328.388 237.153 328.3 236.836 328.285C236.52 328.27 236.204 328.327 235.913 328.453Z" fill="url(#paint1_linear_4_151)"/>
<path d="M189.264 122.397L467.365 2.35692C467.562 2.27146 467.777 2.23182 467.992 2.24096C468.207 2.25011 468.418 2.30777 468.608 2.40969L474.052 5.32629L197.178 125.209C196.874 125.341 196.625 125.576 196.475 125.871C196.324 126.167 196.282 126.506 196.354 126.83L244.084 340.37C244.158 340.703 244.111 341.052 243.95 341.354C243.789 341.655 243.526 341.889 243.207 342.013L240.713 342.987C240.522 343.061 240.318 343.094 240.113 343.084C239.909 343.073 239.709 343.018 239.528 342.923C239.347 342.828 239.188 342.696 239.062 342.534C238.937 342.373 238.847 342.186 238.8 341.987L187.806 125.33C187.656 124.748 187.721 124.131 187.989 123.592C188.256 123.054 188.709 122.629 189.264 122.397Z" fill="url(#paint2_linear_4_151)"/>
</g>
<defs>
<linearGradient id="paint0_linear_4_151" x1="45.0713" y1="306.464" x2="516.931" y2="106.667" gradientUnits="userSpaceOnUse">
<stop stop-color="#E5A4ED"/>
<stop offset="1" stop-color="#7A5BF5"/>
</linearGradient>
<linearGradient id="paint1_linear_4_151" x1="84.9206" y1="400.576" x2="240.783" y2="334.58" gradientUnits="userSpaceOnUse">
<stop stop-color="#E5A4ED"/>
<stop offset="1" stop-color="#7A5BF5"/>
</linearGradient>
<linearGradient id="paint2_linear_4_151" x1="195.532" y1="239.849" x2="515.897" y2="104.199" gradientUnits="userSpaceOnUse">
<stop stop-color="#E5A4ED"/>
<stop offset="1" stop-color="#7A5BF5"/>
</linearGradient>
<clipPath id="clip0_4_151">
<rect width="512.428" height="225.429" fill="white" transform="translate(0.0820312 200.216) rotate(-22.949)"/>
</clipPath>
</defs>
</svg>
