<svg width="430" height="430" viewBox="0 0 430 430" fill="none" xmlns="http://www.w3.org/2000/svg">
<path d="M188.542 371.881C185.367 379.517 179.45 390.12 173.148 402.334H307.431C286.92 363.874 260.089 324.259 280.995 249.175C290.806 213.94 321.134 150.07 299.69 113.596C275.261 72.0418 242.143 96.3977 228.161 63.5018C206.308 12.086 156.089 -18.5392 111.643 15.135C67.7769 48.37 83.0645 144.021 160.777 239.704C208.862 314.753 205.119 332.007 188.542 371.881Z" fill="#7C2EE9"/>
<mask id="mask0_75_1744" style="mask-type:luminance" maskUnits="userSpaceOnUse" x="87" y="1" width="221" height="402">
<path d="M188.542 371.881C185.367 379.517 179.45 390.12 173.148 402.334H307.431C286.92 363.874 260.089 324.259 280.995 249.175C290.806 213.94 321.134 150.07 299.69 113.596C275.261 72.0418 242.143 96.3977 228.161 63.5018C206.308 12.086 156.089 -18.5392 111.643 15.135C67.7769 48.37 83.0645 144.021 160.777 239.704C208.862 314.753 205.119 332.007 188.542 371.881Z" fill="white"/>
</mask>
<g mask="url(#mask0_75_1744)">
<path d="M242.567 394.444C241.016 376.786 238.67 360.211 236.187 342.662L235.36 336.811C233.65 328.436 232.189 320.131 230.776 312.099C227.585 293.963 224.571 276.833 218.921 259.007C218.71 257.948 218.557 256.912 218.395 255.815C217.815 251.898 217.215 247.847 214.418 244.3L214.344 244.147C191.507 148.83 148.901 56.6942 87.709 -29.6999L88.3417 -30.1606C149.573 56.2899 192.215 148.49 215.081 243.876C217.963 247.573 218.601 251.888 219.165 255.698C219.326 256.785 219.478 257.812 219.674 258.809C225.329 276.642 228.347 293.798 231.543 311.961C232.955 319.987 234.415 328.287 236.127 336.676L236.957 342.551C239.443 360.11 241.79 376.695 243.343 394.375L242.567 394.444Z" fill="#9DB6D9"/>
<path d="M229.446 308.874C222.076 263.293 238.094 205.511 252.83 165.064C268.787 121.262 286.719 87.7897 286.898 87.457L287.582 87.8353C287.403 88.168 269.494 121.598 253.556 165.348C238.855 205.703 222.872 263.338 230.214 308.747L229.446 308.874Z" fill="#9DB6D9"/>
<path d="M170.821 114.684C160.343 66.7576 160.29 13.9989 160.272 -3.33789C160.269 -6.65389 160.266 -8.84471 160.193 -9.25985L160.96 -9.39941C161.042 -8.93507 161.047 -7.20582 161.051 -3.33836C161.068 13.9772 161.122 66.6708 171.581 114.513L170.821 114.684Z" fill="#9DB6D9"/>
<path d="M199.066 189.633C176.986 150.26 87.4244 125.628 86.5225 125.383L86.7232 124.62C87.6282 124.865 177.504 149.586 199.743 189.243L199.066 189.633Z" fill="#9DB6D9"/>
</g>
<path d="M165.461 219.858C166.185 282.427 195.941 261.81 223.379 267.985C255.046 314.454 258.029 357.566 210.749 394.799L158.066 386.803C138.519 385.883 115.582 379.824 116.876 353.426C118.34 323.57 125.302 304.608 92.0747 289.946C58.8483 275.283 44.5748 248.53 58.0299 218.098C72.1893 186.074 38.9777 142.907 63.2494 121.45C105.541 84.0635 164.708 154.704 165.461 219.858Z" fill="url(#paint0_linear_75_1744)"/>
<mask id="mask1_75_1744" style="mask-type:luminance" maskUnits="userSpaceOnUse" x="53" y="111" width="194" height="284">
<path d="M165.461 219.858C166.185 282.427 195.941 261.81 223.379 267.985C255.046 314.454 258.029 357.566 210.749 394.799L158.066 386.803C138.519 385.883 115.582 379.824 116.876 353.426C118.34 323.57 125.302 304.608 92.0747 289.946C58.8483 275.283 44.5748 248.53 58.0299 218.098C72.1893 186.074 38.9777 142.907 63.2494 121.45C105.541 84.0635 164.708 154.704 165.461 219.858Z" fill="white"/>
</mask>
<g mask="url(#mask1_75_1744)">
<path d="M178.544 331.83C156.549 307.426 137.492 280.306 121.902 251.225C106.179 221.893 94.1941 190.955 86.2815 159.27C81.7443 141.101 78.5412 122.59 76.7617 104.251L77.5544 104.172C79.3307 122.47 82.5265 140.941 87.0541 159.072C94.9502 190.691 106.911 221.566 122.603 250.839C138.161 279.863 157.181 306.929 179.132 331.285L178.544 331.83Z" fill="#9DB6D9"/>
<path d="M121.841 366.196L121.479 365.476C131.264 360.421 142.806 356.478 155.785 353.759C161.97 352.463 168.113 351.607 174.046 351.216L174.098 352.023C168.202 352.411 162.095 353.261 155.947 354.551C143.037 357.255 131.562 361.173 121.841 366.196Z" fill="#9DB6D9"/>
<path d="M132.159 269.078C104.955 242.389 47.0455 244.828 46.4651 244.859L46.4277 244.052C47.0145 244.026 105.26 241.563 132.713 268.497L132.159 269.078Z" fill="#9DB6D9"/>
<path d="M98.614 199.423C90.4713 156.845 121.936 107.641 122.254 107.149L122.92 107.593C122.603 108.083 91.316 157.017 99.3965 199.269L98.614 199.423Z" fill="#9DB6D9"/>
</g>
<path d="M348.857 310.028C363.879 310.028 376.056 292.915 376.056 271.805C376.056 250.695 363.879 233.583 348.857 233.583C333.836 233.583 321.658 250.695 321.658 271.805C321.658 292.915 333.836 310.028 348.857 310.028Z" fill="#64748B"/>
<path d="M265.726 179.186H214.534C162.043 179.186 119.491 221.738 119.491 274.229V274.229C119.491 302.239 142.197 324.945 170.207 324.945H310.053C338.063 324.945 360.769 302.239 360.769 274.229C360.769 221.738 318.217 179.186 265.726 179.186Z" fill="#263238"/>
<path d="M256.736 428.871H223.524C189.47 428.871 161.863 401.265 161.863 367.21V367.21C161.863 349.038 176.594 334.307 194.766 334.307H285.494C303.666 334.307 318.397 349.038 318.397 367.21C318.397 401.264 290.79 428.871 256.736 428.871Z" fill="#263238"/>
<path d="M312.194 304.445H214.884C201.697 304.445 190.878 294.336 190.878 281.868V262.747C190.878 250.278 201.697 240.515 214.884 240.936L312.194 244.04C323.971 244.416 333.411 254.11 333.411 265.697V283.465C333.411 295.052 323.971 304.445 312.194 304.445Z" fill="#F6F6F6"/>
<path d="M246.063 271.292C246.063 279.62 238.974 286.28 230.159 286.169C221.264 286.057 213.994 279.104 213.994 270.641C213.994 262.177 221.264 255.52 230.159 255.769C238.974 256.016 246.063 262.965 246.063 271.292Z" fill="#263238"/>
<path d="M311.823 272.629C311.823 280.677 305.203 287.117 296.973 287.013C288.671 286.908 281.888 280.195 281.888 272.021C281.888 263.846 288.671 257.409 296.973 257.641C305.203 257.872 311.823 264.581 311.823 272.629Z" fill="#263238"/>
<path opacity="0.3" d="M275.443 311.614C260.971 294.61 267.402 281.011 248.482 257.968C222.449 226.262 192.079 229.849 185.123 208.345C183.196 202.386 182.974 194.208 188.144 182.902C148.493 194.339 119.491 230.895 119.491 274.229V274.23C119.491 302.239 142.197 324.945 170.206 324.945H292.081C284.781 320.965 279.446 316.317 275.443 311.614Z" fill="#263238"/>
<path d="M133.17 309.763C148.191 309.763 160.369 292.65 160.369 271.54C160.369 250.43 148.191 233.317 133.17 233.317C118.148 233.317 105.971 250.43 105.971 271.54C105.971 292.65 118.148 309.763 133.17 309.763Z" fill="#64748B"/>
<path d="M111.653 288.254C118.221 288.254 123.546 280.771 123.546 271.54C123.546 262.309 118.221 254.826 111.653 254.826C105.084 254.826 99.7588 262.309 99.7588 271.54C99.7588 280.771 105.084 288.254 111.653 288.254Z" fill="#9DB6D9"/>
<path opacity="0.4" d="M264.916 394.926C260.36 373.527 209.958 374.043 208.588 360.056C207.531 349.274 236.469 338.598 240.105 337.257C243.215 336.109 246.302 335.138 249.358 334.308H194.767C176.595 334.308 161.864 349.039 161.864 367.21V367.211C161.864 401.265 189.47 428.872 223.525 428.872H256.737C259.928 428.872 263.062 428.629 266.123 428.162C263.233 424.579 261.348 420.661 260.893 416.384C259.882 406.905 266.682 403.218 264.916 394.926Z" fill="#64748B"/>
<path d="M240.95 342.49C269.919 342.49 293.403 339.647 293.403 336.139C293.403 332.632 269.919 329.789 240.95 329.789C211.981 329.789 188.497 332.632 188.497 336.139C188.497 339.647 211.981 342.49 240.95 342.49Z" fill="#64748B"/>
<path d="M177.828 353.294C173.929 356.489 173.359 362.239 176.554 366.138L202.883 398.263L217.001 386.693L190.672 354.567C187.477 350.669 181.727 350.099 177.828 353.294Z" fill="#263238"/>
<path d="M260.358 383.681C259.788 378.673 255.267 375.075 250.258 375.644L208.988 380.338L211.051 398.474L252.321 393.781C257.329 393.211 260.928 388.69 260.358 383.681Z" fill="#263238"/>
<path d="M208.988 404.318C216.302 404.318 222.232 398.389 222.232 391.075C222.232 383.761 216.302 377.832 208.988 377.832C201.674 377.832 195.745 383.761 195.745 391.075C195.745 398.389 201.674 404.318 208.988 404.318Z" fill="#F6F6F6"/>
<path d="M251.93 377.335L258.747 394.065C259.76 396.552 263.602 397.292 266.534 395.527C270.829 392.941 275.524 388.528 273.629 382.145C271.231 374.07 264.096 371.744 258.226 371.272C254.243 370.952 250.721 374.366 251.93 377.335Z" fill="#F6F6F6"/>
<defs>
<linearGradient id="paint0_linear_75_1744" x1="78.245" y1="162.478" x2="282.249" y2="493.621" gradientUnits="userSpaceOnUse">
<stop offset="0.0036" stop-color="#E38DDD"/>
<stop offset="1" stop-color="#9571F6"/>
</linearGradient>
</defs>
</svg>
