<svg width="411" height="456" viewBox="0 0 411 456" fill="none" xmlns="http://www.w3.org/2000/svg">
<path d="M107.654 11.7398C106.351 8.6284 104.057 6.53793 101.452 6.07837C98.8466 5.61899 96.2222 6.84254 94.349 9.39276C25.6324 102.945 62.752 205.282 79.1509 240.476C80.6156 243.619 83.1071 245.586 85.8376 245.757C88.5681 245.929 91.2034 244.285 92.9129 241.341C151.677 140.166 121.465 44.7352 107.654 11.7398Z" fill="#5E26AE"/>
<g opacity="0.56">
<path d="M97.8106 19.9093C94.798 37.6274 92.4724 55.4822 90.5295 73.3585C88.6123 91.2413 87.1173 109.169 86.1555 127.123L85.5434 140.593C85.3654 145.083 85.3079 149.577 85.1841 154.069L85.0285 160.807L85.0305 167.546L85.0323 174.284C85.0494 176.529 84.9926 178.776 85.0862 181.02C85.3769 198.985 86.5485 216.915 88.5433 234.737L88.5487 234.785C88.6447 235.64 88.0278 236.412 87.1712 236.507C86.3146 236.603 85.5425 235.987 85.4469 235.131C85.4457 235.121 85.4438 235.103 85.4431 235.092L84.2775 221.598L83.9862 218.225L83.8459 216.538L83.7642 214.848L83.4371 208.089L83.1054 201.331L82.9371 197.952L82.8776 194.571L82.6397 181.048C82.5698 178.794 82.6504 176.541 82.6571 174.287L82.727 167.527L82.7969 160.768L83.0248 154.013C83.1966 149.511 83.3022 145.006 83.5285 140.507L84.2853 127.015C85.4646 109.038 87.0156 91.0891 89.0777 73.1966C90.1161 64.2517 91.2388 55.3167 92.5037 46.401L93.4487 39.714L94.4564 33.0356C95.1393 28.5837 95.8554 24.1414 96.6339 19.6978C96.6909 19.3728 97.0005 19.1555 97.3259 19.2124C97.6501 19.2692 97.8672 19.5769 97.8125 19.9008L97.8106 19.9093Z" fill="white"/>
<path d="M88.9136 73.773C88.7872 73.6826 88.6928 73.548 88.6553 73.3856C88.5746 73.0323 88.7954 72.68 89.1496 72.5989C98.6216 70.436 112.267 51.8809 112.403 51.6937C112.616 51.402 113.024 51.3375 113.317 51.5468C113.318 51.5479 113.32 51.549 113.322 51.5501C113.615 51.7639 113.679 52.1748 113.465 52.4676C112.895 53.2479 99.389 71.6079 89.4429 73.8794C89.2516 73.9225 89.0612 73.8786 88.9136 73.773Z" fill="white"/>
<path d="M88.9145 73.7734C88.8858 73.7529 88.8581 73.7299 88.8323 73.7043C88.396 73.2691 78.0887 62.9227 73.9705 51.7618C73.8448 51.4219 74.0191 51.0442 74.3599 50.9191C74.7006 50.7938 75.0796 50.9678 75.2035 51.3081C79.2204 62.1929 89.6559 72.6697 89.7611 72.7743C90.0179 73.0305 90.0183 73.4462 89.7619 73.7028C89.5312 73.9338 89.1717 73.9574 88.9145 73.7734Z" fill="white"/>
<path d="M85.12 122.465C85.0233 122.396 84.944 122.299 84.8954 122.181C84.7572 121.846 84.917 121.462 85.2531 121.324C100.021 115.243 111.062 97.8429 111.172 97.6676C111.365 97.3604 111.77 97.2673 112.078 97.4599C112.382 97.6574 112.478 98.0579 112.286 98.3648C112.174 98.5433 100.915 116.295 85.7532 122.538C85.5361 122.628 85.2978 122.592 85.12 122.465Z" fill="white"/>
<path d="M80.6185 120.155C75.8237 116.725 67.9592 109.515 62.5328 96.4824C62.3938 96.148 62.5523 95.7637 62.8874 95.6242C63.2221 95.4851 63.6062 95.6432 63.7463 95.9785C71.6731 115.017 85.2327 121.463 85.3685 121.527C85.6987 121.682 85.8412 122.07 85.6885 122.398C85.5365 122.727 85.1457 122.87 84.8161 122.718C84.626 122.63 83.001 121.859 80.6185 120.155Z" fill="white"/>
<path d="M83.5798 188.992C83.5741 188.988 83.5683 188.984 83.5627 188.98C83.412 188.864 68.3606 177.261 59.8741 160.569C59.7097 160.245 59.8391 159.85 60.162 159.686C60.4858 159.522 60.8806 159.65 61.0459 159.974C69.3932 176.392 84.2123 187.822 84.3612 187.936C84.6493 188.156 84.7045 188.568 84.4837 188.856C84.2678 189.139 83.8668 189.197 83.5798 188.992Z" fill="white"/>
<path d="M83.5787 188.991C83.4994 188.934 83.4317 188.859 83.3825 188.767C83.2112 188.448 83.3321 188.05 83.6521 187.879C83.8168 187.791 100.25 178.867 110.533 160.97C110.714 160.656 111.115 160.548 111.431 160.728C111.739 160.912 111.853 161.31 111.673 161.624C101.195 179.859 84.4399 188.947 84.2712 189.037C84.0434 189.159 83.7761 189.132 83.5787 188.991Z" fill="white"/>
</g>
<path d="M40.1212 52.1441C38.3289 50.0047 36.0032 48.915 33.8323 49.1898C31.6613 49.4648 29.8881 51.0742 29.0337 53.5479C-2.30976 144.291 52.1225 216.056 73.7128 239.848C75.6411 241.972 78.092 242.916 80.2916 242.383C82.4911 241.85 84.1697 239.905 84.7984 237.161C106.408 142.833 59.1276 74.8317 40.1212 52.1441Z" fill="#7C2EE9"/>
<g opacity="0.56">
<path d="M34.4187 61.0072C36.3862 75.7393 38.9375 90.4139 41.7989 105.009C44.6825 119.603 47.9037 134.131 51.5652 148.544L54.3972 159.331C55.3619 162.921 56.4225 166.483 57.4304 170.06L58.9657 175.419L60.6257 180.739L62.2854 186.059C62.8517 187.828 63.3597 189.616 63.9858 191.365C68.6344 205.477 73.9762 219.343 79.94 232.916L79.9592 232.96C80.3057 233.748 79.9466 234.668 79.1575 235.014C78.3683 235.36 77.4477 235.002 77.1011 234.213C77.0962 234.202 77.0887 234.184 77.084 234.172L72.8648 223.782L71.8103 221.186L71.2872 219.886L70.8096 218.569L68.8995 213.303L66.9855 208.039L66.0261 205.409L65.1522 202.75L61.6569 192.115C61.0506 190.35 60.5635 188.548 60.0176 186.765L58.4199 181.403L56.8224 176.042L55.351 170.646C54.3861 167.045 53.3683 163.458 52.4471 159.846L49.7466 148.995C46.2859 134.495 43.112 119.931 40.3639 105.284C38.9951 97.9608 37.6953 90.6244 36.5125 83.2685C35.2993 75.9165 34.1934 68.5533 33.2316 61.1538C33.1892 60.8266 33.42 60.5269 33.7474 60.4845C34.0749 60.442 34.3748 60.6728 34.4173 60.9999L34.4187 61.0072Z" fill="white"/>
<path d="M40.2664 105.756C40.2028 105.706 40.1473 105.644 40.1044 105.57C39.9222 105.256 40.0297 104.854 40.343 104.672C47.2605 100.665 53.4757 82.7028 53.538 82.5224C53.6557 82.1792 54.0287 81.9961 54.3722 82.1138C54.7169 82.2309 54.8989 82.6041 54.7812 82.9472C54.5218 83.7054 48.3406 101.557 41.0028 105.808C40.7625 105.947 40.4715 105.918 40.2664 105.756Z" fill="white"/>
<path d="M30.7594 99.5063C28.0963 97.4109 25.3522 94.8911 23.206 92.0933C22.9852 91.8054 23.0396 91.3935 23.3277 91.1729C23.6153 90.952 24.0276 91.0031 24.2489 91.2946C30.0821 98.8963 40.8699 104.602 40.9786 104.659C41.294 104.83 41.4232 105.224 41.2549 105.546C41.0861 105.867 40.689 105.99 40.3673 105.822C40.0767 105.669 35.5502 103.276 30.7594 99.5063Z" fill="white"/>
<path d="M49.2157 145.157C49.18 145.129 49.1458 145.097 49.116 145.06C48.8844 144.781 48.9234 144.366 49.2024 144.135C59.3573 135.733 63.7977 119.321 63.841 119.156C63.9346 118.805 64.2935 118.596 64.6444 118.689C64.9968 118.783 65.2047 119.142 65.1119 119.492C64.9289 120.181 60.5169 136.478 50.0404 145.147C49.7982 145.348 49.4536 145.344 49.2157 145.157Z" fill="white"/>
<path d="M32.7241 137.638C30.2375 135.681 27.6619 133.25 25.1426 130.231C24.9103 129.953 24.9478 129.539 25.2263 129.306C25.505 129.074 25.9225 129.116 26.1521 129.39C31.8378 136.203 37.8636 139.878 41.9153 141.761C46.31 143.803 49.4006 144.238 49.4311 144.241C49.7908 144.292 50.0429 144.621 49.9947 144.979C49.9464 145.339 49.6164 145.591 49.2569 145.543C48.8525 145.489 41.3234 144.404 32.7241 137.638Z" fill="white"/>
<path d="M44.7414 186.874C42.6953 185.264 40.6709 183.481 38.7677 181.523C38.515 181.264 38.5209 180.848 38.7815 180.595C39.0418 180.343 39.4555 180.345 39.7109 180.609C50.3128 191.519 64.8041 196.911 64.9485 196.964C65.2925 197.09 65.4643 197.467 65.3393 197.806C65.2144 198.147 64.8367 198.322 64.4965 198.197C64.3746 198.153 54.3269 194.416 44.7414 186.874Z" fill="white"/>
<path d="M64.3152 198.097C64.2961 198.082 64.2772 198.066 64.2601 198.048C64.0018 197.794 63.9989 197.377 64.2537 197.119C64.3618 197.01 75.1348 185.956 78.8612 169.331C78.9405 168.978 79.2922 168.756 79.6466 168.835C79.9995 168.912 80.2234 169.265 80.1438 169.619C76.3322 186.624 65.2998 197.93 65.1889 198.043C64.9516 198.283 64.5744 198.301 64.3152 198.097Z" fill="white"/>
</g>
<path d="M311.509 399.8V417.39L311.483 417.391C310.404 428.007 265.962 447.505 201.412 447.865C106.501 448.395 74.4488 427.219 72.9574 416.377H72.9219V400.169L311.509 399.8Z" fill="#091527"/>
<path d="M72.9219 400.234C72.9219 411.168 127.684 419.802 194.145 419.523C259.428 419.249 311.509 410.449 311.509 399.863C311.509 389.278 259.428 380.639 194.145 380.569C127.684 380.496 72.9219 389.301 72.9219 400.234Z" fill="#091527"/>
<path d="M73.8457 398.904C73.8457 409.756 128.19 418.343 194.159 418.088C258.978 417.838 310.7 409.116 310.7 398.605C310.7 388.093 258.978 379.503 194.159 379.416C128.19 379.328 73.8457 388.052 73.8457 398.904Z" fill="#091527"/>
<path d="M72.9219 416.377V400.169L311.509 399.8V417.39L72.9219 416.377Z" fill="#091527"/>
<path d="M72.9219 400.234C72.9219 411.168 127.684 419.802 194.145 419.523C259.428 419.249 311.509 410.449 311.509 399.863C311.509 389.278 259.428 380.639 194.145 380.569C127.684 380.496 72.9219 389.301 72.9219 400.234Z" fill="#7C2EE9"/>
<path d="M311.509 366.463V384.053L311.483 384.054C310.404 394.67 265.962 413.243 201.412 412.912C99.1227 412.386 74.4488 393.882 72.9574 383.04H72.9219V366.832L311.509 366.463Z" fill="#091527"/>
<path d="M72.9219 366.897C72.9219 377.831 127.684 386.465 194.145 386.186C259.428 385.912 311.509 377.112 311.509 366.526C311.509 355.941 259.428 347.303 194.145 347.232C127.684 347.159 72.9219 355.964 72.9219 366.897Z" fill="#091527"/>
<path d="M73.8457 365.567C73.8457 376.419 128.19 385.006 194.159 384.751C258.978 384.501 310.7 375.779 310.7 365.268C310.7 354.756 258.978 346.166 194.159 346.079C128.19 345.991 73.8457 354.715 73.8457 365.567Z" fill="#091527"/>
<path d="M72.9219 383.04V366.832L311.509 366.463V384.053L72.9219 383.04Z" fill="#091527"/>
<path d="M72.9219 366.897C72.9219 377.831 127.684 386.465 194.145 386.186C259.428 385.912 311.509 377.112 311.509 366.526C311.509 355.941 259.428 347.303 194.145 347.232C127.684 347.159 72.9219 355.964 72.9219 366.897Z" fill="#7C2EE9"/>
<path d="M311.509 333.044V350.633L311.483 350.635C310.404 361.251 265.962 379.824 201.412 379.493C99.1227 378.967 74.4488 360.463 72.9574 349.621H72.9219V333.413L311.509 333.044Z" fill="#091527"/>
<path d="M72.9219 333.478C72.9219 344.412 127.684 353.046 194.145 352.767C259.428 352.493 311.509 343.693 311.509 333.107C311.509 322.522 259.428 313.883 194.145 313.812C127.684 313.74 72.9219 322.544 72.9219 333.478Z" fill="#091527"/>
<path d="M73.8457 332.148C73.8457 343 128.19 351.587 194.159 351.332C258.978 351.081 310.7 342.36 310.7 331.849C310.7 321.337 258.978 312.747 194.159 312.66C128.19 312.572 73.8457 321.296 73.8457 332.148Z" fill="#091527"/>
<path d="M72.9219 349.621V333.413L311.509 333.044V350.634L72.9219 349.621Z" fill="#091527"/>
<path d="M72.9219 333.478C72.9219 344.412 127.684 353.046 194.145 352.767C259.428 352.493 311.509 343.693 311.509 333.107C311.509 322.522 259.428 313.883 194.145 313.812C127.684 313.74 72.9219 322.544 72.9219 333.478Z" fill="#7C2EE9"/>
<path d="M311.509 299.625V317.215L311.483 317.216C310.404 327.832 265.962 346.405 201.412 346.074C99.1227 345.548 74.4488 327.044 72.9574 316.202H72.9219V299.994L311.509 299.625Z" fill="#091527"/>
<path d="M72.9219 300.059C72.9219 310.993 127.684 319.627 194.145 319.348C259.428 319.074 311.509 310.274 311.509 299.688C311.509 289.102 259.428 280.464 194.145 280.393C127.684 280.321 72.9219 289.125 72.9219 300.059Z" fill="#091527"/>
<path d="M73.8457 298.729C73.8457 309.581 128.19 318.168 194.159 317.913C258.978 317.662 310.7 308.941 310.7 298.43C310.7 287.918 258.978 279.328 194.159 279.241C128.19 279.153 73.8457 287.877 73.8457 298.729Z" fill="#091527"/>
<path d="M72.9219 316.202V299.994L311.509 299.625V317.215L72.9219 316.202Z" fill="#091527"/>
<path d="M72.9219 300.059C72.9219 310.993 127.684 319.627 194.145 319.348C259.428 319.074 311.509 310.274 311.509 299.688C311.509 289.102 259.428 280.464 194.145 280.393C127.684 280.321 72.9219 289.125 72.9219 300.059Z" fill="#7C2EE9"/>
<path d="M311.509 266.206V283.796L311.483 283.797C310.404 294.413 265.962 312.987 201.412 312.655C99.1227 312.129 74.4488 293.625 72.9574 282.783H72.9219V266.575L311.509 266.206Z" fill="#091527"/>
<path d="M72.9219 266.641C72.9219 277.574 127.684 286.208 194.145 285.929C259.428 285.655 311.509 276.855 311.509 266.269C311.509 255.683 259.428 247.045 194.145 246.975C127.684 246.903 72.9219 255.707 72.9219 266.641Z" fill="#091527"/>
<path d="M73.8457 265.31C73.8457 276.162 128.19 284.749 194.159 284.494C258.978 284.243 310.7 275.522 310.7 265.011C310.7 254.499 258.978 245.909 194.159 245.822C128.19 245.734 73.8457 254.458 73.8457 265.31Z" fill="#091527"/>
<path d="M72.9219 282.783V266.575L311.509 266.206V283.796L72.9219 282.783Z" fill="#091527"/>
<path d="M72.9219 266.641C72.9219 277.574 127.684 286.208 194.145 285.929C259.428 285.655 311.509 276.855 311.509 266.269C311.509 255.683 259.428 247.045 194.145 246.975C127.684 246.903 72.9219 255.707 72.9219 266.641Z" fill="#7C2EE9"/>
<path d="M311.509 232.787V250.377L311.483 250.378C310.404 260.994 265.962 279.567 201.412 279.236C99.1227 278.71 74.4488 260.206 72.9574 249.364H72.9219V233.156L311.509 232.787Z" fill="#091527"/>
<path d="M72.9219 233.221C72.9219 244.155 127.684 252.789 194.145 252.51C259.428 252.236 311.509 243.436 311.509 232.85C311.509 222.265 259.428 213.627 194.145 213.556C127.684 213.483 72.9219 222.288 72.9219 233.221Z" fill="#091527"/>
<path d="M73.8457 231.891C73.8457 242.743 128.19 251.33 194.159 251.075C258.978 250.825 310.7 242.103 310.7 231.592C310.7 221.08 258.978 212.49 194.159 212.403C128.19 212.315 73.8457 221.039 73.8457 231.891Z" fill="#091527"/>
<path d="M72.9219 249.364V233.156L311.509 232.787V250.377L72.9219 249.364Z" fill="#091527"/>
<path d="M72.9219 233.221C72.9219 244.155 127.684 252.789 194.145 252.51C259.428 252.236 311.509 243.436 311.509 232.85C311.509 222.265 259.428 213.627 194.145 213.556C127.684 213.483 72.9219 222.288 72.9219 233.221Z" fill="#7C2EE9"/>
<path d="M311.509 199.368V216.958L311.483 216.959C310.404 227.575 265.962 246.149 201.412 245.817C99.1227 245.292 74.4488 226.788 72.9574 215.945H72.9219V199.737L311.509 199.368Z" fill="#091527"/>
<path d="M72.9219 199.803C72.9219 210.736 127.684 219.37 194.145 219.091C259.428 218.817 311.509 210.017 311.509 199.431C311.509 188.846 259.428 180.208 194.145 180.137C127.684 180.064 72.9219 188.869 72.9219 199.803Z" fill="#091527"/>
<path d="M73.8457 198.472C73.8457 209.324 128.19 217.911 194.159 217.656C258.978 217.405 310.7 208.684 310.7 198.173C310.7 187.661 258.978 179.071 194.159 178.984C128.19 178.896 73.8457 187.62 73.8457 198.472Z" fill="#35195C"/>
<path d="M72.9219 215.945V199.737L311.509 199.368V216.958L72.9219 215.945Z" fill="#091527"/>
<path d="M72.9219 199.803C72.9219 210.736 127.684 219.37 194.145 219.091C259.428 218.817 311.509 210.017 311.509 199.431C311.509 188.846 259.428 180.208 194.145 180.137C127.684 180.064 72.9219 188.869 72.9219 199.803Z" fill="#7C2EE9"/>
<path d="M319.817 176.79C321.294 174.522 323.407 173.204 325.529 173.217C327.651 173.23 329.545 174.574 330.655 176.857C371.362 260.593 327.283 335.993 309.257 361.4C307.647 363.669 305.397 364.862 303.218 364.603C301.038 364.345 299.196 362.667 298.273 360.098C266.52 271.783 304.15 200.835 319.817 176.79Z" fill="#5E26AE"/>
<g opacity="0.56">
<path d="M327.49 184.666C327.423 191.901 327.213 199.119 326.898 206.338C326.612 213.557 326.212 220.771 325.744 227.98C324.797 242.4 323.431 256.79 321.781 271.151L320.439 281.911C319.971 285.495 319.407 289.066 318.896 292.646L318.105 298.011L317.189 303.358L316.273 308.705C315.954 310.485 315.694 312.276 315.315 314.045L313.184 324.689L312.651 327.35L312.032 329.994L310.8 335.283L309.571 340.574L309.264 341.897L308.911 343.209L308.197 345.831L305.34 356.323C305.123 357.122 304.298 357.593 303.499 357.375C302.7 357.158 302.228 356.335 302.446 355.536C302.448 355.525 302.452 355.513 302.455 355.502L302.471 355.451C306.636 341.692 310.169 327.723 313.007 313.596C313.407 311.84 313.688 310.06 314.028 308.291L315.008 302.977L315.989 297.662L316.845 292.325C317.4 288.765 318.007 285.211 318.519 281.643L319.994 270.93C321.845 256.628 323.26 242.268 324.343 227.883C325.403 213.499 326.157 199.075 326.341 184.663L326.341 184.654C326.345 184.337 326.606 184.083 326.923 184.087C327.241 184.091 327.494 184.349 327.49 184.666Z" fill="white"/>
<path d="M325.949 228.357C325.777 228.582 325.47 228.671 325.197 228.554C317.641 225.311 309.62 208.842 309.282 208.143C309.13 207.829 309.262 207.452 309.576 207.3C309.89 207.149 310.268 207.28 310.419 207.594C310.5 207.761 318.572 224.338 325.696 227.395C326.016 227.532 326.164 227.903 326.027 228.223C326.006 228.272 325.98 228.317 325.949 228.357Z" fill="white"/>
<path d="M338.577 216.472C333.464 223.185 326.159 228.25 325.805 228.494C325.518 228.692 325.125 228.619 324.927 228.332C324.728 228.045 324.799 227.654 325.089 227.454C325.186 227.387 334.918 220.635 339.648 212.648C339.827 212.335 340.213 212.248 340.513 212.426C340.813 212.603 340.912 212.99 340.735 213.29C340.089 214.381 339.358 215.446 338.577 216.472Z" fill="white"/>
<path d="M321.908 267.328C321.71 267.587 321.343 267.655 321.063 267.475C309.972 260.343 303.834 245.167 303.578 244.524C303.449 244.2 303.607 243.833 303.932 243.705C304.255 243.576 304.623 243.733 304.752 244.057C304.813 244.211 311.001 259.504 321.748 266.414C322.04 266.603 322.125 266.993 321.937 267.287C321.927 267.301 321.918 267.314 321.908 267.328Z" fill="white"/>
<path d="M341.05 253.425C332.256 264.972 322.312 267.649 321.858 267.766C321.52 267.853 321.176 267.65 321.089 267.313C321.001 266.975 321.206 266.63 321.541 266.544C321.657 266.513 333.264 263.373 342.234 249.546C342.423 249.26 342.816 249.17 343.108 249.36C343.401 249.55 343.484 249.94 343.294 250.233C342.56 251.365 341.808 252.429 341.05 253.425Z" fill="white"/>
<path d="M336.13 301.194L336.129 301.194C327.006 313.161 313.431 320.157 313.295 320.226C312.984 320.385 312.604 320.261 312.446 319.951C312.287 319.64 312.412 319.26 312.721 319.102C312.855 319.034 326.18 312.162 335.125 300.43C335.336 300.152 335.732 300.099 336.01 300.31C336.288 300.521 336.341 300.917 336.13 301.194Z" fill="white"/>
<path d="M313.511 320.046C313.509 320.05 313.506 320.053 313.503 320.057C313.286 320.329 312.889 320.375 312.615 320.158C312.496 320.063 300.564 310.455 294.921 294.527C294.804 294.199 294.977 293.837 295.306 293.722C295.635 293.606 295.995 293.778 296.111 294.106C301.63 309.681 313.285 319.077 313.402 319.17C313.671 319.385 313.719 319.774 313.511 320.046Z" fill="white"/>
</g>
<path d="M383.6 223.227C386.329 221.018 389.463 220.234 392.076 221.097C394.689 221.961 396.489 224.375 396.946 227.634C413.699 347.2 329.168 422.647 296.768 446.802C293.875 448.96 290.621 449.533 288.036 448.345C285.449 447.156 283.847 444.351 283.735 440.812C279.862 319.169 354.656 246.644 383.6 223.227Z" fill="#B077FF"/>
<g opacity="0.56">
<path d="M389.764 235.947C388.283 240.401 386.745 244.824 385.173 249.238L382.798 255.852L380.362 262.443C377.118 271.234 373.735 279.971 370.269 288.677C363.323 306.083 355.881 323.289 348.084 340.337L342.115 353.068C340.101 357.301 337.973 361.479 335.907 365.688L332.781 371.988L329.507 378.213L326.233 384.44C325.127 386.507 324.088 388.611 322.911 390.641L316.015 402.911L314.291 405.979L312.468 408.991L308.828 415.017L305.19 421.048L304.281 422.555L303.319 424.031L301.387 426.976L293.656 438.762C293.169 439.505 292.172 439.712 291.428 439.226C290.685 438.739 290.478 437.743 290.965 437C290.97 436.991 290.977 436.981 290.983 436.973L291.015 436.926C301.642 421.583 311.567 405.735 320.703 389.421C321.897 387.412 322.954 385.325 324.079 383.277L327.407 377.105L330.736 370.933L333.92 364.684C336.024 360.508 338.19 356.363 340.244 352.162L346.334 339.521C354.317 322.6 361.799 305.441 368.872 288.115C375.918 270.781 382.604 253.28 388.593 235.564L388.595 235.556C388.704 235.234 389.054 235.061 389.377 235.169C389.699 235.278 389.873 235.625 389.764 235.947Z" fill="white"/>
<path d="M370.229 289.263C370.018 289.32 369.784 289.273 369.607 289.119C361.619 282.138 358.313 258.665 358.176 257.669C358.126 257.299 358.387 256.961 358.755 256.907C359.126 256.856 359.468 257.115 359.519 257.485C359.551 257.724 362.891 281.451 370.499 288.1C370.781 288.347 370.81 288.774 370.563 289.055C370.472 289.16 370.354 289.23 370.229 289.263Z" fill="white"/>
<path d="M370.227 289.264C369.875 289.358 369.509 289.155 369.403 288.803C369.297 288.445 369.501 288.068 369.859 287.961C370.007 287.917 384.74 283.463 393.795 275.471C394.078 275.222 394.504 275.251 394.751 275.53C394.999 275.81 394.972 276.238 394.692 276.485C385.41 284.678 370.397 289.214 370.247 289.258C370.24 289.26 370.233 289.262 370.227 289.264Z" fill="white"/>
<path d="M349.663 335.737C349.413 335.804 349.137 335.725 348.963 335.512C338.159 322.321 336.61 300.513 336.595 300.294C336.571 299.922 336.853 299.602 337.227 299.574C337.6 299.55 337.923 299.833 337.948 300.205C337.962 300.42 339.485 321.803 350.012 334.655C350.249 334.944 350.206 335.371 349.916 335.607C349.839 335.67 349.753 335.713 349.663 335.737Z" fill="white"/>
<path d="M360.954 334.615C360.619 334.704 360.294 334.787 359.977 334.864C353.857 336.364 349.892 336.145 349.726 336.135C349.352 336.112 349.068 335.792 349.091 335.419C349.113 335.046 349.435 334.763 349.808 334.783C349.964 334.793 365.595 335.548 382.234 322.036C382.523 321.8 382.95 321.844 383.187 322.135C383.423 322.425 383.379 322.851 383.088 323.087C374.678 329.918 366.567 333.118 360.954 334.615Z" fill="white"/>
<path d="M325.168 395.867C320.953 396.991 318.23 397.439 318.157 397.45C317.788 397.509 317.441 397.258 317.381 396.888C317.323 396.519 317.579 396.176 317.944 396.113C318.135 396.082 337.356 392.914 353.11 381.991C353.416 381.776 353.84 381.853 354.052 382.161C354.266 382.468 354.19 382.89 353.882 383.103C343.801 390.095 332.331 393.957 325.168 395.867Z" fill="white"/>
<path d="M318.225 397.436C317.952 397.509 317.651 397.405 317.486 397.156C317.376 396.992 306.516 380.41 305.922 358.544C305.912 358.169 306.211 357.858 306.581 357.849C306.955 357.839 307.266 358.133 307.277 358.507C307.86 379.988 318.507 396.245 318.615 396.407C318.822 396.718 318.736 397.139 318.425 397.346C318.362 397.388 318.294 397.417 318.225 397.436Z" fill="white"/>
</g>
</svg>
