<svg width="412" height="412" viewBox="0 0 412 412" fill="none" xmlns="http://www.w3.org/2000/svg">
<path d="M203.342 403.821C302.422 403.821 382.742 323.501 382.742 224.421C382.742 125.341 302.422 45.0215 203.342 45.0215C104.262 45.0215 23.9424 125.341 23.9424 224.421C23.9424 323.501 104.262 403.821 203.342 403.821Z" stroke="#B27DFE" stroke-miterlimit="10" stroke-dasharray="4.99 4.99"/>
<g opacity="0.2">
<path d="M203.342 335.249C281.083 335.249 344.105 296.637 344.105 249.007C344.105 201.377 281.083 162.765 203.342 162.765C125.601 162.765 62.5791 201.377 62.5791 249.007C62.5791 296.637 125.601 335.249 203.342 335.249Z" stroke="#091527" stroke-miterlimit="10"/>
<path d="M203.343 316.437C264.128 316.437 313.404 286.247 313.404 249.006C313.404 211.764 264.128 181.574 203.343 181.574C142.558 181.574 93.2822 211.764 93.2822 249.006C93.2822 286.247 142.558 316.437 203.343 316.437Z" stroke="#091527" stroke-miterlimit="10"/>
</g>
<path d="M203.342 98.8719C228.254 98.8719 248.449 78.6769 248.449 53.765C248.449 28.8532 228.254 8.6582 203.342 8.6582C178.43 8.6582 158.235 28.8532 158.235 53.765C158.235 78.6769 178.43 98.8719 203.342 98.8719Z" fill="#B27DFE"/>
<path d="M209.459 74.1986C209.459 77.5751 206.726 80.3093 203.349 80.3093C199.971 80.3093 197.238 77.5762 197.238 74.1986C197.238 70.8198 199.971 68.0867 203.349 68.0867C206.727 68.0867 209.459 70.8198 209.459 74.1986ZM189.282 62.4345L193.966 66.3631C198.64 60.7816 208.069 60.7816 212.737 66.3688L217.428 62.4539C213.924 58.2652 208.792 55.8663 203.35 55.8663C197.905 55.8641 192.78 58.2573 189.282 62.4345ZM180.7 53.6796L185.23 57.7861C189.855 52.6769 196.455 49.7533 203.349 49.7533C210.236 49.7533 216.838 52.6781 221.463 57.7747L225.986 53.6682C220.201 47.2939 211.953 43.6426 203.349 43.6426C194.738 43.6414 186.483 47.3054 180.7 53.6796ZM172.082 44.9966L176.546 49.1681C183.457 41.7741 193.227 37.5307 203.349 37.5307C213.621 37.5307 223.133 41.66 230.14 49.1567L234.605 44.9795C226.547 36.3615 215.154 31.4199 203.35 31.4199C191.538 31.4188 180.146 36.366 172.082 44.9966Z" fill="#F6F6FF"/>
<path d="M291.124 172.124L290.926 257.11L203.523 307.903L203.721 222.917L291.124 172.124Z" fill="#E6E1FF"/>
<path d="M203.16 121.338L115.757 172.131L115.56 257.117L203.524 307.903L203.721 222.918L291.124 172.124L203.16 121.338Z" fill="#F6F6FF"/>
<path d="M154.092 149.853L244.104 97.7881L291.123 172.124L203.62 224.665L154.092 149.853Z" fill="url(#paint0_linear_75_2591)"/>
<path fill-rule="evenodd" clip-rule="evenodd" d="M159.261 226.336V262.804L179.828 274.63V238.208L159.261 226.336Z" fill="white"/>
<path fill-rule="evenodd" clip-rule="evenodd" d="M165.819 232.485L163.129 230.933L163.13 260.616L177.78 269.074V266.283V239.39L165.819 232.485Z" fill="#2170E5"/>
<path opacity="0.5" fill-rule="evenodd" clip-rule="evenodd" d="M171.874 235.064L160.384 242.976V244.786L173.204 236.032L171.874 235.064Z" fill="white"/>
<path opacity="0.5" fill-rule="evenodd" clip-rule="evenodd" d="M177.78 238.583L162.22 249.992V251.8L179.11 239.551L177.78 238.583Z" fill="white"/>
<path fill-rule="evenodd" clip-rule="evenodd" d="M161.311 229.883V261.619L163.13 260.616V230.933L161.311 229.883Z" fill="#5E26AE"/>
<path fill-rule="evenodd" clip-rule="evenodd" d="M177.779 271.089L161.384 261.623L163.128 260.616L177.779 269.075V271.089Z" fill="#7C2EE9"/>
<path fill-rule="evenodd" clip-rule="evenodd" d="M127.129 198.303V263.8L147.696 275.625V210.175L127.129 198.303Z" fill="white"/>
<path fill-rule="evenodd" clip-rule="evenodd" d="M133.687 204.452L130.997 202.901L130.998 261.612L145.648 270.07V267.279V211.358L133.687 204.452Z" fill="#2170E5"/>
<path opacity="0.5" fill-rule="evenodd" clip-rule="evenodd" d="M139.741 207.031L128.252 214.944V216.752L141.072 208L139.741 207.031Z" fill="white"/>
<path opacity="0.5" fill-rule="evenodd" clip-rule="evenodd" d="M145.649 210.55L130.088 221.958V223.766L146.979 211.518L145.649 210.55Z" fill="white"/>
<path fill-rule="evenodd" clip-rule="evenodd" d="M129.177 201.85V262.614L130.997 261.612V202.901L129.177 201.85Z" fill="#5E26AE"/>
<path fill-rule="evenodd" clip-rule="evenodd" d="M145.647 272.085L129.252 262.619L130.996 261.612L145.647 270.07V272.085Z" fill="#7C2EE9"/>
<path fill-rule="evenodd" clip-rule="evenodd" d="M241.149 223.54V260.008L220.582 271.834V235.412L241.149 223.54Z" fill="white"/>
<path fill-rule="evenodd" clip-rule="evenodd" d="M234.593 229.69L237.282 228.138V257.821L222.632 266.279V263.488V236.595L234.593 229.69Z" fill="#35195C"/>
<path opacity="0.5" fill-rule="evenodd" clip-rule="evenodd" d="M228.536 232.268L240.025 240.181V241.989L227.206 233.235L228.536 232.268Z" fill="white"/>
<path opacity="0.5" fill-rule="evenodd" clip-rule="evenodd" d="M222.631 235.787L238.191 247.195V249.003L221.3 236.754L222.631 235.787Z" fill="white"/>
<path fill-rule="evenodd" clip-rule="evenodd" d="M239.101 227.087V258.822L237.28 257.821V228.138L239.101 227.087Z" fill="#5E26AE"/>
<path fill-rule="evenodd" clip-rule="evenodd" d="M222.632 268.293L239.026 258.827L237.282 257.821L222.632 266.28V268.293Z" fill="#7C2EE9"/>
<path fill-rule="evenodd" clip-rule="evenodd" d="M281.993 202.19V238.657L261.425 250.483V214.061L281.993 202.19Z" fill="white"/>
<path fill-rule="evenodd" clip-rule="evenodd" d="M275.436 208.339L278.125 206.787V236.47L263.475 244.928V242.137V215.244L275.436 208.339Z" fill="#35195C"/>
<path opacity="0.5" fill-rule="evenodd" clip-rule="evenodd" d="M269.379 210.917L280.868 218.831V220.639L268.049 211.886L269.379 210.917Z" fill="white"/>
<path opacity="0.5" fill-rule="evenodd" clip-rule="evenodd" d="M263.475 214.437L279.035 225.845V227.654L262.145 215.405L263.475 214.437Z" fill="white"/>
<path fill-rule="evenodd" clip-rule="evenodd" d="M279.944 205.736V237.472L278.123 236.47V206.787L279.944 205.736Z" fill="#5E26AE"/>
<path fill-rule="evenodd" clip-rule="evenodd" d="M263.475 246.942L279.869 237.476L278.125 236.47L263.475 244.929V246.942Z" fill="#7C2EE9"/>
<path d="M196.783 153.931L212.373 144.948L227.964 153.948L212.373 162.933L196.783 153.931Z" fill="white"/>
<path d="M196.783 165.95L212.373 186.934V162.932L196.783 153.931V165.95Z" fill="#F6F6FF"/>
<path d="M227.965 177.934L212.374 186.934V162.933L227.965 153.949V177.934Z" fill="#E6E1FF"/>
<path d="M201.972 153.935L212.374 147.94L222.777 153.945L212.374 159.941L201.972 153.935Z" fill="#35195C"/>
<path d="M218.151 126.295L231.819 153.931L259.179 138.147L245.51 110.5L218.151 126.295Z" fill="#EFFAFF"/>
<path d="M220.09 126.883L244.884 112.568L257.241 137.561L232.446 151.864L220.09 126.883Z" fill="url(#paint1_linear_75_2591)"/>
<path d="M225.883 123.333L225.604 123.469L238.525 150.057L238.804 149.922L225.883 123.333Z" fill="#EFFAFF"/>
<path d="M232.119 118.638L231.84 118.773L244.838 145.519L245.117 145.383L232.119 118.638Z" fill="#EFFAFF"/>
<path d="M238.805 114.863L238.526 114.999L251.518 141.731L251.797 141.595L238.805 114.863Z" fill="#EFFAFF"/>
<path d="M252.369 126.111L225.675 141.54L225.83 141.808L252.524 126.38L252.369 126.111Z" fill="#EFFAFF"/>
<path d="M231.82 153.931L230.784 154.277L217.035 126.94L218.152 126.295" fill="#9DB6D9"/>
<path opacity="0.2" d="M244.884 112.568L232.446 151.864L220.09 126.883L244.884 112.568Z" fill="white"/>
<path d="M234.411 158.236L248.079 185.872L275.439 170.088L261.769 142.441L234.411 158.236Z" fill="#EFFAFF"/>
<path d="M236.35 158.824L261.144 144.508L273.501 169.501L248.706 183.805L236.35 158.824Z" fill="url(#paint2_linear_75_2591)"/>
<path d="M242.14 155.275L241.861 155.411L254.783 181.999L255.062 181.864L242.14 155.275Z" fill="#EFFAFF"/>
<path d="M248.377 150.58L248.098 150.715L261.096 177.461L261.375 177.325L248.377 150.58Z" fill="#EFFAFF"/>
<path d="M255.064 146.803L254.785 146.939L267.777 173.671L268.056 173.535L255.064 146.803Z" fill="#EFFAFF"/>
<path d="M268.651 158.032L241.957 173.463L242.112 173.732L268.807 158.301L268.651 158.032Z" fill="#EFFAFF"/>
<path d="M248.08 185.872L247.044 186.218L233.295 158.881L234.412 158.236" fill="#9DB6D9"/>
<path opacity="0.2" d="M261.144 144.508L248.706 183.805L236.35 158.824L261.144 144.508Z" fill="white"/>
<path d="M212.372 156.021V159.94L222.775 153.945L212.372 147.94V156.021Z" fill="#7C2EE9"/>
<path d="M380.402 254.415C396.967 254.415 410.396 240.986 410.396 224.421C410.396 207.856 396.967 194.427 380.402 194.427C363.837 194.427 350.408 207.856 350.408 224.421C350.408 240.986 363.837 254.415 380.402 254.415Z" fill="url(#paint3_linear_75_2591)"/>
<path d="M388.16 239.184C387.068 239.368 386.034 238.632 385.851 237.539L385.56 235.793C377.707 236.802 370.693 233.792 368.814 228.747L361.939 229.907C360.846 230.089 359.811 229.352 359.626 228.26C359.446 227.169 360.181 226.136 361.271 225.95L368.431 224.75C369.242 219.783 374.632 215.219 381.848 213.713L381.555 211.97C381.371 210.878 382.107 209.844 383.2 209.66C384.292 209.477 385.325 210.211 385.51 211.304L386.263 215.784L394.039 214.475C395.136 214.294 396.165 215.027 396.348 216.119C396.536 217.215 395.801 218.249 394.704 218.429L386.925 219.742L388.298 227.909L396.078 226.603C397.171 226.42 398.204 227.155 398.388 228.247C398.572 229.34 397.836 230.373 396.744 230.557L388.969 231.865L389.809 236.872C389.992 237.969 389.257 239.002 388.16 239.184Z" fill="#F6F6FF"/>
<path d="M306.163 402.449C322.728 402.449 336.156 389.021 336.156 372.456C336.156 355.891 322.728 342.462 306.163 342.462C289.598 342.462 276.169 355.891 276.169 372.456C276.169 389.021 289.598 402.449 306.163 402.449Z" fill="url(#paint4_linear_75_2591)"/>
<path d="M310.332 384.733V385.802C310.332 386.652 309.707 387.359 308.895 387.48L308.631 388.451C308.489 388.978 308.014 389.346 307.464 389.346H304.853C304.303 389.346 303.83 388.978 303.686 388.451L303.431 387.48C302.611 387.352 301.987 386.652 301.987 385.794V384.725C301.987 384.154 302.445 383.694 303.018 383.694H309.301C309.872 383.702 310.332 384.16 310.332 384.733ZM315.17 370.33C315.17 372.761 314.207 374.966 312.642 376.584C311.453 377.818 310.686 379.39 310.43 381.069C310.317 381.791 309.693 382.326 308.955 382.326H303.365C302.635 382.326 302.003 381.799 301.898 381.077C301.634 379.399 300.86 377.803 299.67 376.577C298.135 374.982 297.179 372.815 297.157 370.43C297.103 365.419 301.092 361.362 306.104 361.325C311.107 361.286 315.17 365.334 315.17 370.33ZM306.163 358.366C306.72 358.366 307.179 357.914 307.179 357.349V353.79C307.179 353.234 306.727 352.774 306.163 352.774C305.598 352.774 305.148 353.226 305.148 353.79V357.349C305.148 357.914 305.606 358.366 306.163 358.366ZM294.206 370.322C294.206 369.766 293.754 369.307 293.19 369.307H289.631C289.074 369.307 288.614 369.759 288.614 370.322C288.614 370.879 289.066 371.339 289.631 371.339H293.19C293.754 371.338 294.206 370.887 294.206 370.322ZM322.695 369.307H319.136C318.579 369.307 318.12 369.759 318.12 370.322C318.12 370.879 318.571 371.339 319.136 371.339H322.695C323.252 371.339 323.711 370.887 323.711 370.322C323.711 369.766 323.26 369.307 322.695 369.307ZM296.275 378.781L293.754 381.302C293.355 381.701 293.355 382.34 293.754 382.739C293.95 382.935 294.213 383.032 294.469 383.032C294.726 383.032 294.988 382.934 295.185 382.739L297.706 380.218C298.105 379.819 298.105 379.18 297.706 378.781C297.314 378.382 296.666 378.382 296.275 378.781ZM315.336 362.165C315.592 362.165 315.855 362.067 316.05 361.872L318.571 359.351C318.971 358.952 318.971 358.313 318.571 357.914C318.172 357.515 317.533 357.515 317.134 357.914L314.613 360.435C314.214 360.834 314.214 361.473 314.613 361.872C314.816 362.068 315.073 362.165 315.336 362.165ZM296.275 361.865C296.47 362.06 296.734 362.158 296.99 362.158C297.246 362.158 297.509 362.06 297.706 361.865C298.105 361.466 298.105 360.827 297.706 360.428L295.185 357.907C294.785 357.509 294.147 357.509 293.747 357.907C293.348 358.306 293.348 358.946 293.747 359.344L296.275 361.865ZM316.05 378.781C315.651 378.382 315.012 378.382 314.613 378.781C314.214 379.18 314.214 379.819 314.613 380.218L317.134 382.739C317.33 382.935 317.594 383.032 317.849 383.032C318.105 383.032 318.368 382.934 318.563 382.739C318.963 382.341 318.963 381.701 318.563 381.302L316.05 378.781Z" fill="#E6E1FF"/>
<path d="M100.522 402.449C117.087 402.449 130.516 389.021 130.516 372.456C130.516 355.891 117.087 342.462 100.522 342.462C83.9569 342.462 70.5283 355.891 70.5283 372.456C70.5283 389.021 83.9569 402.449 100.522 402.449Z" fill="url(#paint5_linear_75_2591)"/>
<path d="M116.474 373.096C115.613 372.535 114.461 372.779 113.9 373.64L111.704 377.012C111.144 377.873 111.387 379.025 112.248 379.586C113.109 380.146 114.261 379.903 114.822 379.042L117.018 375.67C117.579 374.808 117.335 373.656 116.474 373.096Z" fill="#F6F6FF"/>
<path d="M101.201 354.754C99.0569 353.358 96.1869 353.965 94.7907 356.109L91.7804 360.734C90.3842 362.878 90.991 365.75 93.1355 367.146L98.3839 370.562L98.0657 371.098C97.4235 372.181 96.2987 372.888 95.0439 372.998L89.426 373.487V369.654C89.426 368.012 88.0948 366.68 86.4533 366.68C84.8107 366.68 83.4795 368.012 83.4795 369.654V382.487C83.4795 384.13 84.8107 385.461 86.4533 385.461C88.0948 385.461 89.426 384.13 89.426 382.487V378.2L97.8626 377.463C99.1254 377.353 100.256 376.638 100.897 375.544L102.311 373.125L108.984 377.466L113.275 370.884L121.379 367.887L101.201 354.754Z" fill="#F6F6FF"/>
<path d="M31.8081 254.415C48.3731 254.415 61.8018 240.986 61.8018 224.421C61.8018 207.856 48.3731 194.427 31.8081 194.427C15.2431 194.427 1.81445 207.856 1.81445 224.421C1.81445 240.986 15.2431 254.415 31.8081 254.415Z" fill="url(#paint6_linear_75_2591)"/>
<path d="M45.3291 218.253H42.9428V215.072C42.9428 208.932 37.9476 203.936 31.8072 203.936C25.6668 203.936 20.6717 208.931 20.6717 215.072V218.253H18.2853C17.8461 218.253 17.4902 218.609 17.4902 219.048V238.933C17.4902 240.687 18.9173 242.114 20.6717 242.114H42.9428C44.6972 242.114 46.1242 240.687 46.1242 238.933V219.049C46.1242 218.609 45.7683 218.253 45.3291 218.253ZM34.1901 234.869C34.2152 235.093 34.1422 235.318 33.9917 235.487C33.8411 235.656 33.6255 235.751 33.3985 235.751H30.2171C29.9912 235.751 29.7756 235.656 29.6239 235.487C29.4733 235.318 29.4015 235.093 29.4254 234.869L29.9273 230.356C29.1129 229.764 28.6258 228.826 28.6258 227.797C28.6258 226.043 30.0528 224.616 31.8072 224.616C33.5616 224.616 34.9886 226.043 34.9886 227.797C34.9886 228.826 34.5016 229.764 33.6871 230.356L34.1901 234.869ZM38.1712 218.253H25.4455V215.072C25.4455 211.563 28.2995 208.709 31.8083 208.709C35.3172 208.709 38.1712 211.563 38.1712 215.072V218.253Z" fill="#F6F6FF"/>
<path d="M314.045 118.936C330.61 118.936 344.039 105.507 344.039 88.9419C344.039 72.3768 330.61 58.9482 314.045 58.9482C297.48 58.9482 284.052 72.3768 284.052 88.9419C284.052 105.507 297.48 118.936 314.045 118.936Z" fill="url(#paint7_linear_75_2591)"/>
<path d="M316.243 94.7939V71.2544C316.243 68.292 313.834 65.8828 310.871 65.8828C307.909 65.8828 305.5 68.292 305.5 71.2544V94.7939C303.783 96.3248 302.813 98.4784 302.813 100.8C302.813 105.242 306.428 108.858 310.871 108.858C315.314 108.858 318.929 105.242 318.929 100.8C318.928 98.4784 317.959 96.3248 316.243 94.7939ZM313.557 76.626H312.214C311.473 76.626 310.871 77.2271 310.871 77.9697C310.871 78.7112 311.473 79.3123 312.214 79.3123H313.557V81.9987H308.184V71.2544C308.184 69.7749 309.39 68.5692 310.87 68.5692C312.35 68.5692 313.557 69.7749 313.557 71.2544V76.626Z" fill="#F6F6FF"/>
<path d="M333.701 81.9987H329.672V77.9697C329.672 77.2283 329.071 76.626 328.329 76.626C327.588 76.626 326.987 77.2271 326.987 77.9697V81.9987H322.958C322.216 81.9987 321.615 82.5998 321.615 83.3413C321.615 84.0827 322.216 84.6839 322.958 84.6839H326.987V88.7129C326.987 89.4543 327.588 90.0555 328.329 90.0555C329.071 90.0555 329.672 89.4543 329.672 88.7129V84.6839H333.701C334.442 84.6839 335.044 84.0827 335.044 83.3413C335.044 82.5998 334.442 81.9987 333.701 81.9987Z" fill="#F6F6FF"/>
<path d="M90.7036 118.936C107.269 118.936 120.697 105.507 120.697 88.9419C120.697 72.3768 107.269 58.9482 90.7036 58.9482C74.1386 58.9482 60.71 72.3768 60.71 88.9419C60.71 105.507 74.1386 118.936 90.7036 118.936Z" fill="url(#paint8_linear_75_2591)"/>
<path d="M109.86 72.7109H71.543C71.0182 72.7109 70.5928 73.1364 70.5928 73.6612V100.104C70.5928 100.629 71.0182 101.053 71.543 101.053H85.9523V103.332C85.9523 103.366 85.9592 103.396 85.9626 103.429H83.8945C83.4143 103.429 83.0242 103.819 83.0242 104.3C83.0242 104.781 83.4143 105.172 83.8945 105.172H97.9868C98.4681 105.172 98.8571 104.782 98.8571 104.3C98.8571 103.82 98.467 103.429 97.9868 103.429H95.9198C95.9221 103.397 95.9301 103.366 95.9301 103.332V101.053H109.864C110.388 101.053 110.814 100.627 110.814 100.104V73.6612C110.812 73.1364 110.386 72.7109 109.86 72.7109ZM108.12 95.9596C108.12 96.4844 107.694 96.9098 107.169 96.9098H74.2339C73.7092 96.9098 73.2837 96.4844 73.2837 95.9596V75.9095C73.2837 75.3847 73.7092 74.9593 74.2339 74.9593H107.169C107.694 74.9593 108.12 75.3847 108.12 75.9095V95.9596Z" fill="#F6F6FF"/>
<defs>
<linearGradient id="paint0_linear_75_2591" x1="154.091" y1="161.227" x2="291.124" y2="161.227" gradientUnits="userSpaceOnUse">
<stop stop-color="#4453E5"/>
<stop offset="1" stop-color="#7D4EE5"/>
</linearGradient>
<linearGradient id="paint1_linear_75_2591" x1="220.09" y1="132.216" x2="257.241" y2="132.216" gradientUnits="userSpaceOnUse">
<stop offset="0.1488" stop-color="#3B0898"/>
<stop offset="0.3103" stop-color="#410E9F"/>
<stop offset="0.537" stop-color="#501FB1"/>
<stop offset="0.8009" stop-color="#6A3ACF"/>
<stop offset="0.9662" stop-color="#7D4EE5"/>
</linearGradient>
<linearGradient id="paint2_linear_75_2591" x1="236.35" y1="164.157" x2="273.501" y2="164.157" gradientUnits="userSpaceOnUse">
<stop offset="0.1488" stop-color="#3B0898"/>
<stop offset="0.3103" stop-color="#410E9F"/>
<stop offset="0.537" stop-color="#501FB1"/>
<stop offset="0.8009" stop-color="#6A3ACF"/>
<stop offset="0.9662" stop-color="#7D4EE5"/>
</linearGradient>
<linearGradient id="paint3_linear_75_2591" x1="350.408" y1="224.421" x2="410.396" y2="224.421" gradientUnits="userSpaceOnUse">
<stop stop-color="#4453E5"/>
<stop offset="1" stop-color="#7D4EE5"/>
</linearGradient>
<linearGradient id="paint4_linear_75_2591" x1="280.485" y1="351.169" x2="351.168" y2="409.762" gradientUnits="userSpaceOnUse">
<stop stop-color="#4453E5"/>
<stop offset="1" stop-color="#7D4EE5"/>
</linearGradient>
<linearGradient id="paint5_linear_75_2591" x1="67.5271" y1="339.932" x2="132.63" y2="404.105" gradientUnits="userSpaceOnUse">
<stop stop-color="#4453E5"/>
<stop offset="1" stop-color="#7D4EE5"/>
</linearGradient>
<linearGradient id="paint6_linear_75_2591" x1="11.9279" y1="202.411" x2="64.0103" y2="260.074" gradientUnits="userSpaceOnUse">
<stop stop-color="#4453E5"/>
<stop offset="1" stop-color="#7D4EE5"/>
</linearGradient>
<linearGradient id="paint7_linear_75_2591" x1="282.219" y1="51.532" x2="335.232" y2="113.845" gradientUnits="userSpaceOnUse">
<stop stop-color="#4453E5"/>
<stop offset="1" stop-color="#7D4EE5"/>
</linearGradient>
<linearGradient id="paint8_linear_75_2591" x1="73.4586" y1="66.8151" x2="122.751" y2="130.058" gradientUnits="userSpaceOnUse">
<stop stop-color="#4453E5"/>
<stop offset="1" stop-color="#7D4EE5"/>
</linearGradient>
</defs>
</svg>
