<svg width="490" height="322" viewBox="0 0 490 322" fill="none" xmlns="http://www.w3.org/2000/svg">
<path d="M462.825 14.1952H59.5625V304.223H462.825V14.1952Z" fill="#9DB6D9" stroke="#091527" stroke-miterlimit="10"/>
<path d="M458.546 35.0729H63.8867V299.963H458.546V35.0729Z" fill="white"/>
<path d="M462.698 14.1952H59.4355V30.5081H462.698V14.1952Z" fill="#091527"/>
<path d="M74.2814 27.086C77.0796 27.086 79.348 24.9014 79.348 22.2065C79.348 19.5116 77.0796 17.327 74.2814 17.327C71.4832 17.327 69.2148 19.5116 69.2148 22.2065C69.2148 24.9014 71.4832 27.086 74.2814 27.086Z" fill="white"/>
<path d="M89.8166 27.086C92.6148 27.086 94.8832 24.9014 94.8832 22.2065C94.8832 19.5116 92.6148 17.327 89.8166 17.327C87.0184 17.327 84.75 19.5116 84.75 22.2065C84.75 24.9014 87.0184 27.086 89.8166 27.086Z" fill="white"/>
<path d="M110.416 22.2065C110.416 24.9017 108.148 27.086 105.35 27.086C102.551 27.086 100.283 24.9017 100.283 22.2065C100.283 19.5113 102.551 17.327 105.35 17.327C108.148 17.327 110.416 19.5113 110.416 22.2065Z" fill="white"/>
<path d="M307.791 231.102H219.514C212.389 231.102 206.613 225.54 206.613 218.678V200.637C206.613 193.775 212.389 188.213 219.514 188.213H307.791C314.916 188.213 320.691 193.775 320.691 200.637V218.678C320.693 225.54 314.917 231.102 307.791 231.102Z" fill="#7C2EE9" stroke="#091527" stroke-miterlimit="10"/>
<path d="M217.953 234.795H310.227C318.184 234.795 324.635 228.582 324.635 220.919V199.954" stroke="#091527" stroke-miterlimit="10" stroke-linecap="round" stroke-linejoin="round"/>
<path d="M240.584 212.5C240.584 213.502 240.327 214.272 239.812 214.809C239.298 215.345 238.551 215.614 237.572 215.614C236.591 215.614 235.845 215.345 235.33 214.809C234.815 214.272 234.559 213.502 234.559 212.5V206.06C234.559 205.058 234.815 204.288 235.33 203.752C235.845 203.215 236.591 202.947 237.572 202.947C238.552 202.947 239.298 203.215 239.812 203.752C240.327 204.288 240.584 205.058 240.584 206.06V207.263H238.673V205.936C238.673 205.122 238.324 204.715 237.625 204.715C236.927 204.715 236.578 205.123 236.578 205.936V212.623C236.578 213.426 236.928 213.826 237.625 213.826C238.323 213.826 238.673 213.426 238.673 212.623V210.854H240.584V212.5Z" fill="#091527"/>
<path d="M243.837 203.087V213.703H247.161V215.472H241.814V203.087H243.837Z" fill="#091527"/>
<path d="M250.064 203.087V215.472H248.043V203.087H250.064Z" fill="#091527"/>
<path d="M257.392 212.5C257.392 213.502 257.136 214.272 256.621 214.809C256.106 215.345 255.358 215.614 254.379 215.614C253.4 215.614 252.653 215.345 252.139 214.809C251.624 214.272 251.367 213.502 251.367 212.5V206.06C251.367 205.058 251.624 204.288 252.139 203.752C252.654 203.215 253.4 202.947 254.379 202.947C255.358 202.947 256.107 203.215 256.621 203.752C257.136 204.288 257.392 205.058 257.392 206.06V207.263H255.481V205.936C255.481 205.122 255.133 204.715 254.435 204.715C253.737 204.715 253.388 205.123 253.388 205.936V212.623C253.388 213.426 253.737 213.826 254.435 213.826C255.133 213.826 255.481 213.426 255.481 212.623V210.854H257.392V212.5Z" fill="#091527"/>
<path d="M260.644 211.667V215.472H258.623V203.087H260.644V208.483L263.289 203.087H265.31L262.5 208.606L265.31 215.472H263.234L261.268 210.535L260.644 211.667Z" fill="#091527"/>
<path d="M269.076 215.472V203.087H271.097V208.395H273.393V203.087H275.451V215.472H273.393V210.164H271.097V215.472H269.076Z" fill="#091527"/>
<path d="M281.716 208.307V210.075H278.942V213.703H282.433V215.472H276.922V203.087H282.433V204.856H278.942V208.306H281.716V208.307Z" fill="#091527"/>
<path d="M287.759 214.906C287.733 214.73 287.721 214.411 287.721 213.951V212.005C287.721 211.44 287.618 211.034 287.409 210.793C287.201 210.551 286.864 210.429 286.399 210.429H285.701V215.472H283.68V203.087H286.729C287.77 203.087 288.529 203.32 289.008 203.786C289.485 204.252 289.724 204.969 289.724 205.936V206.909C289.724 208.183 289.284 209.02 288.401 209.42C288.879 209.61 289.221 209.925 289.43 210.367C289.639 210.809 289.743 211.372 289.743 212.056V213.967C289.743 214.321 289.756 214.606 289.78 214.825C289.804 215.043 289.864 215.259 289.963 215.47H287.905C287.832 215.272 287.783 215.083 287.759 214.906ZM285.701 208.661H286.49C286.894 208.661 287.198 208.56 287.399 208.36C287.602 208.16 287.703 207.824 287.703 207.352V206.132C287.703 205.684 287.621 205.358 287.455 205.159C287.29 204.959 287.029 204.858 286.675 204.858H285.701V208.661Z" fill="#091527"/>
<path d="M295.861 208.307V210.075H293.086V213.703H296.578V215.472H291.066V203.087H296.578V204.856H293.086V208.306H295.861V208.307Z" fill="#091527"/>
<path d="M386.346 92.7069H207.82V109.057H386.346V92.7069Z" fill="#9DB6D9"/>
<path d="M326.466 119.278H207.82V135.628H326.466V119.278Z" fill="#9DB6D9"/>
<path d="M207.82 149.932H326.466" stroke="#091527" stroke-miterlimit="10"/>
<path d="M207.82 160.326H337.543" stroke="#091527" stroke-miterlimit="10"/>
<path d="M207.82 170.722H348.622" stroke="#091527" stroke-miterlimit="10"/>
<path d="M427.58 43.7124H450.01" stroke="#091527" stroke-miterlimit="10"/>
<path d="M427.58 49.5719H450.01" stroke="#091527" stroke-miterlimit="10"/>
<path d="M427.58 55.4303H450.01" stroke="#091527" stroke-miterlimit="10"/>
<path d="M146.229 43.0319H109.266V49.5719H146.229V43.0319Z" fill="#9DB6D9"/>
<path d="M195.165 43.0319H158.201V49.5719H195.165V43.0319Z" fill="#9DB6D9"/>
<path d="M244.1 43.0319H207.137V49.5719H244.1V43.0319Z" fill="#9DB6D9"/>
<path d="M293.036 43.0319H256.072V49.5719H293.036V43.0319Z" fill="#9DB6D9"/>
<path d="M98.2323 43.0319H71.2715V68.9969H98.2323V43.0319Z" fill="white" stroke="#091527" stroke-linecap="round" stroke-linejoin="round"/>
<path d="M102.977 306.622C102.802 306.887 104.26 308.29 99.3238 308.36C87.1661 308.535 65.7108 307.203 57.9373 296.364C46.8371 280.888 73.3554 282.954 71.0017 274.515C68.6481 266.077 39.9305 272.193 34.6879 260.099C29.4452 248.005 50.1324 250.862 49.3378 244.688C48.5432 238.514 26.555 245.932 19.7256 233.071C12.8962 220.211 31.7289 227.475 28.7905 222.144C25.8532 216.814 2.30598 194.334 12.2197 189.706C22.1335 185.079 44.1989 208.482 51.6131 211.115C59.0273 213.747 61.3689 191.399 70.9993 199.141C80.6297 206.883 73.2529 240.52 84.6087 245.007C93.0659 248.349 88.736 236.117 99.2659 236.85C113.569 237.844 116.986 285.357 102.977 306.622Z" fill="#7C2EE9"/>
<g opacity="0.1">
<path d="M102.977 306.622C102.802 306.887 104.26 308.29 99.3238 308.36C87.1661 308.535 65.7108 307.203 57.9373 296.364C46.8371 280.888 73.3554 282.954 71.0017 274.515C68.6481 266.077 39.9305 272.193 34.6879 260.099C29.4452 248.005 50.1324 250.862 49.3378 244.688C48.5432 238.514 26.555 245.932 19.7256 233.071C12.8962 220.211 31.7289 227.475 28.7905 222.144C25.8532 216.814 2.30598 194.334 12.2197 189.706C22.1335 185.079 44.1989 208.482 51.6131 211.115C59.0273 213.747 61.3689 191.399 70.9993 199.141C80.6297 206.883 73.2529 240.52 84.6087 245.007C93.0659 248.349 88.736 236.117 99.2659 236.85C113.569 237.844 116.986 285.357 102.977 306.622Z" fill="#091527"/>
</g>
<path d="M103.256 308.511C103.232 308.408 103.208 308.305 103.173 308.201C103.102 307.973 103.031 307.743 102.959 307.513C102.328 305.495 101.684 303.522 101.017 301.607C99.5885 297.536 98.0885 293.671 96.5042 290.013C94.9439 286.377 93.3125 282.949 91.6462 279.704C90.9553 278.363 90.2644 277.043 89.5505 275.771C85.0965 267.651 80.4531 260.863 76.1184 255.312C73.1064 251.471 70.2475 248.237 67.6998 245.565C61.3177 238.88 56.8516 235.759 56.8516 235.759" stroke="#091527" stroke-miterlimit="10" stroke-linecap="round" stroke-linejoin="round"/>
<path d="M49.3477 245.246C60.8036 243.208 67.6993 245.568 67.6993 245.568" stroke="#091527" stroke-miterlimit="10" stroke-linecap="round" stroke-linejoin="round"/>
<path d="M63.2441 212.93C63.2441 212.93 77.0139 231.559 76.1229 255.33" stroke="#091527" stroke-miterlimit="10" stroke-linecap="round" stroke-linejoin="round"/>
<path d="M89.5704 275.796C89.5704 275.796 79.6554 266.293 65.9785 270.626" stroke="#091527" stroke-miterlimit="10" stroke-linecap="round" stroke-linejoin="round"/>
<path d="M96.5039 290.011C96.5039 290.011 102.176 278.098 99.7884 261.027" stroke="#091527" stroke-miterlimit="10" stroke-linecap="round" stroke-linejoin="round"/>
<path d="M106.875 306.94C106.887 306.814 106.899 306.688 106.899 306.562C106.958 305.873 107.019 305.186 107.066 304.497C107.114 304.062 107.149 303.625 107.185 303.19C107.387 300.931 107.602 298.636 107.864 296.321C108.685 288.626 109.805 280.668 111.305 272.685C111.305 272.651 111.317 272.628 111.317 272.594C111.508 271.596 111.698 270.599 111.901 269.601C113.376 262.273 115.175 254.934 117.366 247.778C117.366 247.767 117.378 247.743 117.378 247.733C117.747 246.529 118.14 245.324 118.521 244.132C118.843 243.146 119.176 242.159 119.521 241.185C120.354 238.753 121.152 236.368 121.866 234.018V234.006C123.426 228.96 124.736 224.087 125.82 219.442C125.82 219.442 125.82 219.43 125.82 219.419C125.82 219.407 125.832 219.384 125.832 219.372C126.511 216.494 127.106 213.707 127.606 210.989C129.856 199.144 130.678 188.741 130.761 180.05C130.808 175.543 130.654 171.506 130.392 167.951C130.011 162.744 129.391 158.604 128.832 155.612C128.761 155.245 128.7 154.889 128.641 154.546C128.629 154.511 128.617 154.465 128.605 154.419C128.605 154.407 128.605 154.407 128.605 154.396C128.593 154.384 128.593 154.361 128.593 154.35C128.569 154.327 128.581 154.316 128.593 154.294" stroke="#091527" stroke-miterlimit="10" stroke-linecap="round" stroke-linejoin="round"/>
<path d="M128.64 154.55C128.623 154.516 128.623 154.516 128.606 154.515C128.589 154.482 128.589 154.482 128.572 154.48C127.23 153.266 125.743 152.215 124.164 151.33C122.429 150.391 120.567 149.632 118.627 149.14" fill="white"/>
<path d="M128.64 154.55C128.623 154.516 128.623 154.516 128.606 154.515C128.589 154.482 128.589 154.482 128.572 154.48C127.23 153.266 125.743 152.215 124.164 151.33C122.429 150.391 120.567 149.632 118.627 149.14" stroke="#091527" stroke-miterlimit="10" stroke-linecap="round" stroke-linejoin="round"/>
<path d="M130.395 167.952L135.649 163.63" stroke="#091527" stroke-miterlimit="10" stroke-linecap="round" stroke-linejoin="round"/>
<path d="M121.865 234.018V234C121.643 232.7 121.28 231.412 120.776 230.17C120.08 228.352 119.102 226.643 117.875 225.096C116.967 223.944 115.917 222.888 114.758 221.948" stroke="#091527" stroke-miterlimit="10" stroke-linecap="round" stroke-linejoin="round"/>
<path d="M117.355 247.784C118.872 244.371 121.952 241.611 125.594 240.399" stroke="#091527" stroke-miterlimit="10" stroke-linecap="round" stroke-linejoin="round"/>
<path d="M125.827 219.438C125.827 219.438 127.648 189.402 110.836 178.023" stroke="#091527" stroke-miterlimit="10" stroke-linecap="round" stroke-linejoin="round"/>
<path d="M125.953 288.536C126.114 295.874 107.218 304.556 107.218 304.556C107.218 304.556 87.9569 296.652 87.7953 289.314C87.6337 281.976 95.9679 272.336 106.504 272.121C117.042 271.907 125.792 281.198 125.953 288.536Z" fill="#7C2EE9"/>
<path d="M145.399 199.418C143.183 206.805 128.169 211.676 128.169 211.676C128.169 211.676 118.164 199.845 120.379 192.457C122.595 185.07 131.053 177.097 137.962 179.018C144.873 180.941 147.614 192.029 145.399 199.418Z" fill="#7C2EE9"/>
<path d="M105.522 222.16C107.451 223.625 109.44 225.12 111.791 225.807C114.142 226.493 116.971 226.193 118.635 224.454C120.698 222.297 120.266 218.853 119.091 216.149C116.76 210.79 107.841 201.557 100.703 203.934C90.3983 207.364 101.075 218.785 105.522 222.16Z" fill="#7C2EE9"/>
<path d="M125.969 236.224C124.584 237.782 123.103 239.754 123.777 241.7C124.374 243.427 126.529 244.271 128.405 244.052C130.281 243.832 131.937 242.812 133.52 241.819C137.191 239.515 144.719 234.674 140.154 229.82C135.411 224.774 128.89 232.94 125.969 236.224Z" fill="#7C2EE9"/>
<path d="M97.9112 168.185C96.3667 168.306 94.7763 169.255 94.47 170.717C94.1107 172.427 95.5456 173.973 96.9478 175.077C100.44 177.829 110.96 185.287 113.566 178.451C116.028 171.993 102.673 167.814 97.9112 168.185Z" fill="#7C2EE9"/>
<path d="M118.39 146.034C116.169 146.174 113.982 145.338 111.758 145.411C109.533 145.484 107.016 147.136 107.447 149.24C107.845 151.184 110.318 151.9 112.366 152.083C115.862 152.393 119.4 152.258 122.859 151.681C123.662 151.547 124.537 151.343 125.015 150.708C125.952 149.459 124.575 147.712 123.06 147.218C121.546 146.725 119.817 146.826 118.452 146.023L118.39 146.034Z" fill="#7C2EE9"/>
<path d="M139.593 161.324C141.815 161.448 143.995 160.597 146.221 160.652C148.447 160.709 150.976 162.342 150.563 164.448C150.181 166.396 147.713 167.13 145.666 167.327C142.173 167.664 138.634 167.554 135.171 167.002C134.367 166.874 133.489 166.677 133.008 166.044C132.062 164.803 133.424 163.046 134.935 162.541C136.446 162.035 138.176 162.125 139.534 161.312L139.593 161.324Z" fill="#7C2EE9"/>
<path d="M128.647 154.806C128.647 154.806 127.887 146.245 130.051 145.606" stroke="#091527" stroke-miterlimit="10" stroke-linecap="round" stroke-linejoin="round"/>
<path d="M127.041 145.815C128.472 142.949 130.018 139.95 132.745 138.156C135.472 136.362 139.755 136.341 141.62 138.965C143.706 141.899 141.399 146.203 138.023 147.642C134.646 149.08 130.757 148.509 127.117 147.913C127.103 147.389 127.089 146.865 127.076 146.343L127.041 145.815Z" fill="#7C2EE9"/>
<path d="M117.479 293.223C127.293 295.046 145.695 289.046 153.839 281.58C162.103 274.004 142.285 276.254 145.449 269.75C148.613 263.246 170.941 272.168 176.988 263.106C183.035 254.044 165.866 253.495 167.43 248.607C168.994 243.721 186.18 247.634 193.627 238.171C201.072 228.708 184.747 231.981 187.92 228.073C191.093 224.166 213.504 209.23 206.17 204.114C198.837 198.997 177.489 214.885 171.095 215.99C164.702 217.094 165.642 203.815 156.694 208.749C147.745 213.683 148.698 241.926 138.838 243.987C131.495 245.521 136.659 233.524 128.192 235.356C113.374 238.564 113.494 292.482 117.479 293.223Z" fill="#7C2EE9"/>
<g opacity="0.2">
<path d="M117.479 293.223C127.293 295.046 145.695 289.046 153.839 281.58C162.103 274.004 142.285 276.254 145.449 269.75C148.613 263.246 170.941 272.168 176.988 263.106C183.035 254.044 165.866 253.495 167.43 248.607C168.994 243.721 186.18 247.634 193.627 238.171C201.072 228.708 184.747 231.981 187.92 228.073C191.093 224.166 213.504 209.23 206.17 204.114C198.837 198.997 177.489 214.885 171.095 215.99C164.702 217.094 165.642 203.815 156.694 208.749C147.745 213.683 148.698 241.926 138.838 243.987C131.495 245.521 136.659 233.524 128.192 235.356C113.374 238.564 113.494 292.482 117.479 293.223Z" fill="white"/>
</g>
<path d="M114.104 303.695C114.163 303.546 114.223 303.396 114.282 303.248C114.722 302.135 115.175 301.034 115.64 299.945C116.58 297.72 117.557 295.53 118.581 293.397C120.343 289.647 122.224 286.035 124.178 282.571C128.762 274.428 133.751 267.044 138.8 260.449C141.55 256.848 144.325 253.488 147.052 250.358C164.056 230.886 179.488 220.623 179.488 220.623" stroke="#091527" stroke-miterlimit="10" stroke-linecap="round" stroke-linejoin="round"/>
<path d="M176.826 242.31C165.722 240.242 156.249 242.697 155.519 242.828C155.483 242.846 155.465 242.846 155.465 242.846" stroke="#091527" stroke-miterlimit="10" stroke-linecap="round" stroke-linejoin="round"/>
<path d="M162.817 214.666C162.817 214.666 148.758 229.541 147.037 250.507" stroke="#091527" stroke-miterlimit="10" stroke-linecap="round" stroke-linejoin="round"/>
<path d="M137.883 261.011C137.883 261.011 147.407 254.409 159.008 259.524" stroke="#091527" stroke-miterlimit="10" stroke-linecap="round" stroke-linejoin="round"/>
<path d="M125.482 278.762C125.482 278.762 121.756 267.693 125.651 252.962" stroke="#091527" stroke-miterlimit="10" stroke-linecap="round" stroke-linejoin="round"/>
</svg>
